SplineFontDB: 3.2
FontName: SymMingLiU4WenQ
FullName: SymMingLiU4WenQ
FamilyName: SymMingLiU4WenQ
Weight: Book
Copyright: (c) Copyright DynaLab Inc. 1992-1996
Version: 1.00
ItalicAngle: 0
UnderlinePosition: -135
UnderlineWidth: 50
Ascent: 820
Descent: 204
InvalidEm: 0
sfntRevision: 0x00010000
woffMajor: 1
woffMinor: 0
LayerCount: 2
Layer: 0 1 "Back" 1
Layer: 1 1 "Fore" 0
XUID: [1021 2 -677564330 16712]
StyleMap: 0x0040
FSType: 0
OS2Version: 3
OS2_WeightWidthSlopeOnly: 0
OS2_UseTypoMetrics: 0
CreationTime: 725788800
ModificationTime: 1584770701
PfmFamily: 17
TTFWeight: 400
TTFWidth: 5
LineGap: 204
VLineGap: 0
Panose: 2 1 6 9 0 1 1 1 1 1
OS2TypoAscent: 820
OS2TypoAOffset: 0
OS2TypoDescent: -204
OS2TypoDOffset: 0
OS2TypoLinegap: 204
OS2WinAscent: 820
OS2WinAOffset: 0
OS2WinDescent: 204
OS2WinDOffset: 0
HheadAscent: 820
HheadAOffset: 0
HheadDescent: -204
HheadDOffset: 0
OS2SubXSize: 512
OS2SubYSize: 512
OS2SubXOff: 0
OS2SubYOff: 0
OS2SupXSize: 512
OS2SupYSize: 512
OS2SupXOff: 0
OS2SupYOff: 512
OS2StrikeYSize: 51
OS2StrikeYPos: 260
OS2CapHeight: 711
OS2XHeight: 468
OS2Vendor: 'DYNA'
OS2CodePages: 00000001.c0d40000
OS2UnicodeRanges: 800000e3.00007858.00000004.00000000
MarkAttachClasses: 1
DEI: 91125
TtTable: prep
PUSHB_2
 15
 16
WS
PUSHB_1
 64
MPPEM
GT
IF
PUSHW_2
 511
 1
ELSE
PUSHW_2
 0
 1
EIF
SCANTYPE
SCANCTRL
PUSHW_2
 2048
 1
DIV
SCVTCI
PUSHB_2
 48
 46
RCVT
DUP
ODD
IF
POP
PUSHB_1
 1
ELSE
PUSHB_1
 32
LT
IF
PUSHB_1
 1
ELSE
PUSHB_1
 0
EIF
EIF
WS
PUSHB_2
 49
 47
RCVT
DUP
ODD
IF
POP
PUSHB_1
 1
ELSE
PUSHB_1
 32
LT
IF
PUSHB_1
 1
ELSE
PUSHB_1
 0
EIF
EIF
WS
PUSHB_2
 67
 6
WS
PUSHB_1
 25
MPPEM
GT
IF
PUSHB_2
 48
 48
ELSE
PUSHB_2
 48
 28
EIF
WCVTF
PUSHB_4
 7
 49
 49
 48
RCVT
ROUND[Grey]
DUP
PUSHB_1
 0
EQ
IF
POP
PUSHB_1
 64
EIF
WCVTP
RCVT
ODD
IF
PUSHB_1
 1
ELSE
PUSHB_1
 0
EIF
WS
PUSHB_1
 32
MPPEM
GT
IF
PUSHB_2
 48
 48
ELSE
PUSHB_2
 48
 32
EIF
WCVTF
PUSHB_4
 8
 49
 49
 48
RCVT
ROUND[Grey]
DUP
PUSHB_1
 0
EQ
IF
POP
PUSHB_1
 64
EIF
WCVTP
RCVT
ODD
IF
PUSHB_1
 1
ELSE
PUSHB_1
 0
EIF
WS

StartChar: exclam
Encoding: 33 33 3
Width: 512
GlyphClass: 2
Flags: W
LayerCount: 2
Fore
SplineSet
288 91 m 0,0,1
 306 73 306 73 306 48 c 0,2,3
 306 25 306 25 287.5 7 c 128,-1,4
 269 -11 269 -11 245 -11 c 0,5,6
 220 -11 220 -11 202 6.5 c 128,-1,7
 184 24 184 24 184 48 c 0,8,9
 184 73 184 73 202 91.5 c 128,-1,10
 220 110 220 110 245 110 c 0,11,12
 269 110 269 110 288 91 c 0,0,1
247 684 m 0,13,14
 270 684 270 684 284.5 664 c 128,-1,15
 299 644 299 644 299 598 c 0,16,17
 299 587 299 587 298 571 c 128,-1,18
 297 555 297 555 295 535 c 2,19,-1
 290 481 l 1,20,-1
 271 199 l 1,21,-1
 220 199 l 1,22,-1
 205 481 l 2,23,24
 204 498 204 498 202.5 516 c 128,-1,25
 201 534 201 534 199.5 550.5 c 128,-1,26
 198 567 198 567 196.5 582.5 c 128,-1,27
 195 598 195 598 195 608 c 0,28,29
 195 644 195 644 208.5 664 c 128,-1,30
 222 684 222 684 247 684 c 0,13,14
EndSplineSet
Validated: 1
EndChar

StartChar: quotedbl
Encoding: 34 34 4
Width: 512
GlyphClass: 2
Flags: W
LayerCount: 2
Fore
SplineSet
323 561 m 2,0,-1
 316 626 l 2,1,2
 316 654 316 654 329.5 668 c 128,-1,3
 343 682 343 682 360 682 c 0,4,5
 378 682 378 682 392.5 666.5 c 128,-1,6
 407 651 407 651 407 617 c 0,7,8
 407 586 407 586 372 489 c 2,9,-1
 347 422 l 1,10,-1
 291 435 l 1,11,-1
 313 505 l 2,12,13
 323 536 323 536 323 561 c 2,0,-1
146 561 m 2,14,-1
 139 626 l 2,15,16
 139 654 139 654 152.5 668 c 128,-1,17
 166 682 166 682 183 682 c 0,18,19
 201 682 201 682 215 666.5 c 128,-1,20
 229 651 229 651 229 617 c 256,21,22
 229 583 229 583 196 489 c 2,23,-1
 171 422 l 1,24,-1
 114 435 l 1,25,-1
 136 505 l 2,26,27
 141 520 141 520 143.5 534 c 128,-1,28
 146 548 146 548 146 561 c 2,14,-1
EndSplineSet
Validated: 1
EndChar

StartChar: numbersign
Encoding: 35 35 5
Width: 512
GlyphClass: 2
Flags: W
LayerCount: 2
Fore
SplineSet
177 639 m 1,0,-1
 240 641 l 1,1,-1
 218 466 l 1,2,-1
 331 466 l 1,3,-1
 351 637 l 1,4,-1
 415 638 l 1,5,-1
 394 468 l 1,6,-1
 487 468 l 1,7,-1
 481 420 l 1,8,-1
 388 420 l 1,9,-1
 367 247 l 1,10,-1
 468 247 l 1,11,-1
 463 201 l 1,12,-1
 361 201 l 1,13,-1
 339 14 l 1,14,-1
 276 10 l 1,15,-1
 299 198 l 1,16,-1
 185 198 l 1,17,-1
 164 14 l 1,18,-1
 103 13 l 1,19,-1
 125 196 l 1,20,-1
 26 196 l 1,21,-1
 30 242 l 1,22,-1
 131 242 l 1,23,-1
 152 417 l 1,24,-1
 40 417 l 1,25,-1
 43 464 l 1,26,-1
 157 464 l 1,27,-1
 177 639 l 1,0,-1
212 418 m 1,28,-1
 191 244 l 1,29,-1
 304 244 l 1,30,-1
 326 418 l 1,31,-1
 212 418 l 1,28,-1
EndSplineSet
Validated: 1
EndChar

StartChar: dollar
Encoding: 36 36 6
Width: 512
GlyphClass: 2
Flags: W
LayerCount: 2
Fore
SplineSet
241 667 m 1,0,-1
 306 667 l 2,1,2
 307 666 307 666 307 664 c 256,3,4
 307 662 307 662 304 657 c 128,-1,5
 301 652 301 652 300 645 c 2,6,-1
 300 606 l 1,7,8
 396 595 396 595 453 527 c 1,9,-1
 409 472 l 1,10,11
 403 474 403 474 402.5 481 c 128,-1,12
 402 488 402 488 397 494 c 0,13,14
 361 536 361 536 300 546 c 1,15,-1
 300 348 l 1,16,17
 344 334 344 334 376.5 318.5 c 128,-1,18
 409 303 409 303 430 284 c 128,-1,19
 451 265 451 265 461 241 c 128,-1,20
 471 217 471 217 471 185 c 0,21,22
 471 156 471 156 459 128 c 128,-1,23
 447 100 447 100 425 77 c 128,-1,24
 403 54 403 54 371.5 38 c 128,-1,25
 340 22 340 22 300 16 c 1,26,-1
 300 -48 l 1,27,-1
 241 -48 l 1,28,-1
 241 14 l 1,29,30
 130 23 130 23 61 96 c 1,31,-1
 105 158 l 1,32,33
 110 155 110 155 110 147.5 c 128,-1,34
 110 140 110 140 113 136 c 0,35,36
 164 81 164 81 241 74 c 1,37,-1
 241 299 l 1,38,39
 161 326 161 326 121 363 c 128,-1,40
 81 400 81 400 81 457 c 0,41,42
 81 484 81 484 92.5 509.5 c 128,-1,43
 104 535 104 535 125 554 c 128,-1,44
 146 573 146 573 175.5 586.5 c 128,-1,45
 205 600 205 600 241 605 c 1,46,-1
 241 667 l 1,0,-1
300 280 m 1,47,-1
 300 76 l 1,48,49
 349 85 349 85 376.5 115 c 128,-1,50
 404 145 404 145 404 181 c 0,51,52
 404 218 404 218 379.5 240 c 128,-1,53
 355 262 355 262 300 280 c 1,47,-1
241 370 m 1,54,-1
 241 547 l 1,55,56
 195 542 195 542 171.5 518.5 c 128,-1,57
 148 495 148 495 148 465 c 0,58,59
 148 407 148 407 241 370 c 1,54,-1
EndSplineSet
Validated: 1
EndChar

StartChar: percent
Encoding: 37 37 7
Width: 512
GlyphClass: 2
Flags: W
LayerCount: 2
Fore
SplineSet
400 638 m 1,0,-1
 469 638 l 1,1,-1
 113 0 l 1,2,-1
 47 0 l 1,3,-1
 400 638 l 1,0,-1
29 516 m 0,4,5
 29 544 29 544 38 568.5 c 128,-1,6
 47 593 47 593 62.5 611 c 128,-1,7
 78 629 78 629 99 639 c 128,-1,8
 120 649 120 649 143 649 c 0,9,10
 167 649 167 649 188 639 c 128,-1,11
 209 629 209 629 224.5 610.5 c 128,-1,12
 240 592 240 592 249 567.5 c 128,-1,13
 258 543 258 543 258 515 c 0,14,15
 258 457 258 457 225.5 419.5 c 128,-1,16
 193 382 193 382 143 382 c 0,17,18
 120 382 120 382 99 392 c 128,-1,19
 78 402 78 402 62.5 420 c 128,-1,20
 47 438 47 438 38 462.5 c 128,-1,21
 29 487 29 487 29 516 c 0,4,5
194 516 m 256,22,23
 194 560 194 560 177.5 578 c 128,-1,24
 161 596 161 596 141 596 c 0,25,26
 123 596 123 596 107 578 c 128,-1,27
 91 560 91 560 91 516 c 0,28,29
 91 473 91 473 107.5 454.5 c 128,-1,30
 124 436 124 436 143 436 c 0,31,32
 163 436 163 436 178.5 454 c 128,-1,33
 194 472 194 472 194 516 c 256,22,23
380 255 m 0,34,35
 403 255 403 255 424 244.5 c 128,-1,36
 445 234 445 234 460.5 216 c 128,-1,37
 476 198 476 198 485 174 c 128,-1,38
 494 150 494 150 494 122 c 256,39,40
 494 94 494 94 484.5 69.5 c 128,-1,41
 475 45 475 45 459.5 27.5 c 128,-1,42
 444 10 444 10 423.5 0 c 128,-1,43
 403 -10 403 -10 380 -10 c 0,44,45
 356 -10 356 -10 335 0 c 128,-1,46
 314 10 314 10 299 27.5 c 128,-1,47
 284 45 284 45 274.5 69.5 c 128,-1,48
 265 94 265 94 265 122 c 256,49,50
 265 150 265 150 274.5 174.5 c 128,-1,51
 284 199 284 199 299 216.5 c 128,-1,52
 314 234 314 234 335 244.5 c 128,-1,53
 356 255 356 255 380 255 c 0,34,35
416 183 m 0,54,55
 398 203 398 203 379 203 c 0,56,57
 358 203 358 203 342 184.5 c 128,-1,58
 326 166 326 166 326 123 c 0,59,60
 326 79 326 79 343 60 c 128,-1,61
 360 41 360 41 381 41 c 0,62,63
 401 41 401 41 417 60.5 c 128,-1,64
 433 80 433 80 433 121 c 0,65,66
 433 163 433 163 416 183 c 0,54,55
EndSplineSet
Validated: 1
EndChar

StartChar: ampersand
Encoding: 38 38 8
Width: 512
GlyphClass: 2
Flags: W
LayerCount: 2
Fore
SplineSet
423 268 m 1,0,-1
 422 281 l 2,1,2
 422 287 422 287 426 291 c 1,3,-1
 493 245 l 1,4,5
 458 183 458 183 415 126 c 1,6,-1
 486 33 l 1,7,-1
 426 -12 l 1,8,-1
 370 78 l 1,9,10
 338 38 338 38 292.5 14 c 128,-1,11
 247 -10 247 -10 197 -10 c 0,12,13
 162 -10 162 -10 132.5 2 c 128,-1,14
 103 14 103 14 81.5 35 c 128,-1,15
 60 56 60 56 48.5 84.5 c 128,-1,16
 37 113 37 113 37 144 c 0,17,18
 37 209 37 209 72.5 263.5 c 128,-1,19
 108 318 108 318 166 351 c 1,20,21
 93 439 93 439 93 510 c 0,22,23
 93 539 93 539 104.5 563.5 c 128,-1,24
 116 588 116 588 135 606 c 128,-1,25
 154 624 154 624 179.5 634 c 128,-1,26
 205 644 205 644 233 644 c 0,27,28
 264 644 264 644 289.5 633 c 128,-1,29
 315 622 315 622 333.5 603 c 128,-1,30
 352 584 352 584 362 560 c 128,-1,31
 372 536 372 536 372 510 c 256,32,33
 372 484 372 484 363.5 458.5 c 128,-1,34
 355 433 355 433 340.5 410 c 128,-1,35
 326 387 326 387 306 368 c 128,-1,36
 286 349 286 349 261 338 c 1,37,-1
 376 177 l 1,38,39
 390 195 390 195 405 220.5 c 128,-1,40
 420 246 420 246 423 268 c 1,0,-1
164 509 m 0,41,42
 164 460 164 460 226 382 c 1,43,44
 263 399 263 399 283.5 434.5 c 128,-1,45
 304 470 304 470 304 504 c 256,46,47
 304 538 304 538 283 561 c 128,-1,48
 262 584 262 584 234 584 c 256,49,50
 206 584 206 584 185 563.5 c 128,-1,51
 164 543 164 543 164 509 c 0,41,42
202 303 m 1,52,53
 161 278 161 278 138 237 c 128,-1,54
 115 196 115 196 115 156 c 0,55,56
 115 134 115 134 122 116 c 128,-1,57
 129 98 129 98 141.5 84.5 c 128,-1,58
 154 71 154 71 169.5 63 c 128,-1,59
 185 55 185 55 204 55 c 0,60,61
 220 55 220 55 237.5 60.5 c 128,-1,62
 255 66 255 66 270 73.5 c 128,-1,63
 285 81 285 81 297 90.5 c 128,-1,64
 309 100 309 100 316 109 c 2,65,-1
 332 126 l 1,66,-1
 202 303 l 1,52,53
EndSplineSet
Validated: 1
EndChar

StartChar: quotesingle
Encoding: 39 39 9
Width: 512
GlyphClass: 2
Flags: W
LayerCount: 2
Fore
SplineSet
244 561 m 2,0,-1
 237 626 l 2,1,2
 237 654 237 654 250 668 c 128,-1,3
 263 682 263 682 281 682 c 0,4,5
 298 682 298 682 312.5 666.5 c 128,-1,6
 327 651 327 651 327 617 c 0,7,8
 326 600 326 600 318 568.5 c 128,-1,9
 310 537 310 537 293 489 c 2,10,-1
 267 422 l 1,11,-1
 211 435 l 1,12,-1
 233 505 l 2,13,14
 239 520 239 520 241.5 534 c 128,-1,15
 244 548 244 548 244 561 c 2,0,-1
EndSplineSet
Validated: 1
EndChar

StartChar: asterisk
Encoding: 42 42 10
Width: 512
GlyphClass: 2
Flags: W
LayerCount: 2
Fore
SplineSet
218 531 m 1,0,-1
 301 531 l 1,1,2
 300 525 300 525 298 517.5 c 128,-1,3
 296 510 296 510 295 504 c 2,4,-1
 280 350 l 1,5,-1
 442 424 l 1,6,-1
 469 361 l 1,7,-1
 294 308 l 1,8,-1
 423 154 l 1,9,-1
 367 110 l 1,10,-1
 256 280 l 1,11,-1
 141 109 l 1,12,-1
 86 154 l 1,13,-1
 219 307 l 1,14,-1
 42 361 l 1,15,-1
 69 428 l 1,16,-1
 234 350 l 1,17,-1
 218 531 l 1,0,-1
EndSplineSet
Validated: 1
EndChar

StartChar: plus
Encoding: 43 43 11
Width: 512
GlyphClass: 2
Flags: W
LayerCount: 2
Fore
SplineSet
227 536 m 1,0,-1
 292 536 l 1,1,-1
 292 360 l 1,2,-1
 467 360 l 1,3,-1
 467 298 l 1,4,-1
 292 298 l 1,5,-1
 292 106 l 1,6,-1
 227 106 l 1,7,-1
 227 298 l 1,8,-1
 46 298 l 1,9,-1
 46 360 l 1,10,-1
 227 360 l 1,11,-1
 227 536 l 1,0,-1
EndSplineSet
Validated: 1
EndChar

StartChar: comma
Encoding: 44 44 12
Width: 512
GlyphClass: 2
Flags: W
LayerCount: 2
Fore
SplineSet
313 20 m 0,0,1
 313 -60 313 -60 204 -172 c 1,2,-1
 169 -141 l 1,3,4
 198 -115 198 -115 217 -84 c 128,-1,5
 236 -53 236 -53 236 -34 c 0,6,7
 236 -24 236 -24 227.5 -15 c 128,-1,8
 219 -6 219 -6 209.5 2 c 128,-1,9
 200 10 200 10 191.5 21 c 128,-1,10
 183 32 183 32 183 45 c 0,11,12
 183 71 183 71 200 88 c 128,-1,13
 217 105 217 105 244 105 c 0,14,15
 270 105 270 105 291.5 81.5 c 128,-1,16
 313 58 313 58 313 20 c 0,0,1
EndSplineSet
Validated: 1
EndChar

StartChar: hyphen
Encoding: 45 45 13
Width: 512
GlyphClass: 2
Flags: W
LayerCount: 2
Fore
SplineSet
73 356 m 1,0,-1
 441 356 l 1,1,-1
 441 288 l 1,2,-1
 73 288 l 1,3,-1
 73 356 l 1,0,-1
EndSplineSet
Validated: 1
EndChar

StartChar: period
Encoding: 46 46 14
Width: 512
GlyphClass: 2
Flags: W
LayerCount: 2
Fore
SplineSet
287 89 m 0,0,1
 305 71 305 71 305 47 c 0,2,3
 305 24 305 24 287 6.5 c 128,-1,4
 269 -11 269 -11 244 -11 c 0,5,6
 218 -11 218 -11 200.5 6 c 128,-1,7
 183 23 183 23 183 47 c 0,8,9
 183 72 183 72 201.5 89 c 128,-1,10
 220 106 220 106 244 106 c 0,11,12
 267 106 267 106 287 89 c 0,0,1
EndSplineSet
Validated: 1
EndChar

StartChar: slash
Encoding: 47 47 15
Width: 512
GlyphClass: 2
Flags: W
LayerCount: 2
Fore
SplineSet
66 -13 m 1,0,-1
 386 681 l 1,1,-1
 447 649 l 1,2,-1
 126 -43 l 1,3,-1
 66 -13 l 1,0,-1
EndSplineSet
Validated: 1
EndChar

StartChar: zero
Encoding: 48 48 16
Width: 512
GlyphClass: 2
Flags: W
LayerCount: 2
Fore
SplineSet
395 557 m 0,0,1
 425 517 425 517 443 452.5 c 128,-1,2
 461 388 461 388 461 308 c 0,3,4
 461 227 461 227 443 167.5 c 128,-1,5
 425 108 425 108 396 68 c 128,-1,6
 367 28 367 28 330 8.5 c 128,-1,7
 293 -11 293 -11 255 -11 c 0,8,9
 216 -11 216 -11 179 12.5 c 128,-1,10
 142 36 142 36 113.5 78.5 c 128,-1,11
 85 121 85 121 68 181 c 128,-1,12
 51 241 51 241 51 313 c 0,13,14
 51 386 51 386 68 446.5 c 128,-1,15
 85 507 85 507 113.5 550.5 c 128,-1,16
 142 594 142 594 179 618 c 128,-1,17
 216 642 216 642 255 642 c 0,18,19
 335 642 335 642 395 557 c 0,0,1
357 497 m 1,20,21
 337 538 337 538 310.5 559 c 128,-1,22
 284 580 284 580 256 580 c 0,23,24
 230 580 230 580 205 561.5 c 128,-1,25
 180 543 180 543 160.5 510 c 128,-1,26
 141 477 141 477 129.5 430 c 128,-1,27
 118 383 118 383 118 327 c 0,28,29
 118 263 118 263 132 206 c 1,30,-1
 357 497 l 1,20,21
381 428 m 1,31,-1
 156 141 l 1,32,33
 180 95 180 95 207 74.5 c 128,-1,34
 234 54 234 54 261 54 c 0,35,36
 289 54 289 54 313 71 c 128,-1,37
 337 88 337 88 355 120 c 128,-1,38
 373 152 373 152 383.5 197.5 c 128,-1,39
 394 243 394 243 394 300 c 0,40,41
 394 336 394 336 391 367.5 c 128,-1,42
 388 399 388 399 381 428 c 1,31,-1
EndSplineSet
Validated: 1
EndChar

StartChar: one
Encoding: 49 49 17
Width: 512
GlyphClass: 2
Flags: W
LayerCount: 2
Fore
SplineSet
306 639 m 1,0,-1
 306 0 l 1,1,-1
 236 0 l 1,2,-1
 236 550 l 1,3,-1
 106 512 l 1,4,-1
 90 552 l 1,5,-1
 257 639 l 1,6,-1
 306 639 l 1,0,-1
EndSplineSet
Validated: 1
EndChar

StartChar: two
Encoding: 50 50 18
Width: 512
GlyphClass: 2
Flags: W
LayerCount: 2
Fore
SplineSet
80 539 m 1,0,1
 108 588 108 588 155.5 615 c 128,-1,2
 203 642 203 642 258 642 c 0,3,4
 296 642 296 642 330 628 c 128,-1,5
 364 614 364 614 389.5 589.5 c 128,-1,6
 415 565 415 565 429 532.5 c 128,-1,7
 443 500 443 500 443 463 c 0,8,9
 443 433 443 433 434.5 406.5 c 128,-1,10
 426 380 426 380 411.5 356 c 128,-1,11
 397 332 397 332 378 310 c 128,-1,12
 359 288 359 288 339 269 c 2,13,-1
 278 212 l 2,14,15
 264 200 264 200 247.5 183 c 128,-1,16
 231 166 231 166 215.5 146.5 c 128,-1,17
 200 127 200 127 184.5 105.5 c 128,-1,18
 169 84 169 84 158 62 c 1,19,-1
 425 62 l 2,20,21
 430 62 430 62 435.5 67 c 128,-1,22
 441 72 441 72 446 72 c 2,23,-1
 450 72 l 1,24,-1
 450 0 l 1,25,-1
 75 0 l 1,26,-1
 75 45 l 1,27,28
 113 120 113 120 157 174 c 128,-1,29
 201 228 201 228 242 265 c 2,30,-1
 291 310 l 2,31,32
 316 334 316 334 332 354 c 128,-1,33
 348 374 348 374 357.5 392.5 c 128,-1,34
 367 411 367 411 370 427.5 c 128,-1,35
 373 444 373 444 373 462 c 0,36,37
 373 484 373 484 363.5 505 c 128,-1,38
 354 526 354 526 337.5 543 c 128,-1,39
 321 560 321 560 300 570 c 128,-1,40
 279 580 279 580 256 580 c 0,41,42
 229 580 229 580 208 572 c 128,-1,43
 187 564 187 564 171.5 553.5 c 128,-1,44
 156 543 156 543 146.5 531 c 128,-1,45
 137 519 137 519 136 510 c 0,46,47
 134 501 134 501 132 498 c 2,48,-1
 80 539 l 1,0,1
EndSplineSet
Validated: 1
EndChar

StartChar: three
Encoding: 51 51 19
Width: 512
GlyphClass: 2
Flags: W
LayerCount: 2
Fore
SplineSet
421 478 m 0,0,1
 421 432 421 432 395 394 c 128,-1,2
 369 356 369 356 326 340 c 1,3,4
 375 323 375 323 405 277.5 c 128,-1,5
 435 232 435 232 435 175 c 0,6,7
 435 137 435 137 421.5 103.5 c 128,-1,8
 408 70 408 70 381.5 44 c 128,-1,9
 355 18 355 18 317.5 3.5 c 128,-1,10
 280 -11 280 -11 231 -11 c 0,11,12
 137 -11 137 -11 71 61 c 1,13,-1
 125 126 l 1,14,15
 129 122 129 122 131 112 c 128,-1,16
 133 102 133 102 138 96 c 2,17,-1
 153 83 l 2,18,19
 161 75 161 75 186 64.5 c 128,-1,20
 211 54 211 54 238 54 c 256,21,22
 265 54 265 54 288.5 64.5 c 128,-1,23
 312 75 312 75 329.5 93 c 128,-1,24
 347 111 347 111 357 135 c 128,-1,25
 367 159 367 159 367 185 c 0,26,27
 367 241 367 241 325.5 273 c 128,-1,28
 284 305 284 305 216 305 c 0,29,30
 208 305 208 305 200.5 304.5 c 128,-1,31
 193 304 193 304 184 303 c 1,32,-1
 184 360 l 1,33,34
 231 360 231 360 263 370 c 128,-1,35
 295 380 295 380 315 396.5 c 128,-1,36
 335 413 335 413 343.5 435 c 128,-1,37
 352 457 352 457 352 482 c 0,38,39
 352 501 352 501 344 518 c 128,-1,40
 336 535 336 535 321.5 547.5 c 128,-1,41
 307 560 307 560 286.5 568.5 c 128,-1,42
 266 577 266 577 242 577 c 0,43,44
 176 577 176 577 132 527 c 1,45,-1
 92 571 l 1,46,47
 155 640 155 640 245 640 c 0,48,49
 282 640 282 640 314 627 c 128,-1,50
 346 614 346 614 369.5 591.5 c 128,-1,51
 393 569 393 569 407 540 c 128,-1,52
 421 511 421 511 421 478 c 0,0,1
EndSplineSet
Validated: 1
EndChar

StartChar: four
Encoding: 52 52 20
Width: 512
GlyphClass: 2
Flags: W
LayerCount: 2
Fore
SplineSet
321 639 m 1,0,-1
 381 639 l 1,1,-1
 381 240 l 1,2,-1
 463 240 l 1,3,-1
 463 176 l 1,4,-1
 381 176 l 1,5,-1
 381 0 l 1,6,-1
 306 0 l 1,7,-1
 306 177 l 1,8,-1
 49 177 l 1,9,-1
 49 229 l 1,10,-1
 321 639 l 1,0,-1
307 525 m 1,11,-1
 120 240 l 1,12,-1
 307 240 l 1,13,-1
 307 525 l 1,11,-1
EndSplineSet
Validated: 1
EndChar

StartChar: five
Encoding: 53 53 21
Width: 512
GlyphClass: 2
Flags: W
LayerCount: 2
Fore
SplineSet
109 638 m 1,0,-1
 432 638 l 1,1,-1
 432 573 l 1,2,-1
 169 573 l 1,3,-1
 159 390 l 1,4,5
 209 415 209 415 263 415 c 0,6,7
 304 415 304 415 339.5 400 c 128,-1,8
 375 385 375 385 401 357 c 128,-1,9
 427 329 427 329 441.5 289.5 c 128,-1,10
 456 250 456 250 456 201 c 256,11,12
 456 152 456 152 440.5 112.5 c 128,-1,13
 425 73 425 73 398 45 c 128,-1,14
 371 17 371 17 334.5 3 c 128,-1,15
 298 -11 298 -11 255 -11 c 0,16,17
 197 -11 197 -11 147 14.5 c 128,-1,18
 97 40 97 40 66 87 c 1,19,-1
 129 134 l 1,20,21
 134 131 134 131 134.5 122 c 128,-1,22
 135 113 135 113 136 111 c 0,23,24
 140 103 140 103 150.5 93 c 128,-1,25
 161 83 161 83 177 74 c 128,-1,26
 193 65 193 65 213.5 58 c 128,-1,27
 234 51 234 51 259 51 c 256,28,29
 284 51 284 51 306.5 62 c 128,-1,30
 329 73 329 73 345.5 92.5 c 128,-1,31
 362 112 362 112 372.5 140 c 128,-1,32
 383 168 383 168 383 204 c 256,33,34
 383 240 383 240 372.5 268 c 128,-1,35
 362 296 362 296 344.5 315.5 c 128,-1,36
 327 335 327 335 303.5 345 c 128,-1,37
 280 355 280 355 252 355 c 0,38,39
 219 355 219 355 187.5 339.5 c 128,-1,40
 156 324 156 324 132 295 c 1,41,-1
 87 313 l 1,42,-1
 109 638 l 1,0,-1
EndSplineSet
Validated: 1
EndChar

StartChar: six
Encoding: 54 54 22
Width: 512
GlyphClass: 2
Flags: W
LayerCount: 2
Fore
SplineSet
294 645 m 0,0,1
 374 645 374 645 434 587 c 1,2,-1
 384 532 l 1,3,4
 375 541 375 541 372 550.5 c 128,-1,5
 369 560 369 560 357 564 c 0,6,7
 342 574 342 574 326 578 c 128,-1,8
 310 582 310 582 296 582 c 0,9,10
 275 582 275 582 248 572 c 128,-1,11
 221 562 221 562 197.5 535.5 c 128,-1,12
 174 509 174 509 157 460.5 c 128,-1,13
 140 412 140 412 139 335 c 1,14,15
 161 371 161 371 197 391.5 c 128,-1,16
 233 412 233 412 274 412 c 0,17,18
 310 412 310 412 342 397 c 128,-1,19
 374 382 374 382 398 354.5 c 128,-1,20
 422 327 422 327 436 288.5 c 128,-1,21
 450 250 450 250 450 203 c 256,22,23
 450 156 450 156 435.5 116.5 c 128,-1,24
 421 77 421 77 396.5 48.5 c 128,-1,25
 372 20 372 20 338.5 5 c 128,-1,26
 305 -10 305 -10 267 -10 c 0,27,28
 219 -10 219 -10 182 11 c 128,-1,29
 145 32 145 32 120 71 c 128,-1,30
 95 110 95 110 82 165.5 c 128,-1,31
 69 221 69 221 69 291 c 0,32,33
 69 377 69 377 84.5 443 c 128,-1,34
 100 509 100 509 130 554 c 128,-1,35
 160 599 160 599 201.5 622 c 128,-1,36
 243 645 243 645 294 645 c 0,0,1
143 263 m 0,37,38
 142 257 142 257 142 251 c 128,-1,39
 142 245 142 245 142 239 c 0,40,41
 142 199 142 199 152 165 c 128,-1,42
 162 131 162 131 179.5 106.5 c 128,-1,43
 197 82 197 82 220.5 67.5 c 128,-1,44
 244 53 244 53 270 53 c 0,45,46
 314 53 314 53 347 91 c 128,-1,47
 380 129 380 129 380 202 c 0,48,49
 380 241 380 241 369.5 268.5 c 128,-1,50
 359 296 359 296 343.5 314 c 128,-1,51
 328 332 328 332 308 340.5 c 128,-1,52
 288 349 288 349 268 349 c 0,53,54
 231 349 231 349 197.5 324 c 128,-1,55
 164 299 164 299 143 263 c 0,37,38
EndSplineSet
Validated: 1
EndChar

StartChar: seven
Encoding: 55 55 23
Width: 512
GlyphClass: 2
Flags: W
LayerCount: 2
Fore
SplineSet
442 598 m 1,0,1
 378 451 378 451 322 302.5 c 128,-1,2
 266 154 266 154 219 0 c 1,3,-1
 138 0 l 1,4,5
 187 146 187 146 240.5 287.5 c 128,-1,6
 294 429 294 429 353 570 c 1,7,-1
 81 570 l 1,8,-1
 81 638 l 1,9,-1
 442 638 l 1,10,-1
 442 598 l 1,0,1
EndSplineSet
Validated: 1
EndChar

StartChar: eight
Encoding: 56 56 24
Width: 512
GlyphClass: 2
Flags: W
LayerCount: 2
Fore
SplineSet
430 495 m 0,0,1
 430 449 430 449 402.5 407.5 c 128,-1,2
 375 366 375 366 329 341 c 1,3,4
 384 315 384 315 418 267.5 c 128,-1,5
 452 220 452 220 452 165 c 0,6,7
 452 128 452 128 436.5 95.5 c 128,-1,8
 421 63 421 63 395 39.5 c 128,-1,9
 369 16 369 16 333 3 c 128,-1,10
 297 -10 297 -10 256 -10 c 256,11,12
 215 -10 215 -10 179 3 c 128,-1,13
 143 16 143 16 117 39 c 128,-1,14
 91 62 91 62 76 93.5 c 128,-1,15
 61 125 61 125 61 161 c 0,16,17
 61 216 61 216 96 264 c 128,-1,18
 131 312 131 312 189 339 c 1,19,20
 145 361 145 361 118.5 401.5 c 128,-1,21
 92 442 92 442 92 488 c 0,22,23
 92 521 92 521 105.5 550 c 128,-1,24
 119 579 119 579 142.5 600.5 c 128,-1,25
 166 622 166 622 196.5 634 c 128,-1,26
 227 646 227 646 263 646 c 256,27,28
 299 646 299 646 329.5 634.5 c 128,-1,29
 360 623 360 623 382 602 c 128,-1,30
 404 581 404 581 417 553 c 128,-1,31
 430 525 430 525 430 495 c 0,0,1
243 310 m 1,32,33
 197 291 197 291 166 252.5 c 128,-1,34
 135 214 135 214 135 168 c 0,35,36
 135 144 135 144 145 123.5 c 128,-1,37
 155 103 155 103 171.5 88 c 128,-1,38
 188 73 188 73 210 63.5 c 128,-1,39
 232 54 232 54 258 54 c 256,40,41
 284 54 284 54 306 63 c 128,-1,42
 328 72 328 72 344 86.5 c 128,-1,43
 360 101 360 101 369.5 121 c 128,-1,44
 379 141 379 141 379 165 c 0,45,46
 379 212 379 212 342 251.5 c 128,-1,47
 305 291 305 291 243 310 c 1,32,33
178 439 m 0,48,49
 190 419 190 419 210 404 c 128,-1,50
 230 389 230 389 256 376 c 2,51,-1
 273 367 l 1,52,53
 311 387 311 387 335.5 422 c 128,-1,54
 360 457 360 457 360 493 c 0,55,56
 360 511 360 511 352.5 527.5 c 128,-1,57
 345 544 345 544 331 557 c 128,-1,58
 317 570 317 570 299 578 c 128,-1,59
 281 586 281 586 259 586 c 0,60,61
 238 586 238 586 220 578 c 128,-1,62
 202 570 202 570 188.5 558 c 128,-1,63
 175 546 175 546 168 529.5 c 128,-1,64
 161 513 161 513 161 496 c 0,65,66
 161 465 161 465 178 439 c 0,48,49
EndSplineSet
Validated: 1
EndChar

StartChar: nine
Encoding: 57 57 25
Width: 512
GlyphClass: 2
Flags: W
LayerCount: 2
Fore
SplineSet
222 -10 m 0,0,1
 140 -10 140 -10 81 48 c 1,2,-1
 131 102 l 1,3,4
 136 99 136 99 139.5 90 c 128,-1,5
 143 81 143 81 147 78 c 0,6,7
 177 54 177 54 220 54 c 0,8,9
 297 54 297 54 335 112 c 128,-1,10
 373 170 373 170 377 300 c 1,11,12
 354 268 354 268 319.5 249.5 c 128,-1,13
 285 231 285 231 245 231 c 0,14,15
 209 231 209 231 177 246 c 128,-1,16
 145 261 145 261 121 287.5 c 128,-1,17
 97 314 97 314 83.5 351.5 c 128,-1,18
 70 389 70 389 70 434 c 256,19,20
 70 479 70 479 84 517.5 c 128,-1,21
 98 556 98 556 123 584 c 128,-1,22
 148 612 148 612 181.5 628 c 128,-1,23
 215 644 215 644 253 644 c 0,24,25
 346 644 346 644 396.5 563.5 c 128,-1,26
 447 483 447 483 447 306 c 0,27,28
 447 225 447 225 429.5 165.5 c 128,-1,29
 412 106 412 106 381 68 c 128,-1,30
 350 30 350 30 309 10.5 c 128,-1,31
 268 -9 268 -9 222 -10 c 0,0,1
373 372 m 0,32,33
 374 380 374 380 374 387.5 c 128,-1,34
 374 395 374 395 374 403 c 0,35,36
 374 443 374 443 364 476 c 128,-1,37
 354 509 354 509 338 532 c 128,-1,38
 322 555 322 555 300.5 568 c 128,-1,39
 279 581 279 581 256 581 c 0,40,41
 204 581 204 581 171.5 542 c 128,-1,42
 139 503 139 503 139 435 c 0,43,44
 139 402 139 402 148.5 376 c 128,-1,45
 158 350 158 350 172.5 331.5 c 128,-1,46
 187 313 187 313 206 303.5 c 128,-1,47
 225 294 225 294 246 294 c 0,48,49
 287 294 287 294 319 315 c 128,-1,50
 351 336 351 336 373 372 c 0,32,33
EndSplineSet
Validated: 1
EndChar

StartChar: colon
Encoding: 58 58 26
Width: 512
GlyphClass: 2
Flags: W
LayerCount: 2
Fore
SplineSet
287 416 m 0,0,1
 305 397 305 397 305 374 c 0,2,3
 305 350 305 350 286.5 332.5 c 128,-1,4
 268 315 268 315 244 315 c 256,5,6
 220 315 220 315 201.5 332.5 c 128,-1,7
 183 350 183 350 183 374 c 256,8,9
 183 398 183 398 201.5 415.5 c 128,-1,10
 220 433 220 433 244 433 c 0,11,12
 267 433 267 433 287 416 c 0,0,1
287 89 m 0,13,14
 305 71 305 71 305 47 c 0,15,16
 305 24 305 24 287 6.5 c 128,-1,17
 269 -11 269 -11 244 -11 c 0,18,19
 218 -11 218 -11 200.5 6 c 128,-1,20
 183 23 183 23 183 47 c 0,21,22
 183 72 183 72 201.5 89 c 128,-1,23
 220 106 220 106 244 106 c 0,24,25
 267 106 267 106 287 89 c 0,13,14
EndSplineSet
Validated: 1
EndChar

StartChar: semicolon
Encoding: 59 59 27
Width: 512
GlyphClass: 2
Flags: W
LayerCount: 2
Fore
SplineSet
313 20 m 0,0,1
 313 -60 313 -60 204 -172 c 1,2,-1
 169 -141 l 1,3,4
 198 -115 198 -115 217 -84 c 128,-1,5
 236 -53 236 -53 236 -34 c 0,6,7
 236 -24 236 -24 227.5 -15 c 128,-1,8
 219 -6 219 -6 209.5 2 c 128,-1,9
 200 10 200 10 191.5 21 c 128,-1,10
 183 32 183 32 183 45 c 0,11,12
 183 71 183 71 200 88 c 128,-1,13
 217 105 217 105 244 105 c 0,14,15
 270 105 270 105 291.5 81.5 c 128,-1,16
 313 58 313 58 313 20 c 0,0,1
287 416 m 0,17,18
 305 397 305 397 305 374 c 0,19,20
 305 350 305 350 286.5 332.5 c 128,-1,21
 268 315 268 315 244 315 c 256,22,23
 220 315 220 315 201.5 332.5 c 128,-1,24
 183 350 183 350 183 374 c 256,25,26
 183 398 183 398 201.5 415.5 c 128,-1,27
 220 433 220 433 244 433 c 0,28,29
 267 433 267 433 287 416 c 0,17,18
EndSplineSet
Validated: 1
EndChar

StartChar: less
Encoding: 60 60 28
Width: 512
GlyphClass: 2
Flags: W
LayerCount: 2
Fore
SplineSet
469 508 m 1,0,-1
 114 327 l 1,1,-1
 472 126 l 1,2,-1
 472 48 l 1,3,-1
 36 303 l 1,4,-1
 36 352 l 1,5,-1
 469 581 l 1,6,-1
 469 508 l 1,0,-1
EndSplineSet
Validated: 1
EndChar

StartChar: equal
Encoding: 61 61 29
Width: 512
GlyphClass: 2
Flags: W
LayerCount: 2
Fore
SplineSet
46 449 m 1,0,-1
 467 449 l 1,1,-1
 467 386 l 1,2,-1
 46 386 l 1,3,-1
 46 449 l 1,0,-1
46 237 m 1,4,-1
 467 237 l 1,5,-1
 467 174 l 1,6,-1
 46 174 l 1,7,-1
 46 237 l 1,4,-1
EndSplineSet
Validated: 1
EndChar

StartChar: greater
Encoding: 62 62 30
Width: 512
GlyphClass: 2
Flags: W
LayerCount: 2
Fore
SplineSet
43 508 m 1,0,-1
 43 581 l 1,1,-1
 477 352 l 1,2,-1
 477 303 l 1,3,-1
 41 48 l 1,4,-1
 41 126 l 1,5,-1
 398 327 l 1,6,-1
 43 508 l 1,0,-1
EndSplineSet
Validated: 1
EndChar

StartChar: question
Encoding: 63 63 31
Width: 512
GlyphClass: 2
Flags: W
LayerCount: 2
Fore
SplineSet
310 87 m 0,0,1
 328 68 328 68 328 45 c 256,2,3
 328 22 328 22 310 4.5 c 128,-1,4
 292 -13 292 -13 267 -13 c 0,5,6
 243 -13 243 -13 225 4.5 c 128,-1,7
 207 22 207 22 207 45 c 0,8,9
 207 69 207 69 225 86.5 c 128,-1,10
 243 104 243 104 267 104 c 256,11,12
 291 104 291 104 310 87 c 0,0,1
66 574 m 1,13,14
 98 625 98 625 151.5 653 c 128,-1,15
 205 681 205 681 263 681 c 0,16,17
 304 681 304 681 337.5 666.5 c 128,-1,18
 371 652 371 652 394.5 627.5 c 128,-1,19
 418 603 418 603 431 570.5 c 128,-1,20
 444 538 444 538 444 501 c 0,21,22
 444 472 444 472 437 450 c 128,-1,23
 430 428 430 428 419.5 410.5 c 128,-1,24
 409 393 409 393 394.5 380 c 128,-1,25
 380 367 380 367 366 354 c 2,26,-1
 343 336 l 2,27,28
 313 312 313 312 306 288 c 128,-1,29
 299 264 299 264 299 231 c 2,30,-1
 299 189 l 1,31,-1
 231 189 l 1,32,-1
 231 231 l 2,33,34
 231 253 231 253 232.5 270.5 c 128,-1,35
 234 288 234 288 241 305 c 128,-1,36
 248 322 248 322 261.5 340.5 c 128,-1,37
 275 359 275 359 300 384 c 0,38,39
 336 420 336 420 350 448.5 c 128,-1,40
 364 477 364 477 364 506 c 0,41,42
 364 528 364 528 355.5 548 c 128,-1,43
 347 568 347 568 332.5 583 c 128,-1,44
 318 598 318 598 299.5 606 c 128,-1,45
 281 614 281 614 259 614 c 0,46,47
 216 614 216 614 178.5 590 c 128,-1,48
 141 566 141 566 118 525 c 1,49,-1
 66 574 l 1,13,14
EndSplineSet
Validated: 1
EndChar

StartChar: at
Encoding: 64 64 32
Width: 512
GlyphClass: 2
Flags: W
LayerCount: 2
Fore
SplineSet
445 31 m 1,0,1
 379 -11 379 -11 302 -11 c 0,2,3
 251 -11 251 -11 203 9 c 128,-1,4
 155 29 155 29 116.5 69.5 c 128,-1,5
 78 110 78 110 55 172 c 128,-1,6
 32 234 32 234 32 321 c 0,7,8
 32 406 32 406 54 467.5 c 128,-1,9
 76 529 76 529 111 569 c 128,-1,10
 146 609 146 609 189.5 628.5 c 128,-1,11
 233 648 233 648 278 648 c 0,12,13
 321 648 321 648 357 633 c 128,-1,14
 393 618 393 618 419.5 586.5 c 128,-1,15
 446 555 446 555 461 505.5 c 128,-1,16
 476 456 476 456 476 387 c 2,17,-1
 476 179 l 1,18,-1
 415 179 l 1,19,-1
 415 218 l 1,20,21
 375 171 375 171 315 171 c 0,22,23
 286 171 286 171 261.5 182 c 128,-1,24
 237 193 237 193 218.5 210.5 c 128,-1,25
 200 228 200 228 189.5 250.5 c 128,-1,26
 179 273 179 273 179 298 c 0,27,28
 179 373 179 373 231 414 c 128,-1,29
 283 455 283 455 396 455 c 2,30,-1
 412 455 l 1,31,32
 412 483 412 483 401 508.5 c 128,-1,33
 390 534 390 534 371 552.5 c 128,-1,34
 352 571 352 571 327 582 c 128,-1,35
 302 593 302 593 274 593 c 0,36,37
 242 593 242 593 209 577 c 128,-1,38
 176 561 176 561 150 528.5 c 128,-1,39
 124 496 124 496 107.5 444.5 c 128,-1,40
 91 393 91 393 91 322 c 0,41,42
 91 252 91 252 110 200 c 128,-1,43
 129 148 129 148 159.5 114.5 c 128,-1,44
 190 81 190 81 229 64 c 128,-1,45
 268 47 268 47 308 47 c 0,46,47
 367 47 367 47 418 81 c 1,48,-1
 445 31 l 1,0,1
415 403 m 1,49,-1
 397 403 l 2,50,51
 317 403 317 403 280 377.5 c 128,-1,52
 243 352 243 352 243 312 c 0,53,54
 243 273 243 273 266.5 250 c 128,-1,55
 290 227 290 227 318 227 c 0,56,57
 377 227 377 227 396 265.5 c 128,-1,58
 415 304 415 304 415 384 c 2,59,-1
 415 403 l 1,49,-1
EndSplineSet
Validated: 1
EndChar

StartChar: A
Encoding: 65 65 33
Width: 512
GlyphClass: 2
Flags: W
LayerCount: 2
Fore
SplineSet
15 0 m 1,0,-1
 241 649 l 1,1,-1
 249 649 l 1,2,-1
 495 0 l 1,3,-1
 421 0 l 1,4,-1
 350 186 l 1,5,-1
 147 186 l 1,6,-1
 86 0 l 1,7,-1
 15 0 l 1,0,-1
334 242 m 1,8,-1
 244 485 l 1,9,-1
 162 242 l 1,10,-1
 334 242 l 1,8,-1
EndSplineSet
Validated: 1
EndChar

StartChar: B
Encoding: 66 66 34
Width: 512
GlyphClass: 2
Flags: W
LayerCount: 2
Fore
SplineSet
49 638 m 1,0,-1
 230 638 l 2,1,2
 286 638 286 638 326.5 627 c 128,-1,3
 367 616 367 616 391.5 594.5 c 128,-1,4
 416 573 416 573 429 545 c 128,-1,5
 442 517 442 517 442 483 c 0,6,7
 442 438 442 438 417.5 398 c 128,-1,8
 393 358 393 358 348 342 c 1,9,10
 375 333 375 333 397 316 c 128,-1,11
 419 299 419 299 435.5 277.5 c 128,-1,12
 452 256 452 256 460 231 c 128,-1,13
 468 206 468 206 468 179 c 0,14,15
 468 98 468 98 410.5 49 c 128,-1,16
 353 0 353 0 229 0 c 2,17,-1
 49 0 l 1,18,-1
 49 638 l 1,0,-1
120 578 m 1,19,-1
 120 374 l 1,20,-1
 220 374 l 2,21,22
 263 374 263 374 290.5 381.5 c 128,-1,23
 318 389 318 389 335 402.5 c 128,-1,24
 352 416 352 416 360.5 435 c 128,-1,25
 369 454 369 454 371 475 c 0,26,27
 369 497 369 497 361 515.5 c 128,-1,28
 353 534 353 534 337 547.5 c 128,-1,29
 321 561 321 561 295 569.5 c 128,-1,30
 269 578 269 578 231 578 c 2,31,-1
 120 578 l 1,19,-1
120 313 m 1,32,-1
 120 62 l 1,33,-1
 242 62 l 2,34,35
 324 62 324 62 356 96.5 c 128,-1,36
 388 131 388 131 392 183 c 1,37,38
 390 212 390 212 381 235.5 c 128,-1,39
 372 259 372 259 353 277 c 128,-1,40
 334 295 334 295 301.5 304 c 128,-1,41
 269 313 269 313 224 313 c 2,42,-1
 120 313 l 1,32,-1
EndSplineSet
Validated: 1
EndChar

StartChar: C
Encoding: 67 67 35
Width: 512
GlyphClass: 2
Flags: W
LayerCount: 2
Fore
SplineSet
408 494 m 0,0,1
 408 506 408 506 404 512 c 0,2,3
 384 546 384 546 351 566 c 128,-1,4
 318 586 318 586 282 586 c 0,5,6
 247 586 247 586 216 568 c 128,-1,7
 185 550 185 550 161.5 515.5 c 128,-1,8
 138 481 138 481 125 432 c 128,-1,9
 112 383 112 383 112 321 c 0,10,11
 112 260 112 260 125 210.5 c 128,-1,12
 138 161 138 161 162 125.5 c 128,-1,13
 186 90 186 90 218.5 70.5 c 128,-1,14
 251 51 251 51 288 51 c 0,15,16
 326 51 326 51 361 72 c 128,-1,17
 396 93 396 93 418 129 c 1,18,-1
 471 94 l 1,19,20
 456 69 456 69 434.5 49.5 c 128,-1,21
 413 30 413 30 389 16.5 c 128,-1,22
 365 3 365 3 340.5 -3.5 c 128,-1,23
 316 -10 316 -10 292 -10 c 0,24,25
 237 -10 237 -10 194.5 9 c 128,-1,26
 152 28 152 28 116.5 68 c 128,-1,27
 81 108 81 108 61.5 169 c 128,-1,28
 42 230 42 230 42 315 c 0,29,30
 42 410 42 410 64.5 473 c 128,-1,31
 87 536 87 536 124 573.5 c 128,-1,32
 161 611 161 611 202.5 627 c 128,-1,33
 244 643 244 643 283 643 c 0,34,35
 314 643 314 643 344.5 634 c 128,-1,36
 375 625 375 625 401 608.5 c 128,-1,37
 427 592 427 592 447.5 569 c 128,-1,38
 468 546 468 546 480 517 c 1,39,-1
 412 483 l 1,40,41
 408 486 408 486 408 494 c 0,0,1
EndSplineSet
Validated: 1
EndChar

StartChar: D
Encoding: 68 68 36
Width: 512
GlyphClass: 2
Flags: W
LayerCount: 2
Fore
SplineSet
55 638 m 1,0,-1
 204 638 l 2,1,2
 286 638 286 638 331.5 615.5 c 128,-1,3
 377 593 377 593 408.5 551 c 128,-1,4
 440 509 440 509 455.5 449.5 c 128,-1,5
 471 390 471 390 471 315 c 0,6,7
 471 242 471 242 452.5 183.5 c 128,-1,8
 434 125 434 125 402 83.5 c 128,-1,9
 370 42 370 42 318.5 20.5 c 128,-1,10
 267 -1 267 -1 191 -1 c 2,11,-1
 55 -1 l 1,12,-1
 55 638 l 1,0,-1
123 578 m 1,13,-1
 123 55 l 1,14,-1
 188 55 l 2,15,16
 298 55 298 55 348.5 121 c 128,-1,17
 399 187 399 187 399 311 c 0,18,19
 398 436 398 436 352.5 507 c 128,-1,20
 307 578 307 578 200 578 c 2,21,-1
 123 578 l 1,13,-1
EndSplineSet
Validated: 1
EndChar

StartChar: E
Encoding: 69 69 37
Width: 512
GlyphClass: 2
Flags: W
LayerCount: 2
Fore
SplineSet
60 639 m 1,0,-1
 452 639 l 1,1,-1
 452 575 l 1,2,-1
 128 575 l 1,3,-1
 128 366 l 1,4,-1
 395 366 l 1,5,-1
 395 300 l 1,6,-1
 128 300 l 1,7,-1
 128 63 l 1,8,-1
 449 63 l 1,9,-1
 449 0 l 1,10,-1
 60 0 l 1,11,-1
 60 639 l 1,0,-1
EndSplineSet
Validated: 1
EndChar

StartChar: F
Encoding: 70 70 38
Width: 512
GlyphClass: 2
Flags: W
LayerCount: 2
Fore
SplineSet
80 639 m 1,0,-1
 447 639 l 1,1,-1
 447 577 l 1,2,-1
 152 577 l 1,3,-1
 152 376 l 1,4,-1
 390 376 l 1,5,-1
 390 313 l 1,6,-1
 152 313 l 1,7,-1
 152 0 l 1,8,-1
 80 0 l 1,9,-1
 80 639 l 1,0,-1
EndSplineSet
Validated: 1
EndChar

StartChar: G
Encoding: 71 71 39
Width: 512
GlyphClass: 2
Flags: W
LayerCount: 2
Fore
SplineSet
469 538 m 1,0,-1
 419 486 l 1,1,2
 413 490 413 490 406 506 c 0,3,4
 390 540 390 540 358 561 c 128,-1,5
 326 582 326 582 283 582 c 0,6,7
 253 582 253 582 221.5 569.5 c 128,-1,8
 190 557 190 557 164.5 527.5 c 128,-1,9
 139 498 139 498 123.5 449 c 128,-1,10
 108 400 108 400 108 327 c 0,11,12
 108 260 108 260 121 209 c 128,-1,13
 134 158 134 158 157.5 123.5 c 128,-1,14
 181 89 181 89 213.5 71 c 128,-1,15
 246 53 246 53 284 53 c 0,16,17
 350 53 350 53 404 92 c 1,18,-1
 404 244 l 1,19,-1
 289 244 l 1,20,-1
 289 306 l 1,21,-1
 471 306 l 1,22,-1
 471 56 l 1,23,24
 380 -10 380 -10 284 -10 c 0,25,26
 226 -10 226 -10 180.5 13 c 128,-1,27
 135 36 135 36 103 78 c 128,-1,28
 71 120 71 120 54 179.5 c 128,-1,29
 37 239 37 239 37 311 c 0,30,31
 37 412 37 412 62 479.5 c 128,-1,32
 87 547 87 547 127 582 c 128,-1,33
 167 617 167 617 208.5 630.5 c 128,-1,34
 250 644 250 644 284 644 c 0,35,36
 342 644 342 644 392 615 c 128,-1,37
 442 586 442 586 469 538 c 1,0,-1
EndSplineSet
Validated: 1
EndChar

StartChar: H
Encoding: 72 72 40
Width: 512
GlyphClass: 2
Flags: W
LayerCount: 2
Fore
SplineSet
55 638 m 1,0,-1
 135 638 l 2,1,2
 136 637 136 637 136 635 c 0,3,4
 136 632 136 632 133.5 627 c 128,-1,5
 131 622 131 622 130 613 c 2,6,-1
 130 365 l 1,7,-1
 380 365 l 1,8,-1
 380 638 l 1,9,-1
 458 638 l 2,10,11
 459 637 459 637 459 635 c 0,12,13
 459 631 459 631 456 626.5 c 128,-1,14
 453 622 453 622 452 615 c 2,15,-1
 452 -1 l 1,16,-1
 379 -1 l 1,17,-1
 379 304 l 1,18,-1
 130 304 l 1,19,-1
 130 0 l 1,20,-1
 55 0 l 1,21,-1
 55 638 l 1,0,-1
EndSplineSet
Validated: 1
EndChar

StartChar: I
Encoding: 73 73 41
Width: 512
GlyphClass: 2
Flags: W
LayerCount: 2
Fore
SplineSet
90 638 m 1,0,-1
 407 638 l 1,1,-1
 407 578 l 1,2,-1
 281 578 l 1,3,-1
 281 58 l 1,4,-1
 413 58 l 1,5,-1
 413 -1 l 1,6,-1
 83 -1 l 1,7,-1
 83 59 l 1,8,-1
 209 59 l 1,9,-1
 209 578 l 1,10,-1
 90 578 l 1,11,-1
 90 638 l 1,0,-1
EndSplineSet
Validated: 1
EndChar

StartChar: J
Encoding: 74 74 42
Width: 512
GlyphClass: 2
Flags: W
LayerCount: 2
Fore
SplineSet
176 638 m 1,0,-1
 468 638 l 1,1,-1
 468 578 l 1,2,-1
 370 578 l 1,3,-1
 370 214 l 2,4,5
 370 152 370 152 358 110 c 128,-1,6
 346 68 346 68 320.5 40 c 128,-1,7
 295 12 295 12 265.5 0.5 c 128,-1,8
 236 -11 236 -11 201 -11 c 0,9,10
 110 -11 110 -11 50 59 c 1,11,-1
 98 118 l 1,12,13
 101 115 101 115 101.5 108 c 128,-1,14
 102 101 102 101 105 97 c 2,15,-1
 118 85 l 2,16,17
 122 80 122 80 131 74.5 c 128,-1,18
 140 69 140 69 152 64 c 128,-1,19
 164 59 164 59 176 55.5 c 128,-1,20
 188 52 188 52 201 52 c 0,21,22
 252 52 252 52 275.5 88 c 128,-1,23
 299 124 299 124 299 213 c 2,24,-1
 299 578 l 1,25,-1
 176 578 l 1,26,-1
 176 638 l 1,0,-1
EndSplineSet
Validated: 1
EndChar

StartChar: K
Encoding: 75 75 43
Width: 512
GlyphClass: 2
Flags: W
LayerCount: 2
Fore
SplineSet
43 639 m 1,0,-1
 129 639 l 1,1,2
 129 633 129 633 124.5 626.5 c 128,-1,3
 120 620 120 620 120 612 c 2,4,-1
 120 344 l 1,5,-1
 386 643 l 1,6,7
 409 638 409 638 439 638 c 2,8,-1
 466 638 l 1,9,-1
 224 362 l 1,10,-1
 482 0 l 1,11,-1
 390 -4 l 1,12,-1
 170 319 l 1,13,-1
 120 264 l 1,14,-1
 120 0 l 1,15,-1
 43 0 l 1,16,-1
 43 639 l 1,0,-1
EndSplineSet
Validated: 1
EndChar

StartChar: L
Encoding: 76 76 44
Width: 512
GlyphClass: 2
Flags: W
LayerCount: 2
Fore
SplineSet
68 638 m 1,0,-1
 152 638 l 1,1,2
 152 631 152 631 147 621.5 c 128,-1,3
 142 612 142 612 142 603 c 2,4,-1
 142 62 l 1,5,-1
 450 62 l 1,6,-1
 450 0 l 1,7,-1
 68 0 l 1,8,-1
 68 638 l 1,0,-1
EndSplineSet
Validated: 1
EndChar

StartChar: M
Encoding: 77 77 45
Width: 512
GlyphClass: 2
Flags: W
LayerCount: 2
Fore
SplineSet
42 638 m 1,0,-1
 98 638 l 1,1,-1
 256 326 l 1,2,-1
 417 639 l 1,3,-1
 471 639 l 1,4,-1
 471 0 l 1,5,-1
 403 0 l 1,6,-1
 403 481 l 1,7,-1
 265 224 l 1,8,-1
 238 224 l 1,9,-1
 109 478 l 1,10,-1
 109 0 l 1,11,-1
 42 0 l 1,12,-1
 42 638 l 1,0,-1
EndSplineSet
Validated: 1
EndChar

StartChar: N
Encoding: 78 78 46
Width: 512
GlyphClass: 2
Flags: W
LayerCount: 2
Fore
SplineSet
51 0 m 1,0,-1
 51 638 l 1,1,-1
 121 638 l 1,2,-1
 389 165 l 1,3,-1
 389 639 l 1,4,-1
 465 639 l 1,5,6
 465 633 465 633 461.5 625.5 c 128,-1,7
 458 618 458 618 458 611 c 2,8,-1
 458 0 l 1,9,-1
 401 0 l 1,10,-1
 120 502 l 1,11,-1
 120 0 l 1,12,-1
 51 0 l 1,0,-1
EndSplineSet
Validated: 1
EndChar

StartChar: O
Encoding: 79 79 47
Width: 512
GlyphClass: 2
Flags: W
LayerCount: 2
Fore
SplineSet
260 -10 m 0,0,1
 208 -10 208 -10 165.5 14 c 128,-1,2
 123 38 123 38 92.5 81.5 c 128,-1,3
 62 125 62 125 46 186 c 128,-1,4
 30 247 30 247 30 321 c 0,5,6
 30 394 30 394 46.5 454.5 c 128,-1,7
 63 515 63 515 94 557 c 128,-1,8
 125 599 125 599 168 622 c 128,-1,9
 211 645 211 645 262 645 c 0,10,11
 307 645 307 645 346 625.5 c 128,-1,12
 385 606 385 606 417.5 566.5 c 128,-1,13
 450 527 450 527 466 465.5 c 128,-1,14
 482 404 482 404 482 319 c 0,15,16
 482 227 482 227 462.5 164 c 128,-1,17
 443 101 443 101 411.5 62.5 c 128,-1,18
 380 24 380 24 340.5 7 c 128,-1,19
 301 -10 301 -10 260 -10 c 0,0,1
154 118 m 0,20,21
 202 60 202 60 260 60 c 0,22,23
 288 60 288 60 314.5 72 c 128,-1,24
 341 84 341 84 363 113.5 c 128,-1,25
 385 143 385 143 398 193.5 c 128,-1,26
 411 244 411 244 411 322 c 0,27,28
 411 397 411 397 396.5 446 c 128,-1,29
 382 495 382 495 360 523.5 c 128,-1,30
 338 552 338 552 314 565 c 128,-1,31
 290 578 290 578 262 578 c 0,32,33
 230 579 230 579 203.5 566.5 c 128,-1,34
 177 554 177 554 153.5 526.5 c 128,-1,35
 130 499 130 499 115 450.5 c 128,-1,36
 100 402 100 402 100 327 c 0,37,38
 100 256 100 256 115 201.5 c 128,-1,39
 130 147 130 147 154 118 c 0,20,21
EndSplineSet
Validated: 33
EndChar

StartChar: P
Encoding: 80 80 48
Width: 512
GlyphClass: 2
Flags: W
LayerCount: 2
Fore
SplineSet
60 638 m 1,0,-1
 265 638 l 2,1,2
 318 638 318 638 355.5 624 c 128,-1,3
 393 610 393 610 417 585 c 128,-1,4
 441 560 441 560 453 527.5 c 128,-1,5
 465 495 465 495 467 458 c 0,6,7
 465 421 465 421 453 388.5 c 128,-1,8
 441 356 441 356 418 332.5 c 128,-1,9
 395 309 395 309 359 295.5 c 128,-1,10
 323 282 323 282 270 282 c 2,11,-1
 134 282 l 1,12,-1
 134 0 l 1,13,-1
 60 0 l 1,14,-1
 60 638 l 1,0,-1
134 570 m 1,15,-1
 134 345 l 1,16,-1
 262 345 l 2,17,18
 332 345 332 345 361 375.5 c 128,-1,19
 390 406 390 406 393 456 c 0,20,21
 391 479 391 479 383.5 500 c 128,-1,22
 376 521 376 521 360.5 536.5 c 128,-1,23
 345 552 345 552 321 561 c 128,-1,24
 297 570 297 570 263 570 c 2,25,-1
 134 570 l 1,15,-1
EndSplineSet
Validated: 1
EndChar

StartChar: Q
Encoding: 81 81 49
Width: 512
GlyphClass: 2
Flags: W
LayerCount: 2
Fore
SplineSet
153 526 m 0,0,1
 99 466 99 466 99 331 c 0,2,3
 99 269 99 269 110 219 c 128,-1,4
 121 169 121 169 142 133 c 128,-1,5
 163 97 163 97 194 76.5 c 128,-1,6
 225 56 225 56 262 56 c 0,7,8
 288 56 288 56 315 69 c 128,-1,9
 342 82 342 82 364.5 111 c 128,-1,10
 387 140 387 140 400.5 186.5 c 128,-1,11
 414 233 414 233 414 301 c 0,12,13
 414 387 414 387 399.5 441.5 c 128,-1,14
 385 496 385 496 360 526.5 c 128,-1,15
 335 557 335 557 308.5 569 c 128,-1,16
 282 581 282 581 257 581 c 0,17,18
 226 581 226 581 199.5 565.5 c 128,-1,19
 173 550 173 550 153 526 c 0,0,1
482 318 m 0,20,21
 482 177 482 177 434.5 95 c 128,-1,22
 387 13 387 13 294 -7 c 1,23,24
 296 -41 296 -41 311.5 -62.5 c 128,-1,25
 327 -84 327 -84 370 -84 c 0,26,27
 375 -84 375 -84 386 -83 c 128,-1,28
 397 -82 397 -82 410.5 -81.5 c 128,-1,29
 424 -81 424 -81 435.5 -80 c 128,-1,30
 447 -79 447 -79 453 -79 c 1,31,-1
 451 -148 l 1,32,-1
 411 -148 l 2,33,34
 360 -148 360 -148 326 -143 c 128,-1,35
 292 -138 292 -138 271 -119.5 c 128,-1,36
 250 -101 250 -101 240.5 -74 c 128,-1,37
 231 -47 231 -47 231 -7 c 1,38,39
 193 -2 193 -2 157 20 c 128,-1,40
 121 42 121 42 92 82 c 128,-1,41
 63 122 63 122 46.5 180 c 128,-1,42
 30 238 30 238 30 315 c 0,43,44
 30 412 30 412 52 475.5 c 128,-1,45
 74 539 74 539 107.5 575.5 c 128,-1,46
 141 612 141 612 181 628.5 c 128,-1,47
 221 645 221 645 257 645 c 0,48,49
 301 645 301 645 341.5 626.5 c 128,-1,50
 382 608 382 608 415.5 567.5 c 128,-1,51
 449 527 449 527 465.5 467 c 128,-1,52
 482 407 482 407 482 318 c 0,20,21
EndSplineSet
Validated: 1
EndChar

StartChar: R
Encoding: 82 82 50
Width: 512
GlyphClass: 2
Flags: W
LayerCount: 2
Fore
SplineSet
57 638 m 1,0,-1
 246 638 l 2,1,2
 358 638 358 638 408 588 c 128,-1,3
 458 538 458 538 458 456 c 0,4,5
 458 428 458 428 448.5 401 c 128,-1,6
 439 374 439 374 422.5 350.5 c 128,-1,7
 406 327 406 327 381.5 309.5 c 128,-1,8
 357 292 357 292 328 285 c 1,9,-1
 475 0 l 1,10,-1
 395 0 l 1,11,-1
 254 282 l 1,12,-1
 130 282 l 1,13,-1
 130 0 l 1,14,-1
 57 0 l 1,15,-1
 57 638 l 1,0,-1
130 570 m 1,16,-1
 130 345 l 1,17,-1
 254 345 l 2,18,19
 323 345 323 345 353.5 375.5 c 128,-1,20
 384 406 384 406 384 456 c 0,21,22
 384 480 384 480 376 500.5 c 128,-1,23
 368 521 368 521 353 536.5 c 128,-1,24
 338 552 338 552 313.5 561 c 128,-1,25
 289 570 289 570 254 570 c 2,26,-1
 130 570 l 1,16,-1
EndSplineSet
Validated: 1
EndChar

StartChar: S
Encoding: 83 83 51
Width: 512
GlyphClass: 2
Flags: W
LayerCount: 2
Fore
SplineSet
445 562 m 1,0,-1
 400 501 l 1,1,2
 395 503 395 503 394.5 509.5 c 128,-1,3
 394 516 394 516 392 519 c 0,4,5
 373 548 373 548 339.5 565.5 c 128,-1,6
 306 583 306 583 257 583 c 0,7,8
 210 583 210 583 178.5 555 c 128,-1,9
 147 527 147 527 147 489 c 0,10,11
 147 467 147 467 155 450.5 c 128,-1,12
 163 434 163 434 179 418.5 c 128,-1,13
 195 403 195 403 225.5 387.5 c 128,-1,14
 256 372 256 372 305 352 c 0,15,16
 352 333 352 333 383 314 c 128,-1,17
 414 295 414 295 432.5 273.5 c 128,-1,18
 451 252 451 252 458.5 228 c 128,-1,19
 466 204 466 204 466 174 c 0,20,21
 466 141 466 141 453.5 108 c 128,-1,22
 441 75 441 75 415 49 c 128,-1,23
 389 23 389 23 349 6.5 c 128,-1,24
 309 -10 309 -10 253 -10 c 0,25,26
 129 -10 129 -10 53 72 c 1,27,-1
 95 145 l 1,28,29
 100 142 100 142 100 135 c 128,-1,30
 100 128 100 128 103 124 c 0,31,32
 127 94 127 94 167 74 c 128,-1,33
 207 54 207 54 263 54 c 0,34,35
 292 54 292 54 316 64 c 128,-1,36
 340 74 340 74 357.5 89.5 c 128,-1,37
 375 105 375 105 385 127.5 c 128,-1,38
 395 150 395 150 395 174 c 0,39,40
 395 194 395 194 388.5 209.5 c 128,-1,41
 382 225 382 225 366.5 239 c 128,-1,42
 351 253 351 253 323 267 c 128,-1,43
 295 281 295 281 249 299 c 0,44,45
 199 318 199 318 165.5 338 c 128,-1,46
 132 358 132 358 111.5 378.5 c 128,-1,47
 91 399 91 399 82.5 422.5 c 128,-1,48
 74 446 74 446 74 474 c 0,49,50
 74 509 74 509 88.5 539.5 c 128,-1,51
 103 570 103 570 129.5 593 c 128,-1,52
 156 616 156 616 191.5 629 c 128,-1,53
 227 642 227 642 268 642 c 0,54,55
 321 642 321 642 367 621 c 128,-1,56
 413 600 413 600 445 562 c 1,0,-1
EndSplineSet
Validated: 1
EndChar

StartChar: T
Encoding: 84 84 52
Width: 512
GlyphClass: 2
Flags: W
LayerCount: 2
Fore
SplineSet
32 639 m 1,0,-1
 474 639 l 1,1,-1
 474 574 l 1,2,-1
 286 574 l 1,3,-1
 286 0 l 1,4,-1
 213 0 l 1,5,-1
 213 574 l 1,6,-1
 32 574 l 1,7,-1
 32 639 l 1,0,-1
EndSplineSet
Validated: 1
EndChar

StartChar: U
Encoding: 85 85 53
Width: 512
GlyphClass: 2
Flags: W
LayerCount: 2
Fore
SplineSet
51 638 m 1,0,-1
 132 638 l 2,1,2
 133 638 133 638 133 636 c 0,3,4
 133 632 133 632 128.5 624 c 128,-1,5
 124 616 124 616 122 605 c 2,6,-1
 122 219 l 2,7,8
 122 166 122 166 132 137 c 128,-1,9
 142 108 142 108 160.5 89 c 128,-1,10
 179 70 179 70 204 60.5 c 128,-1,11
 229 51 229 51 258 49 c 0,12,13
 287 51 287 51 312 59.5 c 128,-1,14
 337 68 337 68 356 88 c 128,-1,15
 375 108 375 108 385.5 137.5 c 128,-1,16
 396 167 396 167 396 222 c 2,17,-1
 396 638 l 1,18,-1
 465 638 l 1,19,-1
 465 223 l 2,20,21
 465 161 465 161 451 118 c 128,-1,22
 437 75 437 75 408.5 46 c 128,-1,23
 380 17 380 17 342 3 c 128,-1,24
 304 -11 304 -11 257 -11 c 0,25,26
 211 -11 211 -11 173 3 c 128,-1,27
 135 17 135 17 108 45 c 128,-1,28
 81 73 81 73 66 113 c 128,-1,29
 51 153 51 153 51 220 c 2,30,-1
 51 638 l 1,0,-1
EndSplineSet
Validated: 1
EndChar

StartChar: V
Encoding: 86 86 54
Width: 512
GlyphClass: 2
Flags: W
LayerCount: 2
Fore
SplineSet
26 639 m 1,0,-1
 100 639 l 1,1,-1
 264 148 l 1,2,-1
 419 638 l 1,3,-1
 489 638 l 1,4,-1
 275 -4 l 1,5,-1
 243 -4 l 1,6,-1
 26 639 l 1,0,-1
EndSplineSet
Validated: 1
EndChar

StartChar: W
Encoding: 87 87 55
Width: 512
GlyphClass: 2
Flags: W
LayerCount: 2
Fore
SplineSet
17 638 m 1,0,-1
 84 638 l 1,1,-1
 153 207 l 1,2,-1
 255 591 l 1,3,-1
 278 591 l 1,4,-1
 381 205 l 1,5,-1
 439 638 l 1,6,-1
 500 638 l 1,7,-1
 398 -4 l 1,8,-1
 371 -4 l 1,9,-1
 261 417 l 1,10,-1
 150 -4 l 1,11,-1
 120 -4 l 1,12,-1
 17 638 l 1,0,-1
EndSplineSet
Validated: 1
EndChar

StartChar: X
Encoding: 88 88 56
Width: 512
GlyphClass: 2
Flags: W
LayerCount: 2
Fore
SplineSet
388 639 m 1,0,-1
 460 639 l 1,1,-1
 298 327 l 1,2,-1
 479 0 l 1,3,-1
 398 0 l 1,4,-1
 257 253 l 1,5,-1
 120 0 l 1,6,-1
 42 0 l 1,7,-1
 216 326 l 1,8,-1
 45 639 l 1,9,-1
 122 639 l 1,10,-1
 256 396 l 1,11,-1
 388 639 l 1,0,-1
EndSplineSet
Validated: 1
EndChar

StartChar: Y
Encoding: 89 89 57
Width: 512
GlyphClass: 2
Flags: W
LayerCount: 2
Fore
SplineSet
29 638 m 1,0,-1
 111 638 l 1,1,-1
 267 329 l 1,2,-1
 409 638 l 1,3,-1
 484 638 l 1,4,-1
 303 252 l 1,5,-1
 303 0 l 1,6,-1
 225 0 l 1,7,-1
 225 252 l 1,8,-1
 29 638 l 1,0,-1
EndSplineSet
Validated: 1
EndChar

StartChar: Z
Encoding: 90 90 58
Width: 512
GlyphClass: 2
Flags: W
LayerCount: 2
Fore
SplineSet
63 638 m 1,0,-1
 458 638 l 1,1,-1
 458 588 l 1,2,-1
 141 63 l 1,3,-1
 442 63 l 2,4,5
 450 63 450 63 458.5 66.5 c 128,-1,6
 467 70 467 70 474 70 c 1,7,-1
 474 0 l 1,8,-1
 51 0 l 1,9,-1
 51 50 l 1,10,-1
 373 573 l 1,11,-1
 63 573 l 1,12,-1
 63 638 l 1,0,-1
EndSplineSet
Validated: 1
EndChar

StartChar: backslash
Encoding: 92 92 59
Width: 512
GlyphClass: 2
Flags: W
LayerCount: 2
Fore
SplineSet
447 -13 m 1,0,-1
 387 -43 l 1,1,-1
 66 649 l 1,2,-1
 126 681 l 1,3,-1
 447 -13 l 1,0,-1
EndSplineSet
Validated: 1
EndChar

StartChar: asciicircum
Encoding: 94 94 60
Width: 512
GlyphClass: 2
Flags: W
LayerCount: 2
Fore
SplineSet
95 376 m 1,0,-1
 252 638 l 1,1,-1
 274 638 l 1,2,-1
 413 377 l 1,3,-1
 358 351 l 1,4,-1
 259 530 l 1,5,-1
 146 351 l 1,6,-1
 95 376 l 1,0,-1
EndSplineSet
Validated: 1
EndChar

StartChar: underscore
Encoding: 95 95 61
Width: 512
GlyphClass: 2
Flags: W
LayerCount: 2
Fore
SplineSet
497 -199 m 1,0,-1
 15 -199 l 1,1,-1
 15 -144 l 1,2,-1
 497 -144 l 1,3,-1
 497 -199 l 1,0,-1
EndSplineSet
Validated: 1
EndChar

StartChar: grave
Encoding: 96 96 62
Width: 512
GlyphClass: 2
Flags: W
LayerCount: 2
Fore
SplineSet
168 593 m 2,0,-1
 142 662 l 1,1,-1
 196 687 l 1,2,-1
 222 620 l 2,3,4
 234 588 234 588 251 570 c 128,-1,5
 268 552 268 552 281.5 539 c 128,-1,6
 295 526 295 526 304.5 512.5 c 128,-1,7
 314 499 314 499 314 482 c 0,8,9
 313 462 313 462 300 453 c 128,-1,10
 287 444 287 444 275 444 c 0,11,12
 264 444 264 444 255 448 c 128,-1,13
 246 452 246 452 232 464.5 c 128,-1,14
 218 477 218 477 202.5 507.5 c 128,-1,15
 187 538 187 538 168 593 c 2,0,-1
EndSplineSet
Validated: 1
EndChar

StartChar: a
Encoding: 97 97 63
Width: 512
GlyphClass: 2
Flags: W
LayerCount: 2
Fore
SplineSet
93 413 m 1,0,1
 156 478 156 478 260 478 c 0,2,3
 346 478 346 478 395.5 434.5 c 128,-1,4
 445 391 445 391 445 290 c 2,5,-1
 445 0 l 1,6,-1
 376 0 l 1,7,-1
 376 51 l 1,8,9
 301 -11 301 -11 208 -11 c 0,10,11
 171 -11 171 -11 142 0 c 128,-1,12
 113 11 113 11 92.5 29.5 c 128,-1,13
 72 48 72 48 61 71.5 c 128,-1,14
 50 95 50 95 50 119 c 0,15,16
 50 189 50 189 111 230 c 128,-1,17
 172 271 172 271 287 275 c 1,18,-1
 375 275 l 1,19,-1
 375 293 l 2,20,21
 375 362 375 362 345.5 390 c 128,-1,22
 316 418 316 418 255 418 c 0,23,24
 179 418 179 418 129 366 c 1,25,-1
 93 413 l 1,0,1
378 219 m 1,26,-1
 360 219 l 2,27,28
 346 219 346 219 333.5 219.5 c 128,-1,29
 321 220 321 220 308 220 c 0,30,31
 252 220 252 220 216 212.5 c 128,-1,32
 180 205 180 205 159.5 191.5 c 128,-1,33
 139 178 139 178 131.5 161 c 128,-1,34
 124 144 124 144 124 125 c 0,35,36
 124 92 124 92 152.5 68.5 c 128,-1,37
 181 45 181 45 223 45 c 0,38,39
 254 45 254 45 278.5 55 c 128,-1,40
 303 65 303 65 321.5 78.5 c 128,-1,41
 340 92 340 92 351 107 c 128,-1,42
 362 122 362 122 368 133 c 0,43,44
 378 154 378 154 378 188 c 2,45,-1
 378 219 l 1,26,-1
EndSplineSet
Validated: 1
EndChar

StartChar: b
Encoding: 98 98 64
Width: 512
GlyphClass: 2
Flags: W
LayerCount: 2
Fore
SplineSet
61 681 m 1,0,-1
 147 681 l 1,1,-1
 147 679 l 2,2,3
 147 674 147 674 141.5 669.5 c 128,-1,4
 136 665 136 665 136 658 c 2,5,-1
 136 396 l 1,6,7
 159 434 159 434 197.5 456.5 c 128,-1,8
 236 479 236 479 275 479 c 256,9,10
 314 479 314 479 349 464.5 c 128,-1,11
 384 450 384 450 410.5 419.5 c 128,-1,12
 437 389 437 389 452.5 344 c 128,-1,13
 468 299 468 299 468 239 c 0,14,15
 468 175 468 175 451 128.5 c 128,-1,16
 434 82 434 82 406.5 50.5 c 128,-1,17
 379 19 379 19 344 4 c 128,-1,18
 309 -11 309 -11 272 -11 c 0,19,20
 229 -11 229 -11 193.5 8.5 c 128,-1,21
 158 28 158 28 134 61 c 1,22,-1
 109 0 l 1,23,-1
 61 0 l 1,24,-1
 61 681 l 1,0,-1
189 72 m 0,25,26
 209 61 209 61 224.5 57.5 c 128,-1,27
 240 54 240 54 253 54 c 0,28,29
 273 54 273 54 298 62 c 128,-1,30
 323 70 323 70 344 89.5 c 128,-1,31
 365 109 365 109 378.5 141.5 c 128,-1,32
 392 174 392 174 392 224 c 0,33,34
 392 317 392 317 354 366.5 c 128,-1,35
 316 416 316 416 245 416 c 0,36,37
 219 416 219 416 190.5 397.5 c 128,-1,38
 162 379 162 379 148 348 c 0,39,40
 136 317 136 317 136 248 c 0,41,42
 136 205 136 205 138 175 c 128,-1,43
 140 145 140 145 146.5 125 c 128,-1,44
 153 105 153 105 163 93 c 128,-1,45
 173 81 173 81 189 72 c 0,25,26
EndSplineSet
Validated: 1
EndChar

StartChar: c
Encoding: 99 99 65
Width: 512
GlyphClass: 2
Flags: W
LayerCount: 2
Fore
SplineSet
468 390 m 1,0,-1
 416 330 l 1,1,2
 411 333 411 333 411.5 336.5 c 128,-1,3
 412 340 412 340 410.5 346 c 128,-1,4
 409 352 409 352 402.5 361.5 c 128,-1,5
 396 371 396 371 378 386 c 0,6,7
 343 415 343 415 283 415 c 0,8,9
 253 415 253 415 226 402.5 c 128,-1,10
 199 390 199 390 178.5 367 c 128,-1,11
 158 344 158 344 145.5 312 c 128,-1,12
 133 280 133 280 133 240 c 256,13,14
 133 200 133 200 145.5 166 c 128,-1,15
 158 132 158 132 179.5 107.5 c 128,-1,16
 201 83 201 83 230.5 69 c 128,-1,17
 260 55 260 55 296 55 c 0,18,19
 367 55 367 55 418 113 c 1,20,-1
 461 62 l 1,21,22
 391 -11 391 -11 290 -11 c 0,23,24
 240 -11 240 -11 197.5 7.5 c 128,-1,25
 155 26 155 26 123.5 58.5 c 128,-1,26
 92 91 92 91 74.5 135.5 c 128,-1,27
 57 180 57 180 57 233 c 256,28,29
 57 286 57 286 74.5 331 c 128,-1,30
 92 376 92 376 123.5 408 c 128,-1,31
 155 440 155 440 198.5 458.5 c 128,-1,32
 242 477 242 477 293 477 c 0,33,34
 348 477 348 477 393.5 454 c 128,-1,35
 439 431 439 431 468 390 c 1,0,-1
EndSplineSet
Validated: 1
EndChar

StartChar: d
Encoding: 100 100 66
Width: 512
GlyphClass: 2
Flags: W
LayerCount: 2
Fore
SplineSet
380 399 m 1,0,-1
 380 681 l 1,1,-1
 459 681 l 1,2,3
 459 675 459 675 454 667 c 128,-1,4
 449 659 449 659 449 652 c 2,5,-1
 450 43 l 2,6,7
 450 18 450 18 455 0 c 1,8,-1
 381 0 l 1,9,10
 377 12 377 12 377 35 c 2,11,-1
 377 75 l 1,12,13
 354 36 354 36 315 13 c 128,-1,14
 276 -10 276 -10 237 -10 c 256,15,16
 198 -10 198 -10 163.5 5 c 128,-1,17
 129 20 129 20 103 51 c 128,-1,18
 77 82 77 82 61.5 128.5 c 128,-1,19
 46 175 46 175 46 239 c 256,20,21
 46 303 46 303 63.5 348.5 c 128,-1,22
 81 394 81 394 109 423.5 c 128,-1,23
 137 453 137 453 172 466.5 c 128,-1,24
 207 480 207 480 243 480 c 0,25,26
 292 480 292 480 327 458 c 128,-1,27
 362 436 362 436 380 399 c 1,0,-1
162 385 m 0,28,29
 118 345 118 345 118 250 c 0,30,31
 118 162 118 162 151.5 108 c 128,-1,32
 185 54 185 54 251 54 c 0,33,34
 266 54 266 54 283.5 60 c 128,-1,35
 301 66 301 66 316.5 77 c 128,-1,36
 332 88 332 88 344 103.5 c 128,-1,37
 356 119 356 119 362 138 c 0,38,39
 374 175 374 175 374 237 c 0,40,41
 374 275 374 275 371 301.5 c 128,-1,42
 368 328 368 328 361 346.5 c 128,-1,43
 354 365 354 365 344 376.5 c 128,-1,44
 334 388 334 388 318 397 c 0,45,46
 300 409 300 409 284 414.5 c 128,-1,47
 268 420 268 420 254 420 c 0,48,49
 224 420 224 420 203 411.5 c 128,-1,50
 182 403 182 403 162 385 c 0,28,29
EndSplineSet
Validated: 1
EndChar

StartChar: e
Encoding: 101 101 67
Width: 512
GlyphClass: 2
Flags: W
LayerCount: 2
Fore
SplineSet
265 479 m 0,0,1
 302 479 302 479 337 466 c 128,-1,2
 372 453 372 453 398 425.5 c 128,-1,3
 424 398 424 398 440 356 c 128,-1,4
 456 314 456 314 456 257 c 0,5,6
 456 249 456 249 455.5 240 c 128,-1,7
 455 231 455 231 454 223 c 1,8,-1
 121 223 l 1,9,10
 123 174 123 174 138 141 c 128,-1,11
 153 108 153 108 175.5 87.5 c 128,-1,12
 198 67 198 67 225.5 58 c 128,-1,13
 253 49 253 49 281 49 c 0,14,15
 353 49 353 49 401 101 c 1,16,-1
 442 61 l 1,17,18
 383 -10 383 -10 279 -10 c 0,19,20
 227 -10 227 -10 184.5 6 c 128,-1,21
 142 22 142 22 112.5 52.5 c 128,-1,22
 83 83 83 83 66.5 128.5 c 128,-1,23
 50 174 50 174 50 232 c 0,24,25
 50 292 50 292 67 338 c 128,-1,26
 84 384 84 384 113 415 c 128,-1,27
 142 446 142 446 181 462.5 c 128,-1,28
 220 479 220 479 265 479 c 0,0,1
124 281 m 1,29,-1
 381 281 l 1,30,31
 381 285 381 285 381.5 288.5 c 128,-1,32
 382 292 382 292 382 297 c 0,33,34
 382 323 382 323 372 346 c 128,-1,35
 362 369 362 369 346 385.5 c 128,-1,36
 330 402 330 402 308 412.5 c 128,-1,37
 286 423 286 423 260 423 c 0,38,39
 212 423 212 423 173 388.5 c 128,-1,40
 134 354 134 354 124 281 c 1,29,-1
EndSplineSet
Validated: 1
EndChar

StartChar: f
Encoding: 102 102 68
Width: 512
GlyphClass: 2
Flags: W
LayerCount: 2
Fore
SplineSet
351 687 m 0,0,1
 440 687 440 687 495 623 c 1,2,-1
 461 555 l 1,3,4
 453 555 453 555 453 563 c 128,-1,5
 453 571 453 571 451 575 c 0,6,7
 434 599 434 599 407 614 c 128,-1,8
 380 629 380 629 348 629 c 0,9,10
 322 629 322 629 302.5 621 c 128,-1,11
 283 613 283 613 267.5 596 c 128,-1,12
 252 579 252 579 244.5 549 c 128,-1,13
 237 519 237 519 237 476 c 2,14,-1
 237 440 l 1,15,-1
 390 440 l 1,16,-1
 390 382 l 1,17,-1
 237 382 l 1,18,-1
 237 0 l 1,19,-1
 166 0 l 1,20,-1
 166 382 l 1,21,-1
 65 382 l 1,22,-1
 65 440 l 1,23,-1
 166 440 l 1,24,-1
 166 486 l 2,25,26
 166 541 166 541 180 579 c 128,-1,27
 194 617 194 617 220 641 c 128,-1,28
 246 665 246 665 279 676 c 128,-1,29
 312 687 312 687 351 687 c 0,0,1
EndSplineSet
Validated: 1
EndChar

StartChar: g
Encoding: 103 103 69
Width: 512
GlyphClass: 2
Flags: W
LayerCount: 2
Fore
SplineSet
159 394 m 0,0,1
 143 379 143 379 136 360.5 c 128,-1,2
 129 342 129 342 129 322 c 0,3,4
 129 301 129 301 137 282 c 128,-1,5
 145 263 145 263 159 249.5 c 128,-1,6
 173 236 173 236 192 227.5 c 128,-1,7
 211 219 211 219 231 219 c 0,8,9
 253 219 253 219 271.5 227.5 c 128,-1,10
 290 236 290 236 304 250 c 128,-1,11
 318 264 318 264 326.5 282.5 c 128,-1,12
 335 301 335 301 335 322 c 0,13,14
 335 342 335 342 326.5 361 c 128,-1,15
 318 380 318 380 304 394.5 c 128,-1,16
 290 409 290 409 271 417 c 128,-1,17
 252 425 252 425 231 425 c 0,18,19
 189 425 189 425 159 394 c 0,0,1
347 438 m 1,20,21
 396 480 396 480 464 480 c 2,22,-1
 477 480 l 1,23,-1
 486 420 l 1,24,25
 479 421 479 421 472.5 421.5 c 128,-1,26
 466 422 466 422 459 422 c 0,27,28
 414 422 414 422 378 399 c 1,29,30
 401 364 401 364 401 321 c 0,31,32
 401 288 401 288 388 258.5 c 128,-1,33
 375 229 375 229 352 207 c 128,-1,34
 329 185 329 185 298 172.5 c 128,-1,35
 267 160 267 160 232 160 c 0,36,37
 204 160 204 160 173 171 c 1,38,39
 140 139 140 139 140 118 c 0,40,41
 140 100 140 100 160 90.5 c 128,-1,42
 180 81 180 81 215 81 c 0,43,44
 234 81 234 81 254 82.5 c 128,-1,45
 274 84 274 84 292 84 c 0,46,47
 338 84 338 84 371 75.5 c 128,-1,48
 404 67 404 67 424.5 51 c 128,-1,49
 445 35 445 35 455.5 13.5 c 128,-1,50
 466 -8 466 -8 466 -33 c 0,51,52
 466 -60 466 -60 452.5 -86.5 c 128,-1,53
 439 -113 439 -113 412.5 -133 c 128,-1,54
 386 -153 386 -153 345.5 -164.5 c 128,-1,55
 305 -176 305 -176 251 -176 c 0,56,57
 195 -176 195 -176 154.5 -167.5 c 128,-1,58
 114 -159 114 -159 89.5 -143.5 c 128,-1,59
 65 -128 65 -128 52 -108 c 128,-1,60
 39 -88 39 -88 39 -66 c 0,61,62
 39 -10 39 -10 116 38 c 1,63,64
 78 57 78 57 78 102 c 0,65,66
 78 146 78 146 131 190 c 1,67,68
 98 212 98 212 79.5 246 c 128,-1,69
 61 280 61 280 61 317 c 0,70,71
 61 352 61 352 75.5 382.5 c 128,-1,72
 90 413 90 413 114 435.5 c 128,-1,73
 138 458 138 458 169.5 470.5 c 128,-1,74
 201 483 201 483 233 483 c 0,75,76
 302 483 302 483 347 438 c 1,20,21
165 25 m 1,77,78
 106 -8 106 -8 106 -47 c 0,79,80
 106 -68 106 -68 118 -81.5 c 128,-1,81
 130 -95 130 -95 150 -104 c 128,-1,82
 170 -113 170 -113 197 -117 c 128,-1,83
 224 -121 224 -121 254 -121 c 0,84,85
 316 -121 316 -121 357 -98.5 c 128,-1,86
 398 -76 398 -76 398 -38 c 0,87,88
 396 -10 396 -10 375 5 c 128,-1,89
 354 20 354 20 309 20 c 0,90,91
 304 20 304 20 299 19.5 c 128,-1,92
 294 19 294 19 289 19 c 0,93,94
 250 19 250 19 219 21 c 128,-1,95
 188 23 188 23 165 25 c 1,77,78
EndSplineSet
Validated: 1
EndChar

StartChar: h
Encoding: 104 104 70
Width: 512
GlyphClass: 2
Flags: W
LayerCount: 2
Fore
SplineSet
72 0 m 1,0,-1
 72 681 l 1,1,-1
 157 681 l 2,2,3
 157 680 157 680 157.5 680 c 128,-1,4
 158 680 158 680 158 679 c 0,5,6
 158 676 158 676 153 670.5 c 128,-1,7
 148 665 148 665 146 656 c 2,8,-1
 146 385 l 1,9,10
 174 428 174 428 215.5 453.5 c 128,-1,11
 257 479 257 479 300 479 c 0,12,13
 332 479 332 479 358 468.5 c 128,-1,14
 384 458 384 458 403.5 434.5 c 128,-1,15
 423 411 423 411 433 374 c 128,-1,16
 443 337 443 337 443 284 c 2,17,-1
 443 0 l 1,18,-1
 371 0 l 1,19,-1
 371 282 l 2,20,21
 371 355 371 355 346 385 c 128,-1,22
 321 415 321 415 285 415 c 0,23,24
 261 415 261 415 237.5 404.5 c 128,-1,25
 214 394 214 394 192 375.5 c 128,-1,26
 170 357 170 357 158 330.5 c 128,-1,27
 146 304 146 304 146 269 c 2,28,-1
 146 0 l 1,29,-1
 72 0 l 1,0,-1
EndSplineSet
Validated: 1
EndChar

StartChar: i
Encoding: 105 105 71
Width: 512
GlyphClass: 2
Flags: W
LayerCount: 2
Fore
SplineSet
109 468 m 1,0,-1
 296 468 l 1,1,-1
 296 59 l 1,2,-1
 406 59 l 1,3,-1
 406 0 l 1,4,-1
 102 0 l 1,5,-1
 102 59 l 1,6,-1
 222 59 l 1,7,-1
 222 409 l 1,8,-1
 109 409 l 1,9,-1
 109 468 l 1,0,-1
223 656 m 0,10,11
 239 672 239 672 260 672 c 0,12,13
 282 672 282 672 297.5 656 c 128,-1,14
 313 640 313 640 313 618 c 0,15,16
 313 597 313 597 297.5 581.5 c 128,-1,17
 282 566 282 566 260 566 c 0,18,19
 239 566 239 566 223.5 581.5 c 128,-1,20
 208 597 208 597 208 618 c 0,21,22
 208 641 208 641 223 656 c 0,10,11
EndSplineSet
Validated: 1
EndChar

StartChar: j
Encoding: 106 106 72
Width: 512
GlyphClass: 2
Flags: W
LayerCount: 2
Fore
SplineSet
129 468 m 1,0,-1
 378 468 l 1,1,-1
 378 23 l 2,2,3
 378 -31 378 -31 363.5 -68 c 128,-1,4
 349 -105 349 -105 324 -129 c 128,-1,5
 299 -153 299 -153 265 -164.5 c 128,-1,6
 231 -176 231 -176 193 -178 c 0,7,8
 102 -178 102 -178 49 -113 c 1,9,-1
 97 -49 l 1,10,11
 102 -54 102 -54 102.5 -59.5 c 128,-1,12
 103 -65 103 -65 106.5 -71 c 128,-1,13
 110 -77 110 -77 119 -84.5 c 128,-1,14
 128 -92 128 -92 150 -103 c 0,15,16
 172 -115 172 -115 198 -115 c 0,17,18
 244 -115 244 -115 273.5 -83.5 c 128,-1,19
 303 -52 303 -52 303 18 c 2,20,-1
 303 408 l 1,21,-1
 129 408 l 1,22,-1
 129 468 l 1,0,-1
303 656 m 0,23,24
 318 672 318 672 341 672 c 0,25,26
 362 672 362 672 378 656.5 c 128,-1,27
 394 641 394 641 394 618 c 0,28,29
 394 597 394 597 378 581.5 c 128,-1,30
 362 566 362 566 341 566 c 0,31,32
 319 566 319 566 303.5 581.5 c 128,-1,33
 288 597 288 597 288 618 c 0,34,35
 288 641 288 641 303 656 c 0,23,24
EndSplineSet
Validated: 1
EndChar

StartChar: k
Encoding: 107 107 73
Width: 512
GlyphClass: 2
Flags: W
LayerCount: 2
Fore
SplineSet
68 681 m 1,0,-1
 152 681 l 1,1,2
 152 675 152 675 147 667.5 c 128,-1,3
 142 660 142 660 142 654 c 2,4,-1
 142 253 l 1,5,-1
 377 470 l 1,6,7
 400 465 400 465 431 465 c 2,8,-1
 458 465 l 1,9,-1
 261 280 l 1,10,-1
 490 0 l 1,11,-1
 395 -4 l 1,12,-1
 204 234 l 1,13,-1
 142 177 l 1,14,-1
 142 0 l 1,15,-1
 68 0 l 1,16,-1
 68 681 l 1,0,-1
EndSplineSet
Validated: 1
EndChar

StartChar: l
Encoding: 108 108 74
Width: 512
GlyphClass: 2
Flags: W
LayerCount: 2
Fore
SplineSet
87 681 m 1,0,-1
 294 681 l 1,1,-1
 294 59 l 1,2,-1
 431 59 l 1,3,-1
 431 0 l 1,4,-1
 81 0 l 1,5,-1
 81 59 l 1,6,-1
 219 59 l 1,7,-1
 219 622 l 1,8,-1
 87 622 l 1,9,-1
 87 681 l 1,0,-1
EndSplineSet
Validated: 1
EndChar

StartChar: m
Encoding: 109 109 75
Width: 512
GlyphClass: 2
Flags: W
LayerCount: 2
Fore
SplineSet
39 0 m 1,0,-1
 39 468 l 1,1,-1
 106 468 l 1,2,-1
 106 422 l 1,3,4
 123 447 123 447 148.5 463 c 128,-1,5
 174 479 174 479 203 479 c 256,6,7
 232 479 232 479 255.5 459.5 c 128,-1,8
 279 440 279 440 285 411 c 1,9,10
 298 441 298 441 326.5 460 c 128,-1,11
 355 479 355 479 389 479 c 0,12,13
 437 479 437 479 459.5 445 c 128,-1,14
 482 411 482 411 480 359 c 2,15,-1
 480 0 l 1,16,-1
 413 0 l 1,17,-1
 413 332 l 2,18,19
 413 364 413 364 410 382 c 128,-1,20
 407 400 407 400 399.5 410 c 128,-1,21
 392 420 392 420 385 422.5 c 128,-1,22
 378 425 378 425 367 425 c 0,23,24
 353 425 353 425 340 414 c 128,-1,25
 327 403 327 403 316.5 387 c 128,-1,26
 306 371 306 371 300 350 c 128,-1,27
 294 329 294 329 294 309 c 2,28,-1
 294 0 l 1,29,-1
 225 0 l 1,30,-1
 225 326 l 2,31,32
 225 384 225 384 214.5 403.5 c 128,-1,33
 204 423 204 423 177 423 c 0,34,35
 153 423 153 423 129.5 394 c 128,-1,36
 106 365 106 365 106 312 c 2,37,-1
 106 0 l 1,38,-1
 39 0 l 1,0,-1
EndSplineSet
Validated: 33
EndChar

StartChar: n
Encoding: 110 110 76
Width: 512
GlyphClass: 2
Flags: W
LayerCount: 2
Fore
SplineSet
70 0 m 1,0,-1
 70 468 l 1,1,-1
 145 468 l 1,2,-1
 145 385 l 1,3,4
 172 428 172 428 213.5 453.5 c 128,-1,5
 255 479 255 479 298 479 c 0,6,7
 329 479 329 479 355.5 468.5 c 128,-1,8
 382 458 382 458 401.5 434.5 c 128,-1,9
 421 411 421 411 431.5 374 c 128,-1,10
 442 337 442 337 442 284 c 2,11,-1
 442 0 l 1,12,-1
 370 0 l 1,13,-1
 370 282 l 2,14,15
 370 355 370 355 344.5 385 c 128,-1,16
 319 415 319 415 284 415 c 0,17,18
 260 415 260 415 235.5 404.5 c 128,-1,19
 211 394 211 394 191 375 c 128,-1,20
 171 356 171 356 158 329.5 c 128,-1,21
 145 303 145 303 145 269 c 2,22,-1
 145 0 l 1,23,-1
 70 0 l 1,0,-1
EndSplineSet
Validated: 1
EndChar

StartChar: o
Encoding: 111 111 77
Width: 512
GlyphClass: 2
Flags: W
LayerCount: 2
Fore
SplineSet
260 478 m 256,0,1
 303 478 303 478 341.5 461 c 128,-1,2
 380 444 380 444 408.5 412.5 c 128,-1,3
 437 381 437 381 454 335.5 c 128,-1,4
 471 290 471 290 471 233 c 256,5,6
 471 176 471 176 454.5 131 c 128,-1,7
 438 86 438 86 409.5 54 c 128,-1,8
 381 22 381 22 342 5 c 128,-1,9
 303 -12 303 -12 259 -12 c 0,10,11
 214 -12 214 -12 174.5 6.5 c 128,-1,12
 135 25 135 25 105.5 57 c 128,-1,13
 76 89 76 89 58.5 134 c 128,-1,14
 41 179 41 179 41 231 c 0,15,16
 41 284 41 284 59 330 c 128,-1,17
 77 376 77 376 107 408 c 128,-1,18
 137 440 137 440 177 459 c 128,-1,19
 217 478 217 478 260 478 c 256,0,1
397 231 m 0,20,21
 397 275 397 275 385.5 309.5 c 128,-1,22
 374 344 374 344 354.5 367.5 c 128,-1,23
 335 391 335 391 310 403.5 c 128,-1,24
 285 416 285 416 257 416 c 256,25,26
 229 416 229 416 204 403.5 c 128,-1,27
 179 391 179 391 160 367.5 c 128,-1,28
 141 344 141 344 130 311 c 128,-1,29
 119 278 119 278 119 236 c 0,30,31
 119 195 119 195 130 161 c 128,-1,32
 141 127 141 127 160 102.5 c 128,-1,33
 179 78 179 78 204.5 64.5 c 128,-1,34
 230 51 230 51 259 51 c 256,35,36
 288 51 288 51 313 63 c 128,-1,37
 338 75 338 75 357 98 c 128,-1,38
 376 121 376 121 386.5 154.5 c 128,-1,39
 397 188 397 188 397 231 c 0,20,21
EndSplineSet
Validated: 1
EndChar

StartChar: p
Encoding: 112 112 78
Width: 512
GlyphClass: 2
Flags: W
LayerCount: 2
Fore
SplineSet
61 468 m 1,0,-1
 136 468 l 1,1,-1
 136 396 l 1,2,3
 160 434 160 434 199.5 456 c 128,-1,4
 239 478 239 478 279 478 c 0,5,6
 317 478 317 478 352.5 463.5 c 128,-1,7
 388 449 388 449 415 419 c 128,-1,8
 442 389 442 389 458 344 c 128,-1,9
 474 299 474 299 474 238 c 0,10,11
 474 176 474 176 457 129 c 128,-1,12
 440 82 440 82 412.5 50.5 c 128,-1,13
 385 19 385 19 349.5 3.5 c 128,-1,14
 314 -12 314 -12 278 -12 c 0,15,16
 234 -12 234 -12 197.5 7.5 c 128,-1,17
 161 27 161 27 137 61 c 1,18,-1
 137 -171 l 1,19,-1
 61 -171 l 1,20,-1
 61 468 l 1,0,-1
136 195 m 2,21,22
 138 119 138 119 171 86 c 128,-1,23
 204 53 204 53 252 53 c 0,24,25
 278 53 278 53 303.5 61.5 c 128,-1,26
 329 70 329 70 350.5 90 c 128,-1,27
 372 110 372 110 384.5 142.5 c 128,-1,28
 397 175 397 175 397 224 c 0,29,30
 397 314 397 314 360 364 c 128,-1,31
 323 414 323 414 255 416 c 0,32,33
 234 416 234 416 212.5 408.5 c 128,-1,34
 191 401 191 401 174.5 384 c 128,-1,35
 158 367 158 367 147 337.5 c 128,-1,36
 136 308 136 308 136 265 c 2,37,-1
 136 195 l 2,21,22
EndSplineSet
Validated: 1
EndChar

StartChar: q
Encoding: 113 113 79
Width: 512
GlyphClass: 2
Flags: W
LayerCount: 2
Fore
SplineSet
383 399 m 2,0,-1
 383 468 l 1,1,-1
 453 468 l 1,2,-1
 453 -171 l 1,3,-1
 379 -171 l 1,4,-1
 379 75 l 1,5,6
 357 36 357 36 318.5 13 c 128,-1,7
 280 -10 280 -10 236 -10 c 0,8,9
 196 -10 196 -10 160.5 8 c 128,-1,10
 125 26 125 26 99 58.5 c 128,-1,11
 73 91 73 91 58 137 c 128,-1,12
 43 183 43 183 43 240 c 0,13,14
 43 296 43 296 59.5 340.5 c 128,-1,15
 76 385 76 385 104 416 c 128,-1,16
 132 447 132 447 169.5 463.5 c 128,-1,17
 207 480 207 480 249 480 c 0,18,19
 335 480 335 480 376 412 c 0,20,21
 383 401 383 401 383 399 c 2,0,-1
249 420 m 0,22,23
 222 420 222 420 198.5 409 c 128,-1,24
 175 398 175 398 157 376.5 c 128,-1,25
 139 355 139 355 128.5 322 c 128,-1,26
 118 289 118 289 118 245 c 0,27,28
 118 200 118 200 128.5 164.5 c 128,-1,29
 139 129 139 129 157.5 104.5 c 128,-1,30
 176 80 176 80 200 67 c 128,-1,31
 224 54 224 54 252 54 c 0,32,33
 310 54 310 54 343.5 98 c 128,-1,34
 377 142 377 142 377 241 c 0,35,36
 377 341 377 341 342 380.5 c 128,-1,37
 307 420 307 420 249 420 c 0,22,23
EndSplineSet
Validated: 1
EndChar

StartChar: r
Encoding: 114 114 80
Width: 512
GlyphClass: 2
Flags: W
LayerCount: 2
Fore
SplineSet
101 468 m 1,0,-1
 178 468 l 1,1,-1
 176 378 l 1,2,3
 198 427 198 427 244.5 453 c 128,-1,4
 291 479 291 479 344 479 c 0,5,6
 420 479 420 479 469 428 c 1,7,-1
 435 357 l 1,8,9
 424 373 424 373 415 383 c 128,-1,10
 406 393 406 393 395 400.5 c 128,-1,11
 384 408 384 408 371 412 c 128,-1,12
 358 416 358 416 340 416 c 0,13,14
 306 416 306 416 276.5 400 c 128,-1,15
 247 384 247 384 225 358 c 128,-1,16
 203 332 203 332 189.5 298 c 128,-1,17
 176 264 176 264 176 227 c 2,18,-1
 176 -1 l 1,19,-1
 101 -1 l 1,20,-1
 101 468 l 1,0,-1
EndSplineSet
Validated: 1
EndChar

StartChar: s
Encoding: 115 115 81
Width: 512
GlyphClass: 2
Flags: W
LayerCount: 2
Fore
SplineSet
442 406 m 1,0,-1
 399 341 l 1,1,2
 394 342 394 342 394 349 c 128,-1,3
 394 356 394 356 392 359 c 0,4,5
 374 383 374 383 340 403 c 128,-1,6
 306 423 306 423 263 423 c 0,7,8
 244 423 244 423 226 418.5 c 128,-1,9
 208 414 208 414 194 405.5 c 128,-1,10
 180 397 180 397 172 384.5 c 128,-1,11
 164 372 164 372 164 355 c 0,12,13
 164 343 164 343 170 333.5 c 128,-1,14
 176 324 176 324 189.5 314.5 c 128,-1,15
 203 305 203 305 227 296 c 128,-1,16
 251 287 251 287 290 275 c 0,17,18
 378 252 378 252 414.5 219.5 c 128,-1,19
 451 187 451 187 451 140 c 0,20,21
 451 110 451 110 437.5 82 c 128,-1,22
 424 54 424 54 398.5 33.5 c 128,-1,23
 373 13 373 13 337 1.5 c 128,-1,24
 301 -10 301 -10 256 -10 c 0,25,26
 138 -10 138 -10 58 63 c 1,27,-1
 100 137 l 1,28,29
 103 134 103 134 104 127.5 c 128,-1,30
 105 121 105 121 111.5 111.5 c 128,-1,31
 118 102 118 102 134.5 90.5 c 128,-1,32
 151 79 151 79 184 65 c 0,33,34
 200 57 200 57 219.5 54 c 128,-1,35
 239 51 239 51 258 51 c 0,36,37
 279 51 279 51 300 56 c 128,-1,38
 321 61 321 61 337.5 71 c 128,-1,39
 354 81 354 81 364.5 95 c 128,-1,40
 375 109 375 109 375 126 c 0,41,42
 375 153 375 153 350.5 171 c 128,-1,43
 326 189 326 189 260 209 c 0,44,45
 215 222 215 222 201 227 c 0,46,47
 164 242 164 242 147.5 252.5 c 128,-1,48
 131 263 131 263 117.5 278 c 128,-1,49
 104 293 104 293 96 312 c 128,-1,50
 88 331 88 331 88 353 c 0,51,52
 88 378 88 378 101.5 400.5 c 128,-1,53
 115 423 115 423 139 440.5 c 128,-1,54
 163 458 163 458 196 468.5 c 128,-1,55
 229 479 229 479 268 479 c 0,56,57
 376 479 376 479 442 406 c 1,0,-1
EndSplineSet
Validated: 1
EndChar

StartChar: t
Encoding: 116 116 82
Width: 512
GlyphClass: 2
Flags: W
LayerCount: 2
Fore
SplineSet
193 593 m 1,0,-1
 273 606 l 1,1,2
 273 597 273 597 270.5 590 c 128,-1,3
 268 583 268 583 267 579 c 2,4,-1
 255 468 l 1,5,-1
 409 468 l 1,6,-1
 409 408 l 1,7,-1
 255 408 l 1,8,9
 246 316 246 316 246 237 c 0,10,11
 246 187 246 187 248 153.5 c 128,-1,12
 250 120 250 120 258.5 100.5 c 128,-1,13
 267 81 267 81 283.5 70 c 128,-1,14
 300 59 300 59 328 59 c 0,15,16
 375 59 375 59 432 101 c 1,17,-1
 455 43 l 1,18,19
 384 -9 384 -9 309 -9 c 0,20,21
 236 -9 236 -9 202 35.5 c 128,-1,22
 168 80 168 80 171 180 c 0,23,24
 171 217 171 217 173 274.5 c 128,-1,25
 175 332 175 332 181 408 c 1,26,-1
 72 408 l 1,27,-1
 72 468 l 1,28,-1
 184 468 l 1,29,-1
 193 593 l 1,0,-1
EndSplineSet
Validated: 33
EndChar

StartChar: u
Encoding: 117 117 83
Width: 512
GlyphClass: 2
Flags: W
LayerCount: 2
Fore
SplineSet
65 468 m 1,0,-1
 138 468 l 1,1,-1
 138 207 l 2,2,3
 138 162 138 162 146.5 131.5 c 128,-1,4
 155 101 155 101 169.5 83 c 128,-1,5
 184 65 184 65 203 56.5 c 128,-1,6
 222 48 222 48 245 48 c 0,7,8
 269 50 269 50 291.5 60.5 c 128,-1,9
 314 71 314 71 332 90 c 128,-1,10
 350 109 350 109 360.5 138.5 c 128,-1,11
 371 168 371 168 371 210 c 2,12,-1
 371 468 l 1,13,-1
 445 468 l 1,14,-1
 445 42 l 2,15,16
 445 18 445 18 451 0 c 1,17,-1
 373 0 l 1,18,19
 372 7 372 7 371 16 c 128,-1,20
 370 25 370 25 371 36 c 2,21,-1
 372 72 l 1,22,23
 349 33 349 33 310.5 11 c 128,-1,24
 272 -11 272 -11 226 -11 c 0,25,26
 190 -11 190 -11 161.5 1.5 c 128,-1,27
 133 14 133 14 110 41 c 128,-1,28
 87 68 87 68 75 109 c 128,-1,29
 63 150 63 150 63 207 c 2,30,-1
 65 468 l 1,0,-1
EndSplineSet
Validated: 1
EndChar

StartChar: v
Encoding: 118 118 84
Width: 512
GlyphClass: 2
Flags: W
LayerCount: 2
Fore
SplineSet
51 442 m 1,0,-1
 41 468 l 1,1,-1
 129 468 l 1,2,3
 129 461 129 461 127.5 455.5 c 128,-1,4
 126 450 126 450 126 445 c 0,5,6
 126 443 126 443 127 442 c 2,7,-1
 262 100 l 1,8,-1
 338 274 l 2,9,10
 362 331 362 331 377.5 379 c 128,-1,11
 393 427 393 427 401 468 c 1,12,-1
 468 468 l 1,13,14
 447 382 447 382 397 263 c 2,15,-1
 284 -3 l 1,16,-1
 226 -3 l 1,17,-1
 51 442 l 1,0,-1
EndSplineSet
Validated: 1
EndChar

StartChar: w
Encoding: 119 119 85
Width: 512
GlyphClass: 2
Flags: W
LayerCount: 2
Fore
SplineSet
16 468 m 1,0,-1
 91 468 l 1,1,-1
 91 464 l 2,2,3
 91 458 91 458 89 450 c 128,-1,4
 87 442 87 442 87 435 c 0,5,6
 87 431 87 431 88 429 c 2,7,-1
 157 92 l 1,8,-1
 237 424 l 1,9,-1
 282 424 l 1,10,-1
 381 93 l 1,11,12
 394 183 394 183 403 241.5 c 128,-1,13
 412 300 412 300 416.5 338.5 c 128,-1,14
 421 377 421 377 422.5 402 c 128,-1,15
 424 427 424 427 424 453 c 2,16,-1
 424 468 l 1,17,-1
 493 468 l 1,18,19
 477 349 477 349 457.5 232.5 c 128,-1,20
 438 116 438 116 415 -1 c 1,21,-1
 345 -1 l 1,22,-1
 259 302 l 1,23,-1
 177 -1 l 1,24,-1
 111 -1 l 1,25,-1
 16 468 l 1,0,-1
EndSplineSet
Validated: 1
EndChar

StartChar: x
Encoding: 120 120 86
Width: 512
GlyphClass: 2
Flags: W
LayerCount: 2
Fore
SplineSet
371 468 m 1,0,-1
 446 468 l 1,1,-1
 295 241 l 1,2,-1
 467 0 l 1,3,-1
 383 0 l 1,4,-1
 254 182 l 1,5,-1
 132 0 l 1,6,-1
 48 0 l 1,7,-1
 213 238 l 1,8,-1
 51 468 l 1,9,-1
 132 468 l 1,10,-1
 254 295 l 1,11,-1
 371 468 l 1,0,-1
EndSplineSet
Validated: 1
EndChar

StartChar: y
Encoding: 121 121 87
Width: 512
GlyphClass: 2
Flags: W
LayerCount: 2
Fore
SplineSet
60 435 m 1,0,-1
 47 468 l 1,1,-1
 138 468 l 1,2,3
 138 460 138 460 136 454.5 c 128,-1,4
 134 449 134 449 134 443 c 0,5,6
 134 439 134 439 136 437 c 2,7,-1
 273 93 l 1,8,-1
 362 344 l 2,9,10
 376 380 376 380 384 411 c 128,-1,11
 392 442 392 442 397 468 c 1,12,-1
 474 468 l 1,13,14
 465 441 465 441 454 407.5 c 128,-1,15
 443 374 443 374 428 333 c 2,16,-1
 301 -2 l 1,17,-1
 282 -53 l 2,18,19
 257 -122 257 -122 218.5 -150 c 128,-1,20
 180 -178 180 -178 130 -178 c 0,21,22
 63 -178 63 -178 23 -138 c 1,23,-1
 61 -73 l 1,24,25
 65 -76 65 -76 67 -82.5 c 128,-1,26
 69 -89 69 -89 70 -91 c 2,27,28
 70 -91 70 -91 74 -95.5 c 128,-1,29
 78 -100 78 -100 84.5 -105 c 128,-1,30
 91 -110 91 -110 101.5 -114 c 128,-1,31
 112 -118 112 -118 124 -118 c 0,32,33
 154 -118 154 -118 177 -99.5 c 128,-1,34
 200 -81 200 -81 222 -33 c 2,35,-1
 237 2 l 1,36,-1
 60 435 l 1,0,-1
EndSplineSet
Validated: 1
EndChar

StartChar: z
Encoding: 122 122 88
Width: 512
GlyphClass: 2
Flags: W
LayerCount: 2
Fore
SplineSet
73 468 m 1,0,-1
 436 468 l 1,1,-1
 436 418 l 1,2,-1
 152 63 l 1,3,-1
 429 63 l 2,4,5
 436 63 436 63 445 66.5 c 128,-1,6
 454 70 454 70 461 70 c 1,7,-1
 461 0 l 1,8,-1
 51 0 l 1,9,-1
 51 50 l 1,10,-1
 341 403 l 1,11,-1
 73 403 l 1,12,-1
 73 468 l 1,0,-1
EndSplineSet
Validated: 1
EndChar

StartChar: bar
Encoding: 124 124 89
Width: 512
GlyphClass: 2
Flags: W
LayerCount: 2
Fore
SplineSet
222 668 m 1,0,-1
 291 668 l 1,1,-1
 291 -155 l 1,2,-1
 222 -155 l 1,3,-1
 222 668 l 1,0,-1
EndSplineSet
Validated: 1
EndChar

StartChar: asciitilde
Encoding: 126 126 90
Width: 512
GlyphClass: 2
Flags: W
LayerCount: 2
Fore
SplineSet
93 350 m 1,0,-1
 42 384 l 1,1,2
 67 424 67 424 104 449.5 c 128,-1,3
 141 475 141 475 176 475 c 0,4,5
 212 475 212 475 237 463.5 c 128,-1,6
 262 452 262 452 278 437 c 0,7,8
 319 398 319 398 347 398 c 0,9,10
 376 398 376 398 395.5 414.5 c 128,-1,11
 415 431 415 431 440 465 c 1,12,-1
 487 426 l 1,13,14
 475 408 475 408 458.5 390.5 c 128,-1,15
 442 373 442 373 425 360 c 128,-1,16
 408 347 408 347 389.5 339.5 c 128,-1,17
 371 332 371 332 352 332 c 0,18,19
 317 332 317 332 292.5 344.5 c 128,-1,20
 268 357 268 357 254 373 c 0,21,22
 216 414 216 414 178 414 c 0,23,24
 132 414 132 414 93 350 c 1,0,-1
EndSplineSet
Validated: 1
EndChar

StartChar: section
Encoding: 167 167 91
Width: 1024
GlyphClass: 2
Flags: W
LayerCount: 2
Fore
SplineSet
520 680 m 0,0,1
 470 680 470 680 422 654 c 0,2,3
 380 629 380 629 380 583 c 0,4,5
 380 536 380 536 420 519 c 0,6,7
 539 470 539 470 682 405 c 0,8,9
 748 376 748 376 748 308 c 0,10,11
 748 262 748 262 705 229 c 0,12,13
 674 203 674 203 591 184 c 1,14,-1
 649 158 l 2,15,16
 728 126 728 126 728 44 c 0,17,18
 728 -20 728 -20 665 -60 c 0,19,20
 594 -105 594 -105 488 -105 c 0,21,22
 389 -105 389 -105 335 -61 c 0,23,24
 272 -14 272 -14 272 44 c 0,25,26
 272 96 272 96 324 96 c 0,27,28
 368 96 368 96 368 48 c 0,29,30
 368 37 368 37 364 27 c 0,31,32
 360 21 360 21 360 8 c 0,33,34
 360 -19 360 -19 392 -42 c 0,35,36
 428 -72 428 -72 488 -72 c 0,37,38
 566 -72 566 -72 611 -45 c 0,39,40
 660 -11 660 -11 660 36 c 0,41,42
 660 82 660 82 613 103 c 2,43,-1
 352 223 l 2,44,45
 288 253 288 253 288 323 c 0,46,47
 288 368 288 368 335 406 c 0,48,49
 371 436 371 436 430 450 c 1,50,-1
 375 475 l 2,51,52
 312 505 312 505 312 572 c 0,53,54
 312 637 312 637 369 677 c 1,55,56
 433 711 433 711 520 711 c 0,57,58
 622 711 622 711 678 669 c 0,59,60
 728 630 728 630 728 579 c 256,61,62
 728 528 728 528 680 528 c 0,63,64
 640 528 640 528 640 575 c 0,65,66
 640 588 640 588 645 597 c 0,67,68
 648 605 648 605 648 616 c 0,69,70
 648 636 648 636 616 656 c 0,71,72
 577 680 577 680 520 680 c 0,0,1
465 435 m 1,73,74
 411 417 411 417 386 394 c 0,75,76
 356 364 356 364 356 327 c 0,77,78
 356 288 356 288 399 267 c 2,79,-1
 559 198 l 1,80,81
 625 215 625 215 647 233 c 0,82,83
 680 261 680 261 680 300 c 0,84,85
 680 340 680 340 631 361 c 2,86,-1
 465 435 l 1,73,74
EndSplineSet
Validated: 1
EndChar

StartChar: macron
Encoding: 175 175 92
AltUni2: 000305.ffffffff.0
Width: 1024
GlyphClass: 2
Flags: W
LayerCount: 2
Fore
SplineSet
512 804 m 1024,0,-1
0 820 m 1,1,-1
 1024 820 l 1,2,-1
 1024 788 l 1,3,-1
 0 788 l 1,4,-1
 0 820 l 1,1,-1
EndSplineSet
Validated: 1
EndChar

StartChar: degree
Encoding: 176 176 93
AltUni2: 002218.ffffffff.0
Width: 1024
GlyphClass: 2
Flags: W
LayerCount: 2
Fore
SplineSet
176 776 m 256,0,1
 221 776 221 776 255 743 c 0,2,3
 288 708 288 708 288 663 c 0,4,5
 288 619 288 619 255 586 c 0,6,7
 221 552 221 552 176 552 c 256,8,9
 131 552 131 552 96 586 c 0,10,11
 65 619 65 619 65 663 c 0,12,13
 65 708 65 708 96 743 c 1,14,15
 131 776 131 776 176 776 c 256,0,1
176 575 m 0,16,17
 211 575 211 575 238 602 c 0,18,19
 264 629 264 629 264 663 c 0,20,21
 264 699 264 699 238 726 c 0,22,23
 211 751 211 751 176 751 c 0,24,25
 140 751 140 751 114 726 c 0,26,27
 88 699 88 699 88 663 c 0,28,29
 88 629 88 629 114 602 c 256,30,31
 140 575 140 575 176 575 c 0,16,17
EndSplineSet
Validated: 1
EndChar

StartChar: plusminus
Encoding: 177 177 94
Width: 1024
GlyphClass: 2
Flags: W
LayerCount: 2
Fore
SplineSet
704 444 m 1024,0,-1
318 444 m 1024,1,-1
510 32 m 1024,2,-1
512 291 m 1024,3,-1
512 594 m 1024,4,-1
512 728 m 1,5,-1
 528 728 l 1,6,-1
 528 460 l 1,7,-1
 880 460 l 1,8,-1
 880 428 l 1,9,-1
 528 428 l 1,10,-1
 528 155 l 1,11,-1
 496 155 l 1,12,-1
 496 428 l 1,13,-1
 140 428 l 1,14,-1
 140 460 l 1,15,-1
 496 460 l 1,16,-1
 496 728 l 1,17,-1
 512 728 l 1,5,-1
140 48 m 1,18,-1
 880 48 l 1,19,-1
 880 16 l 1,20,-1
 140 16 l 1,21,-1
 140 48 l 1,18,-1
EndSplineSet
Validated: 1
EndChar

StartChar: mu
Encoding: 181 181 95
AltUni2: 0003bc.ffffffff.0
Width: 1024
GlyphClass: 2
Flags: W
LayerCount: 2
Fore
SplineSet
456 491 m 0,0,1
 467 491 467 491 472 485 c 0,2,3
 476 480 476 480 476 468 c 0,4,5
 476 458 476 458 442 390 c 0,6,7
 407 314 407 314 369 213 c 0,8,9
 356 174 356 174 356 132 c 0,10,11
 357 74 357 74 374 36 c 0,12,13
 382 15 382 15 401 1 c 0,14,15
 424 -17 424 -17 452 -17 c 0,16,17
 473 -17 473 -17 499 -3 c 0,18,19
 522 10 522 10 548 40 c 0,20,21
 572 71 572 71 596 132 c 1,22,23
 603 185 603 185 624 252 c 0,24,25
 656 367 656 367 684 428 c 0,26,27
 700 460 700 460 712 476 c 0,28,29
 728 491 728 491 736 491 c 0,30,31
 745 491 745 491 751 484 c 0,32,33
 756 478 756 478 756 464 c 0,34,35
 755 405 755 405 706 270 c 0,36,37
 664 155 664 155 612 88 c 1,38,39
 612 34 612 34 628 18 c 0,40,41
 646 0 646 0 668 0 c 0,42,43
 700 0 700 0 726 13 c 0,44,45
 757 30 757 30 788 76 c 1,46,-1
 800 67 l 1,47,48
 765 -1 765 -1 730 -28 c 0,49,50
 700 -48 700 -48 664 -48 c 0,51,52
 644 -48 644 -48 624 -36 c 0,53,54
 608 -28 608 -28 600 -4 c 0,55,56
 594 13 594 13 593 48 c 1,57,58
 559 -8 559 -8 520 -24 c 1,59,60
 488 -48 488 -48 449 -48 c 0,61,62
 416 -48 416 -48 388 -28 c 256,63,64
 360 -8 360 -8 344 27 c 0,65,66
 335 52 335 52 330 78 c 1,67,68
 303 4 303 4 292 -104 c 0,69,70
 281 -191 281 -191 268 -195 c 0,71,72
 256 -200 256 -200 232 -200 c 256,73,74
 208 -200 208 -200 208 -189 c 0,75,76
 208 -180 208 -180 239 -88 c 0,77,78
 275 20 275 20 322 132 c 1,79,-1
 321 164 l 2,80,81
 321 235 321 235 340 308 c 0,82,83
 356 376 356 376 380 420 c 0,84,85
 400 455 400 455 424 476 c 0,86,87
 440 491 440 491 456 491 c 0,0,1
EndSplineSet
Validated: 1
EndChar

StartChar: periodcentered
Encoding: 183 183 96
AltUni2: 002219.ffffffff.0
Width: 1024
GlyphClass: 2
Flags: W
LayerCount: 2
Fore
SplineSet
248 384 m 0,0,1
 279 384 279 384 296 364 c 0,2,3
 316 346 316 346 316 316 c 256,4,5
 316 286 316 286 296 267 c 256,6,7
 276 248 276 248 248 248 c 0,8,9
 219 248 219 248 200 267 c 0,10,11
 180 285 180 285 180 316 c 0,12,13
 180 346 180 346 200 364 c 0,14,15
 219 384 219 384 248 384 c 0,0,1
EndSplineSet
Validated: 1
EndChar

StartChar: multiply
Encoding: 215 215 97
Width: 1024
GlyphClass: 2
Flags: W
LayerCount: 2
Fore
SplineSet
228 616 m 1,0,-1
 510 334 l 1,1,-1
 792 616 l 1,2,-1
 816 592 l 1,3,-1
 534 310 l 1,4,-1
 816 27 l 1,5,-1
 792 4 l 1,6,-1
 510 285 l 1,7,-1
 228 4 l 1,8,-1
 204 27 l 1,9,-1
 486 310 l 1,10,-1
 204 592 l 1,11,-1
 228 616 l 1,0,-1
EndSplineSet
Validated: 1
EndChar

StartChar: divide
Encoding: 247 247 98
Width: 1024
GlyphClass: 2
Flags: W
LayerCount: 2
Fore
SplineSet
510 307 m 1024,0,-1
512 572 m 0,1,2
 537 572 537 572 551 557 c 0,3,4
 568 540 568 540 568 516 c 256,5,6
 568 492 568 492 552 476 c 256,7,8
 536 460 536 460 512 460 c 256,9,10
 488 460 488 460 471 476 c 0,11,12
 456 491 456 491 456 516 c 0,13,14
 456 540 456 540 473 557 c 0,15,16
 488 572 488 572 512 572 c 0,1,2
512 172 m 0,17,18
 537 172 537 172 551 156 c 0,19,20
 568 141 568 141 568 115 c 0,21,22
 568 92 568 92 552 76 c 256,23,24
 536 60 536 60 512 60 c 256,25,26
 488 60 488 60 471 76 c 0,27,28
 456 91 456 91 456 115 c 0,29,30
 456 141 456 141 473 156 c 0,31,32
 488 172 488 172 512 172 c 0,17,18
156 323 m 1,33,-1
 864 323 l 1,34,-1
 864 292 l 1,35,-1
 156 292 l 1,36,-1
 156 323 l 1,33,-1
EndSplineSet
Validated: 1
EndChar

StartChar: caron
Encoding: 711 711 99
Width: 1024
GlyphClass: 2
Flags: W
LayerCount: 2
Fore
SplineSet
16 588 m 0,0,1
 34 588 34 588 58 549 c 0,2,3
 183 362 183 362 253 240 c 0,4,5
 285 184 285 184 296 184 c 0,6,7
 306 184 306 184 337 240 c 0,8,9
 406 362 406 362 529 549 c 0,10,11
 555 588 555 588 572 588 c 0,12,13
 588 588 588 588 588 572 c 0,14,15
 588 557 588 557 556 491 c 0,16,17
 460 278 460 278 346 76 c 0,18,19
 320 32 320 32 296 32 c 0,20,21
 270 32 270 32 244 76 c 0,22,23
 128 278 128 278 31 491 c 0,24,25
 0 557 0 557 0 572 c 0,26,27
 0 588 0 588 16 588 c 0,0,1
EndSplineSet
Validated: 1
EndChar

StartChar: uni02CA
Encoding: 714 714 101
Width: 1024
GlyphClass: 2
Flags: W
LayerCount: 2
Fore
SplineSet
472 556 m 0,0,1
 492 556 492 556 492 539 c 0,2,3
 492 530 492 530 465 498 c 0,4,5
 321 311 321 311 224 204 c 1,6,7
 146 110 146 110 120 81 c 0,8,9
 103 60 103 60 92 60 c 0,10,11
 79 60 79 60 38 100 c 0,12,13
 0 136 0 136 0 148 c 0,14,15
 0 164 0 164 37 183 c 0,16,17
 107 224 107 224 242 344 c 0,18,19
 369 459 369 459 438 535 c 0,20,21
 459 556 459 556 472 556 c 0,0,1
EndSplineSet
Validated: 1
EndChar

StartChar: uni02CB
Encoding: 715 715 102
Width: 1024
GlyphClass: 2
Flags: W
LayerCount: 2
Fore
SplineSet
92 556 m 0,0,1
 103 556 103 556 120 537 c 0,2,3
 146 507 146 507 224 413 c 1,4,5
 321 305 321 305 465 119 c 0,6,7
 492 87 492 87 492 76 c 0,8,9
 492 60 492 60 472 60 c 0,10,11
 459 60 459 60 438 82 c 0,12,13
 369 158 369 158 242 273 c 0,14,15
 107 393 107 393 37 434 c 0,16,17
 0 453 0 453 0 468 c 0,18,19
 0 479 0 479 38 516 c 0,20,21
 79 556 79 556 92 556 c 0,0,1
EndSplineSet
Validated: 1
EndChar

StartChar: uni02CD
Encoding: 717 717 103
Width: 1024
GlyphClass: 2
Flags: W
LayerCount: 2
Fore
SplineSet
0 -132 m 1,0,-1
 1024 -132 l 1,1,-1
 1024 -204 l 1,2,-1
 0 -204 l 1,3,-1
 0 -132 l 1,0,-1
EndSplineSet
Validated: 1
EndChar

StartChar: dotaccent
Encoding: 729 729 104
AltUni2: 002024.ffffffff.0
Width: 1024
GlyphClass: 2
Flags: W
LayerCount: 2
Fore
SplineSet
156 464 m 256,0,1
 218 464 218 464 266 418 c 0,2,3
 312 370 312 370 312 308 c 256,4,5
 312 246 312 246 266 198 c 0,6,7
 218 151 218 151 156 151 c 256,8,9
 94 151 94 151 45 198 c 0,10,11
 0 246 0 246 0 308 c 256,12,13
 0 370 0 370 45 418 c 1,14,15
 94 464 94 464 156 464 c 256,0,1
EndSplineSet
Validated: 1
EndChar

StartChar: Alpha
Encoding: 913 913 105
Width: 1024
GlyphClass: 2
Flags: W
LayerCount: 2
Fore
SplineSet
493 259 m 1024,0,-1
528 720 m 1,1,-1
 772 40 l 2,2,3
 787 9 787 9 806 0 c 0,4,5
 821 -8 821 -8 864 -8 c 1,6,-1
 864 -40 l 1,7,-1
 608 -40 l 1,8,-1
 608 -8 l 1,9,10
 678 -8 678 -8 689 -1 c 256,11,12
 700 6 700 6 700 12 c 0,13,14
 700 28 700 28 696 44 c 2,15,-1
 623 243 l 1,16,-1
 353 243 l 1,17,-1
 284 44 l 1,18,-1
 276 20 l 1,19,20
 278 3 278 3 290 0 c 0,21,22
 306 -8 306 -8 380 -8 c 1,23,-1
 380 -40 l 1,24,-1
 140 -40 l 1,25,-1
 140 -8 l 1,26,27
 197 -8 197 -8 217 3 c 0,28,29
 233 11 233 11 252 48 c 1,30,-1
 484 707 l 1,31,-1
 528 720 l 1,1,-1
364 276 m 1,32,-1
 611 276 l 1,33,-1
 484 623 l 1,34,-1
 364 276 l 1,32,-1
EndSplineSet
Validated: 1
EndChar

StartChar: Beta
Encoding: 914 914 106
Width: 1024
GlyphClass: 2
Flags: W
LayerCount: 2
Fore
SplineSet
456 360 m 1024,0,-1
336 338 m 1024,1,-1
336 192 m 1024,2,-1
500 680 m 0,3,4
 400 680 400 680 386 666 c 0,5,6
 372 655 372 655 372 636 c 2,7,-1
 372 376 l 1,8,-1
 540 376 l 2,9,10
 581 376 581 376 623 401 c 0,11,12
 658 420 658 420 676 455 c 0,13,14
 692 487 692 487 692 535 c 0,15,16
 692 580 692 580 671 613 c 0,17,18
 642 653 642 653 597 669 c 0,19,20
 566 680 566 680 500 680 c 0,3,4
372 344 m 1,21,-1
 372 40 l 2,22,23
 372 21 372 21 389 6 c 0,24,25
 407 -8 407 -8 516 -8 c 0,26,27
 606 -8 606 -8 640 11 c 0,28,29
 680 33 680 33 705 81 c 0,30,31
 724 119 724 119 724 172 c 256,32,33
 724 225 724 225 703 265 c 0,34,35
 677 311 677 311 634 331 c 0,36,37
 603 344 603 344 540 344 c 2,38,-1
 372 344 l 1,21,-1
564 -40 m 2,39,-1
 208 -40 l 1,40,-1
 208 -8 l 1,41,42
 260 -8 260 -8 278 0 c 0,43,44
 300 9 300 9 300 40 c 2,45,-1
 300 636 l 2,46,47
 300 651 300 651 290 666 c 1,48,49
 274 680 274 680 208 680 c 1,50,-1
 208 711 l 1,51,-1
 560 711 l 2,52,53
 600 711 600 711 640 700 c 0,54,55
 688 684 688 684 728 644 c 1,56,57
 768 596 768 596 768 535 c 0,58,59
 768 468 768 468 732 432 c 0,60,61
 692 388 692 388 608 360 c 1,62,63
 687 348 687 348 721 323 c 0,64,65
 754 302 754 302 773 270 c 0,66,67
 800 229 800 229 800 172 c 0,68,69
 800 104 800 104 768 52 c 1,70,71
 732 4 732 4 676 -21 c 0,72,73
 624 -40 624 -40 564 -40 c 2,39,-1
EndSplineSet
Validated: 1
EndChar

StartChar: Gamma
Encoding: 915 915 107
Width: 1024
GlyphClass: 2
Flags: W
LayerCount: 2
Fore
SplineSet
396 695 m 1024,0,-1
252 695 m 1024,1,-1
470 -24 m 1024,2,-1
358 -24 m 1024,3,-1
364 336 m 1024,4,-1
216 711 m 1,5,-1
 772 711 l 1,6,-1
 796 508 l 1,7,-1
 772 504 l 1,8,9
 746 596 746 596 702 636 c 0,10,11
 653 680 653 680 577 680 c 2,12,-1
 440 680 l 2,13,14
 400 680 400 680 400 660 c 2,15,-1
 400 12 l 2,16,17
 400 -8 400 -8 440 -8 c 2,18,-1
 500 -8 l 1,19,-1
 500 -40 l 1,20,-1
 216 -40 l 1,21,-1
 216 -8 l 1,22,-1
 288 -8 l 2,23,24
 328 -8 328 -8 328 12 c 2,25,-1
 328 660 l 2,26,27
 328 680 328 680 288 680 c 2,28,-1
 216 680 l 1,29,-1
 216 711 l 1,5,-1
EndSplineSet
Validated: 1
EndChar

StartChar: uni0394
Encoding: 916 916 108
Width: 1024
GlyphClass: 2
Flags: W
LayerCount: 2
Fore
SplineSet
528 711 m 1,0,-1
 852 -40 l 1,1,-1
 168 -40 l 1,2,-1
 500 711 l 1,3,-1
 528 711 l 1,0,-1
748 20 m 1,4,-1
 492 632 l 1,5,-1
 220 20 l 1,6,-1
 748 20 l 1,4,-1
EndSplineSet
Validated: 1
EndChar

StartChar: Epsilon
Encoding: 917 917 109
Width: 1024
GlyphClass: 2
Flags: W
LayerCount: 2
Fore
SplineSet
456 347 m 1024,0,-1
340 338 m 1024,1,-1
340 186 m 1024,2,-1
340 711 m 1,3,-1
 768 711 l 1,4,-1
 788 516 l 1,5,-1
 768 516 l 1,6,7
 718 601 718 601 662 644 c 0,8,9
 610 680 610 680 472 680 c 0,10,11
 397 680 397 680 386 666 c 0,12,13
 376 655 376 655 376 636 c 2,14,-1
 376 363 l 1,15,-1
 536 363 l 2,16,17
 558 363 558 363 573 385 c 256,18,19
 588 407 588 407 588 488 c 1,20,-1
 620 488 l 1,21,-1
 620 199 l 1,22,-1
 588 199 l 1,23,24
 588 285 588 285 573 309 c 0,25,26
 558 332 558 332 536 332 c 2,27,-1
 376 332 l 1,28,-1
 376 40 l 2,29,30
 376 21 376 21 390 6 c 0,31,32
 406 -8 406 -8 500 -8 c 0,33,34
 640 -3 640 -3 677 32 c 1,35,36
 730 71 730 71 776 155 c 1,37,-1
 796 155 l 1,38,-1
 768 -40 l 1,39,-1
 212 -40 l 1,40,-1
 212 -8 l 1,41,42
 264 -8 264 -8 281 0 c 0,43,44
 304 9 304 9 304 40 c 2,45,-1
 304 636 l 2,46,47
 304 651 304 651 294 666 c 1,48,49
 279 680 279 680 212 680 c 1,50,-1
 212 711 l 1,51,-1
 340 711 l 1,3,-1
EndSplineSet
Validated: 1
EndChar

StartChar: Zeta
Encoding: 918 918 110
Width: 1024
GlyphClass: 2
Flags: W
LayerCount: 2
Fore
SplineSet
504 695 m 1024,0,-1
528 -24 m 1024,1,-1
296 711 m 1,2,-1
 792 711 l 1,3,-1
 792 688 l 1,4,-1
 304 -8 l 1,5,-1
 516 -8 l 2,6,7
 583 -8 583 -8 654 34 c 0,8,9
 715 68 715 68 776 176 c 1,10,-1
 800 176 l 1,11,-1
 752 -40 l 1,12,-1
 224 -40 l 1,13,-1
 224 -13 l 1,14,-1
 712 680 l 1,15,-1
 568 680 l 2,16,17
 463 680 463 680 406 646 c 0,18,19
 335 607 335 607 276 508 c 1,20,-1
 252 508 l 1,21,-1
 296 711 l 1,2,-1
EndSplineSet
Validated: 1
EndChar

StartChar: Eta
Encoding: 919 919 111
Width: 1024
GlyphClass: 2
Flags: W
LayerCount: 2
Fore
SplineSet
510 351 m 1024,0,-1
740 503 m 1024,1,-1
740 342 m 1024,2,-1
280 342 m 1024,3,-1
280 190 m 1024,4,-1
140 711 m 1,5,-1
 432 711 l 1,6,-1
 432 680 l 1,7,8
 354 680 354 680 335 670 c 0,9,10
 316 659 316 659 316 640 c 2,11,-1
 316 367 l 1,12,-1
 705 367 l 1,13,-1
 705 640 l 2,14,15
 705 661 705 661 685 670 c 0,16,17
 668 680 668 680 588 680 c 1,18,-1
 588 711 l 1,19,-1
 876 711 l 1,20,-1
 876 680 l 1,21,22
 809 680 809 680 793 670 c 0,23,24
 776 659 776 659 776 640 c 2,25,-1
 776 44 l 2,26,27
 776 18 776 18 790 7 c 0,28,29
 812 -8 812 -8 876 -8 c 1,30,-1
 876 -40 l 1,31,-1
 588 -40 l 1,32,-1
 588 -8 l 1,33,34
 654 -8 654 -8 678 3 c 0,35,36
 705 13 705 13 705 44 c 2,37,-1
 705 336 l 1,38,-1
 316 336 l 1,39,-1
 316 44 l 2,40,41
 316 18 316 18 332 7 c 0,42,43
 358 -8 358 -8 432 -8 c 1,44,-1
 432 -40 l 1,45,-1
 140 -40 l 1,46,-1
 140 -8 l 1,47,48
 200 -8 200 -8 221 3 c 0,49,50
 244 13 244 13 244 44 c 2,51,-1
 244 640 l 2,52,53
 244 661 244 661 227 670 c 0,54,55
 212 680 212 680 140 680 c 1,56,-1
 140 711 l 1,5,-1
EndSplineSet
Validated: 1
EndChar

StartChar: Theta
Encoding: 920 920 112
Width: 1024
GlyphClass: 2
Flags: W
LayerCount: 2
Fore
SplineSet
512 720 m 0,0,1
 656 720 656 720 750 622 c 0,2,3
 848 515 848 515 848 348 c 0,4,5
 848 170 848 170 749 60 c 0,6,7
 652 -48 652 -48 508 -48 c 0,8,9
 365 -48 365 -48 268 69 c 0,10,11
 180 175 180 175 180 348 c 0,12,13
 180 502 180 502 276 615 c 0,14,15
 367 720 367 720 512 720 c 0,0,1
508 -17 m 0,16,17
 615 -17 615 -17 692 75 c 1,18,19
 769 160 769 160 772 308 c 1,20,-1
 257 308 l 1,21,22
 266 173 266 173 333 82 c 0,23,24
 406 -17 406 -17 508 -17 c 0,16,17
257 376 m 1,25,-1
 770 376 l 1,26,27
 759 514 759 514 693 597 c 0,28,29
 626 688 626 688 512 688 c 0,30,31
 409 688 409 688 336 607 c 0,32,33
 263 521 263 521 257 376 c 1,25,-1
EndSplineSet
Validated: 1
EndChar

StartChar: Iota
Encoding: 921 921 113
Width: 1024
GlyphClass: 2
Flags: W
LayerCount: 2
Fore
SplineSet
516 342 m 1024,0,-1
396 711 m 1,1,-1
 652 711 l 1,2,-1
 652 680 l 1,3,4
 586 680 586 680 568 670 c 0,5,6
 552 659 552 659 552 640 c 2,7,-1
 552 44 l 2,8,9
 552 18 552 18 565 7 c 0,10,11
 588 -8 588 -8 652 -8 c 1,12,-1
 652 -40 l 1,13,-1
 396 -40 l 1,14,-1
 396 -8 l 1,15,16
 444 -8 444 -8 461 3 c 0,17,18
 480 13 480 13 480 44 c 2,19,-1
 480 640 l 2,20,21
 480 661 480 661 466 670 c 0,22,23
 454 680 454 680 396 680 c 1,24,-1
 396 711 l 1,1,-1
EndSplineSet
Validated: 1
EndChar

StartChar: Kappa
Encoding: 922 922 114
Width: 1024
GlyphClass: 2
Flags: W
LayerCount: 2
Fore
SplineSet
296 342 m 1024,0,-1
296 152 m 1024,1,-1
152 711 m 1,2,-1
 440 711 l 1,3,-1
 440 680 l 1,4,5
 368 680 368 680 350 670 c 0,6,7
 332 659 332 659 332 640 c 2,8,-1
 332 300 l 1,9,-1
 660 636 l 2,10,11
 680 655 680 655 680 667 c 0,12,13
 680 673 680 673 670 677 c 0,14,15
 658 680 658 680 604 680 c 1,16,-1
 604 711 l 1,17,-1
 844 711 l 1,18,-1
 844 680 l 1,19,20
 796 680 796 680 759 665 c 0,21,22
 726 653 726 653 696 627 c 2,23,-1
 498 427 l 1,24,-1
 756 44 l 2,25,26
 773 25 773 25 802 10 c 0,27,28
 828 -3 828 -3 876 -8 c 1,29,-1
 876 -40 l 1,30,-1
 600 -40 l 1,31,-1
 600 -8 l 1,32,33
 666 -8 666 -8 681 -2 c 0,34,35
 692 2 692 2 692 8 c 0,36,37
 692 17 692 17 684 27 c 2,38,-1
 452 381 l 1,39,-1
 332 260 l 1,40,-1
 332 44 l 2,41,42
 332 18 332 18 345 7 c 0,43,44
 369 -8 369 -8 432 -8 c 1,45,-1
 432 -40 l 1,46,-1
 152 -40 l 1,47,-1
 152 -8 l 1,48,49
 214 -8 214 -8 236 3 c 0,50,51
 260 13 260 13 260 44 c 2,52,-1
 260 640 l 2,53,54
 260 661 260 661 243 670 c 0,55,56
 226 680 226 680 152 680 c 1,57,-1
 152 711 l 1,2,-1
EndSplineSet
Validated: 1
EndChar

StartChar: Lambda
Encoding: 923 923 115
Width: 1024
GlyphClass: 2
Flags: W
LayerCount: 2
Fore
SplineSet
372 -24 m 1024,0,-1
270 -24 m 1024,1,-1
860 -24 m 1024,2,-1
734 -24 m 1024,3,-1
496 604 m 1,4,-1
 308 71 l 2,5,6
 300 50 300 50 300 32 c 0,7,8
 300 17 300 17 309 5 c 0,9,10
 322 -8 322 -8 348 -8 c 2,11,-1
 396 -8 l 1,12,-1
 396 -40 l 1,13,-1
 144 -40 l 1,14,-1
 144 -8 l 1,15,-1
 180 -8 l 2,16,17
 208 -8 208 -8 233 9 c 0,18,19
 257 25 257 25 276 71 c 2,20,-1
 504 711 l 1,21,-1
 540 711 l 1,22,-1
 780 40 l 2,23,24
 788 15 788 15 805 4 c 0,25,26
 823 -8 823 -8 844 -8 c 2,27,-1
 876 -8 l 1,28,-1
 876 -40 l 1,29,-1
 592 -40 l 1,30,-1
 592 -8 l 1,31,-1
 640 -8 l 2,32,33
 675 -8 675 -8 689 -2 c 0,34,35
 705 7 705 7 705 23 c 0,36,37
 705 33 705 33 700 40 c 2,38,-1
 496 604 l 1,4,-1
EndSplineSet
Validated: 1
EndChar

StartChar: Mu
Encoding: 924 924 116
Width: 1024
GlyphClass: 2
Flags: W
LayerCount: 2
Fore
SplineSet
808 334 m 1024,0,-1
184 342 m 1024,1,-1
68 711 m 1,2,-1
 252 711 l 1,3,-1
 500 80 l 1,4,-1
 760 711 l 1,5,-1
 944 711 l 1,6,-1
 944 680 l 1,7,8
 869 680 869 680 856 669 c 0,9,10
 844 660 844 660 844 636 c 2,11,-1
 844 32 l 2,12,13
 844 18 844 18 856 5 c 0,14,15
 870 -8 870 -8 944 -8 c 1,16,-1
 944 -40 l 1,17,-1
 672 -40 l 1,18,-1
 672 -8 l 1,19,20
 739 -8 739 -8 756 2 c 0,21,22
 772 11 772 11 772 32 c 2,23,-1
 772 667 l 1,24,-1
 488 -40 l 1,25,-1
 472 -40 l 1,26,-1
 200 652 l 1,27,-1
 200 32 l 2,28,29
 200 12 200 12 218 -1 c 0,30,31
 231 -8 231 -8 316 -8 c 1,32,-1
 316 -40 l 1,33,-1
 76 -40 l 1,34,-1
 76 -8 l 1,35,36
 138 -8 138 -8 153 2 c 0,37,38
 168 13 168 13 168 32 c 2,39,-1
 168 632 l 2,40,41
 168 654 168 654 154 667 c 0,42,43
 138 680 138 680 68 680 c 1,44,-1
 68 711 l 1,2,-1
EndSplineSet
Validated: 1
EndChar

StartChar: Nu
Encoding: 925 925 117
Width: 1024
GlyphClass: 2
Flags: W
LayerCount: 2
Fore
SplineSet
768 351 m 1024,0,-1
264 332 m 1024,1,-1
152 711 m 1,2,-1
 304 711 l 1,3,-1
 752 67 l 1,4,-1
 752 636 l 2,5,6
 752 657 752 657 734 670 c 0,7,8
 721 680 721 680 636 680 c 1,9,-1
 636 711 l 1,10,-1
 876 711 l 1,11,-1
 876 680 l 1,12,13
 811 680 811 680 798 669 c 0,14,15
 784 661 784 661 784 636 c 2,16,-1
 784 -40 l 1,17,-1
 744 -40 l 1,18,-1
 280 632 l 1,19,-1
 280 32 l 2,20,21
 280 12 280 12 298 -1 c 0,22,23
 311 -8 311 -8 396 -8 c 1,24,-1
 396 -40 l 1,25,-1
 152 -40 l 1,26,-1
 152 -8 l 1,27,28
 216 -8 216 -8 231 2 c 0,29,30
 248 13 248 13 248 32 c 2,31,-1
 248 632 l 2,32,33
 248 654 248 654 233 667 c 0,34,35
 219 680 219 680 152 680 c 1,36,-1
 152 711 l 1,2,-1
EndSplineSet
Validated: 1
EndChar

StartChar: Xi
Encoding: 926 926 118
Width: 1024
GlyphClass: 2
Flags: W
LayerCount: 2
Fore
SplineSet
752 614 m 1024,0,-1
280 596 m 1024,1,-1
702 412 m 1024,2,-1
702 348 m 1024,3,-1
320 348 m 1024,4,-1
320 284 m 1024,5,-1
780 84 m 1024,6,-1
240 61 m 1024,7,-1
296 711 m 2,8,-1
 736 711 l 2,9,10
 768 711 768 711 768 676 c 2,11,-1
 768 552 l 1,12,-1
 736 552 l 1,13,-1
 736 640 l 1,14,-1
 296 640 l 1,15,-1
 296 552 l 1,16,-1
 264 552 l 1,17,-1
 264 676 l 2,18,19
 264 711 264 711 296 711 c 2,8,-1
304 440 m 1,20,-1
 336 440 l 1,21,-1
 336 384 l 1,22,-1
 688 384 l 1,23,-1
 688 440 l 1,24,-1
 716 440 l 1,25,-1
 716 256 l 1,26,-1
 688 256 l 1,27,-1
 688 312 l 1,28,-1
 336 312 l 1,29,-1
 336 256 l 1,30,-1
 304 256 l 1,31,-1
 304 440 l 1,20,-1
224 136 m 1,32,-1
 256 136 l 1,33,-1
 256 32 l 1,34,-1
 764 32 l 1,35,-1
 764 136 l 1,36,-1
 796 136 l 1,37,-1
 796 -13 l 2,38,39
 796 -40 796 -40 764 -40 c 2,40,-1
 256 -40 l 2,41,42
 224 -40 224 -40 224 -13 c 2,43,-1
 224 136 l 1,32,-1
EndSplineSet
Validated: 1
EndChar

StartChar: Omicron
Encoding: 927 927 119
Width: 1024
GlyphClass: 2
Flags: W
LayerCount: 2
Fore
SplineSet
512 720 m 0,0,1
 656 720 656 720 750 622 c 0,2,3
 848 515 848 515 848 348 c 0,4,5
 848 170 848 170 749 60 c 0,6,7
 652 -48 652 -48 508 -48 c 0,8,9
 365 -48 365 -48 268 69 c 0,10,11
 180 175 180 175 180 348 c 0,12,13
 180 502 180 502 276 615 c 0,14,15
 367 720 367 720 512 720 c 0,0,1
508 -17 m 0,16,17
 615 -17 615 -17 692 75 c 1,18,19
 772 164 772 164 772 319 c 0,20,21
 772 498 772 498 693 597 c 1,22,23
 626 688 626 688 512 688 c 0,24,25
 409 688 409 688 336 607 c 0,26,27
 256 513 256 513 256 348 c 0,28,29
 256 186 256 186 333 82 c 0,30,31
 406 -17 406 -17 508 -17 c 0,16,17
EndSplineSet
Validated: 1
EndChar

StartChar: Pi
Encoding: 928 928 120
Width: 1024
GlyphClass: 2
Flags: W
LayerCount: 2
Fore
SplineSet
510 695 m 1024,0,-1
406 695 m 1024,1,-1
228 695 m 1024,2,-1
792 -24 m 1024,3,-1
688 -24 m 1024,4,-1
436 -24 m 1024,5,-1
332 -24 m 1024,6,-1
688 336 m 1024,7,-1
332 336 m 1024,8,-1
200 711 m 1,9,-1
 820 711 l 1,10,-1
 820 680 l 1,11,-1
 764 680 l 2,12,13
 724 680 724 680 724 660 c 2,14,-1
 724 12 l 2,15,16
 724 -8 724 -8 764 -8 c 2,17,-1
 820 -8 l 1,18,-1
 820 -40 l 1,19,-1
 556 -40 l 1,20,-1
 556 -8 l 1,21,-1
 612 -8 l 2,22,23
 652 -8 652 -8 652 12 c 2,24,-1
 652 660 l 2,25,26
 652 680 652 680 612 680 c 2,27,-1
 408 680 l 2,28,29
 368 680 368 680 368 660 c 2,30,-1
 368 12 l 2,31,32
 368 -8 368 -8 408 -8 c 2,33,-1
 464 -8 l 1,34,-1
 464 -40 l 1,35,-1
 200 -40 l 1,36,-1
 200 -8 l 1,37,-1
 256 -8 l 2,38,39
 296 -8 296 -8 296 12 c 2,40,-1
 296 660 l 2,41,42
 296 680 296 680 256 680 c 2,43,-1
 200 680 l 1,44,-1
 200 711 l 1,9,-1
EndSplineSet
Validated: 1
EndChar

StartChar: Rho
Encoding: 929 929 121
Width: 1024
GlyphClass: 2
Flags: W
LayerCount: 2
Fore
SplineSet
460 324 m 1024,0,-1
352 174 m 1024,1,-1
352 338 m 1024,2,-1
352 711 m 1,3,-1
 564 711 l 2,4,5
 640 711 640 711 696 688 c 1,6,7
 744 663 744 663 776 612 c 0,8,9
 800 572 800 572 800 504 c 0,10,11
 800 444 800 444 768 392 c 1,12,13
 728 340 728 340 664 323 c 0,14,15
 608 308 608 308 532 308 c 2,16,-1
 388 308 l 1,17,-1
 388 40 l 2,18,19
 388 21 388 21 399 6 c 0,20,21
 412 -8 412 -8 488 -8 c 1,22,-1
 488 -40 l 1,23,-1
 216 -40 l 1,24,-1
 216 -8 l 1,25,26
 272 -8 272 -8 291 0 c 0,27,28
 316 9 316 9 316 40 c 2,29,-1
 316 636 l 2,30,31
 316 651 316 651 305 666 c 0,32,33
 290 680 290 680 220 680 c 1,34,-1
 220 711 l 1,35,-1
 352 711 l 1,3,-1
388 340 m 1,36,-1
 496 340 l 2,37,38
 597 340 597 340 638 362 c 0,39,40
 677 382 677 382 700 419 c 0,41,42
 724 454 724 454 724 512 c 0,43,44
 724 568 724 568 693 607 c 0,45,46
 664 647 664 647 613 665 c 0,47,48
 567 680 567 680 488 680 c 0,49,50
 410 680 410 680 399 666 c 0,51,52
 388 655 388 655 388 636 c 2,53,-1
 388 340 l 1,36,-1
EndSplineSet
Validated: 1
EndChar

StartChar: Sigma
Encoding: 931 931 122
Width: 1024
GlyphClass: 2
Flags: W
LayerCount: 2
Fore
SplineSet
426 695 m 1024,0,-1
790 93 m 1024,1,-1
624 680 m 2,2,-1
 332 680 l 1,3,-1
 568 340 l 1,4,-1
 308 23 l 1,5,-1
 776 23 l 1,6,-1
 776 164 l 1,7,-1
 804 164 l 1,8,-1
 804 -40 l 1,9,-1
 216 -40 l 1,10,-1
 504 308 l 1,11,-1
 228 711 l 1,12,-1
 772 711 l 1,13,-1
 788 524 l 1,14,-1
 760 524 l 1,15,16
 752 574 752 574 734 607 c 0,17,18
 714 645 714 645 690 661 c 0,19,20
 663 680 663 680 624 680 c 2,2,-1
EndSplineSet
Validated: 1
EndChar

StartChar: Tau
Encoding: 932 932 123
Width: 1024
GlyphClass: 2
Flags: W
LayerCount: 2
Fore
SplineSet
508 342 m 1024,0,-1
420 680 m 0,1,2
 362 680 362 680 315 654 c 0,3,4
 252 616 252 616 188 524 c 1,5,-1
 164 524 l 1,6,-1
 208 711 l 1,7,-1
 824 711 l 1,8,-1
 864 524 l 1,9,-1
 840 524 l 1,10,11
 762 621 762 621 702 656 c 0,12,13
 655 680 655 680 596 680 c 0,14,15
 567 680 567 680 555 669 c 0,16,17
 544 660 544 660 544 640 c 2,18,-1
 544 44 l 2,19,20
 544 18 544 18 559 7 c 0,21,22
 585 -8 585 -8 656 -8 c 1,23,-1
 656 -40 l 1,24,-1
 360 -40 l 1,25,-1
 360 -8 l 1,26,27
 424 -8 424 -8 447 3 c 0,28,29
 472 13 472 13 472 44 c 2,30,-1
 472 640 l 2,31,32
 472 655 472 655 461 667 c 0,33,34
 447 680 447 680 420 680 c 0,1,2
EndSplineSet
Validated: 1
EndChar

StartChar: Upsilon
Encoding: 933 933 124
Width: 1024
GlyphClass: 2
Flags: W
LayerCount: 2
Fore
SplineSet
612 -24 m 1024,0,-1
508 -24 m 1024,1,-1
508 272 m 1024,2,-1
368 732 m 256,3,4
 420 732 420 732 460 700 c 0,5,6
 508 667 508 667 524 608 c 1,7,8
 546 674 546 674 593 706 c 0,9,10
 628 732 628 732 672 732 c 0,11,12
 713 732 713 732 752 701 c 0,13,14
 796 665 796 665 812 623 c 1,15,-1
 796 612 l 1,16,17
 776 646 776 646 744 674 c 1,18,19
 710 696 710 696 676 696 c 0,20,21
 617 696 617 696 582 649 c 0,22,23
 544 602 544 602 544 524 c 2,24,-1
 544 20 l 2,25,26
 544 -8 544 -8 577 -8 c 2,27,-1
 648 -8 l 1,28,-1
 648 -40 l 1,29,-1
 368 -40 l 1,30,-1
 368 -8 l 1,31,-1
 440 -8 l 2,32,33
 472 -8 472 -8 472 20 c 2,34,-1
 472 491 l 2,35,36
 472 571 472 571 456 616 c 0,37,38
 443 657 443 657 416 675 c 0,39,40
 388 696 388 696 356 696 c 0,41,42
 322 696 322 696 290 681 c 0,43,44
 260 666 260 666 228 623 c 1,45,-1
 212 636 l 1,46,47
 248 688 248 688 284 707 c 1,48,49
 316 732 316 732 368 732 c 256,3,4
EndSplineSet
Validated: 1
EndChar

StartChar: Phi
Encoding: 934 934 125
Width: 1024
GlyphClass: 2
Flags: W
LayerCount: 2
Fore
SplineSet
408 695 m 1024,0,-1
512 695 m 1024,1,-1
616 -24 m 1024,2,-1
512 -24 m 1024,3,-1
512 639 m 1024,4,-1
512 28 m 1024,5,-1
512 331 m 1024,6,-1
476 619 m 1,7,-1
 476 660 l 2,8,9
 476 680 476 680 436 680 c 2,10,-1
 380 680 l 1,11,-1
 380 711 l 1,12,-1
 644 711 l 1,13,-1
 644 680 l 1,14,-1
 588 680 l 2,15,16
 548 680 548 680 548 660 c 2,17,-1
 548 618 l 1,18,19
 648 613 648 613 712 579 c 0,20,21
 792 539 792 539 824 480 c 1,22,23
 868 411 868 411 868 323 c 256,24,25
 868 235 868 235 824 172 c 0,26,27
 784 111 784 111 696 76 c 0,28,29
 631 50 631 50 548 45 c 1,30,-1
 548 12 l 2,31,32
 548 -8 548 -8 588 -8 c 2,33,-1
 644 -8 l 1,34,-1
 644 -40 l 1,35,-1
 380 -40 l 1,36,-1
 380 -8 l 1,37,-1
 436 -8 l 2,38,39
 476 -8 476 -8 476 12 c 2,40,-1
 476 45 l 1,41,42
 388 49 388 49 324 76 c 0,43,44
 236 115 236 115 196 172 c 0,45,46
 152 235 152 235 152 323 c 256,47,48
 152 411 152 411 193 480 c 0,49,50
 232 539 232 539 308 579 c 0,51,52
 374 614 374 614 476 619 c 1,7,-1
476 68 m 1,53,-1
 476 595 l 1,54,55
 406 591 406 591 361 569 c 0,56,57
 299 536 299 536 263 474 c 0,58,59
 228 407 228 407 228 323 c 0,60,61
 228 249 228 249 262 188 c 0,62,63
 295 131 295 131 357 101 c 0,64,65
 407 74 407 74 476 68 c 1,53,-1
548 595 m 1,66,-1
 548 69 l 1,67,68
 610 76 610 76 656 101 c 0,69,70
 719 130 719 130 754 189 c 0,71,72
 792 248 792 248 792 323 c 0,73,74
 792 407 792 407 757 473 c 1,75,76
 719 535 719 535 659 569 c 0,77,78
 616 590 616 590 548 595 c 1,66,-1
EndSplineSet
Validated: 1
EndChar

StartChar: Chi
Encoding: 935 935 126
Width: 1024
GlyphClass: 2
Flags: W
LayerCount: 2
Fore
SplineSet
176 711 m 1,0,-1
 449 711 l 1,1,-1
 449 680 l 1,2,3
 391 680 391 680 377 677 c 0,4,5
 364 673 364 673 364 663 c 0,6,7
 364 650 364 650 372 640 c 2,8,-1
 523 393 l 1,9,-1
 684 636 l 2,10,11
 692 649 692 649 692 660 c 0,12,13
 692 670 692 670 680 676 c 0,14,15
 677 680 677 680 596 680 c 1,16,-1
 596 711 l 1,17,-1
 852 711 l 1,18,-1
 852 680 l 1,19,20
 794 680 794 680 771 669 c 0,21,22
 741 656 741 656 724 636 c 2,23,-1
 543 362 l 1,24,-1
 748 27 l 1,25,26
 765 10 765 10 790 2 c 0,27,28
 817 -8 817 -8 880 -8 c 1,29,-1
 880 -40 l 1,30,-1
 568 -40 l 1,31,-1
 568 -8 l 1,32,33
 643 -8 643 -8 656 -1 c 0,34,35
 668 6 668 6 668 12 c 0,36,37
 668 24 668 24 660 40 c 2,38,-1
 501 300 l 1,39,-1
 328 40 l 2,40,41
 321 30 321 30 321 12 c 0,42,43
 321 2 321 2 333 -3 c 0,44,45
 342 -8 342 -8 424 -8 c 1,46,-1
 424 -40 l 1,47,-1
 152 -40 l 1,48,-1
 152 -8 l 1,49,50
 210 -8 210 -8 243 4 c 0,51,52
 267 10 267 10 284 32 c 2,53,-1
 481 331 l 1,54,-1
 292 640 l 1,55,56
 274 660 274 660 249 672 c 0,57,58
 229 680 229 680 176 680 c 1,59,-1
 176 711 l 1,0,-1
EndSplineSet
Validated: 1
EndChar

StartChar: Psi
Encoding: 936 936 127
Width: 1024
GlyphClass: 2
Flags: W
LayerCount: 2
Fore
SplineSet
520 695 m 1024,0,-1
420 695 m 1024,1,-1
626 -24 m 1024,2,-1
512 -24 m 1024,3,-1
512 84 m 1024,4,-1
512 414 m 1024,5,-1
392 711 m 1,6,-1
 648 711 l 1,7,-1
 648 680 l 1,8,-1
 577 680 l 2,9,10
 548 680 548 680 548 652 c 2,11,-1
 548 177 l 1,12,13
 593 180 593 180 618 192 c 0,14,15
 660 215 660 215 679 262 c 0,16,17
 696 314 696 314 696 424 c 1,18,-1
 708 596 l 1,19,20
 708 672 708 672 734 694 c 0,21,22
 755 716 755 716 796 716 c 2,23,-1
 872 716 l 1,24,-1
 872 688 l 1,25,26
 814 688 814 688 793 667 c 0,27,28
 772 647 772 647 772 596 c 2,29,-1
 764 424 l 1,30,31
 764 331 764 331 740 268 c 0,32,33
 717 208 717 208 657 177 c 0,34,35
 615 153 615 153 548 148 c 1,36,-1
 548 20 l 2,37,38
 548 -8 548 -8 577 -8 c 2,39,-1
 676 -8 l 1,40,-1
 676 -40 l 1,41,-1
 348 -40 l 1,42,-1
 348 -8 l 1,43,-1
 449 -8 l 2,44,45
 476 -8 476 -8 476 20 c 2,46,-1
 476 149 l 1,47,48
 409 154 409 154 367 177 c 0,49,50
 305 208 305 208 280 268 c 0,51,52
 256 331 256 331 256 424 c 1,53,-1
 248 596 l 2,54,55
 248 647 248 647 227 667 c 0,56,57
 208 688 208 688 152 688 c 1,58,-1
 152 716 l 1,59,-1
 228 716 l 2,60,61
 266 716 266 716 287 694 c 0,62,63
 312 672 312 672 312 596 c 1,64,-1
 324 424 l 1,65,66
 324 314 324 314 342 262 c 0,67,68
 360 215 360 215 407 192 c 0,69,70
 431 180 431 180 476 177 c 1,71,-1
 476 652 l 2,72,73
 476 680 476 680 449 680 c 2,74,-1
 392 680 l 1,75,-1
 392 711 l 1,6,-1
EndSplineSet
Validated: 1
EndChar

StartChar: uni03A9
Encoding: 937 937 128
Width: 1024
GlyphClass: 2
Flags: W
LayerCount: 2
Fore
SplineSet
800 65 m 1024,0,-1
220 35 m 1024,1,-1
512 732 m 0,2,3
 618 732 618 732 677 701 c 0,4,5
 746 669 746 669 790 610 c 0,6,7
 844 538 844 538 844 432 c 0,8,9
 844 351 844 351 788 238 c 1,10,11
 729 131 729 131 624 20 c 1,12,-1
 784 20 l 1,13,-1
 784 111 l 1,14,-1
 816 111 l 1,15,-1
 816 -40 l 1,16,-1
 600 -40 l 1,17,-1
 600 20 l 1,18,19
 684 131 684 131 731 238 c 1,20,21
 776 351 776 351 776 432 c 0,22,23
 776 524 776 524 733 586 c 0,24,25
 698 638 698 638 643 665 c 1,26,27
 599 692 599 692 512 692 c 0,28,29
 438 692 438 692 381 665 c 0,30,31
 319 638 319 638 286 586 c 0,32,33
 244 524 244 524 244 432 c 0,34,35
 244 351 244 351 292 238 c 0,36,37
 338 131 338 131 424 20 c 1,38,-1
 424 -40 l 1,39,-1
 204 -40 l 1,40,-1
 204 111 l 1,41,-1
 236 111 l 1,42,-1
 236 20 l 1,43,-1
 400 20 l 1,44,45
 293 131 293 131 236 238 c 0,46,47
 176 351 176 351 176 432 c 0,48,49
 176 538 176 538 228 610 c 0,50,51
 270 669 270 669 348 701 c 0,52,53
 420 732 420 732 512 732 c 0,2,3
EndSplineSet
Validated: 1
EndChar

StartChar: alpha
Encoding: 945 945 129
Width: 1024
GlyphClass: 2
Flags: W
LayerCount: 2
Fore
SplineSet
540 491 m 0,0,1
 588 491 588 491 620 451 c 0,2,3
 648 416 648 416 648 323 c 2,4,-1
 646 241 l 1,5,-1
 662 277 l 2,6,7
 695 355 695 355 713 454 c 0,8,9
 716 491 716 491 760 491 c 0,10,11
 773 491 773 491 781 487 c 0,12,13
 788 482 788 482 788 476 c 0,14,15
 788 468 788 468 754 394 c 0,16,17
 695 261 695 261 644 179 c 1,18,-1
 640 32 l 2,19,20
 640 13 640 13 647 3 c 0,21,22
 655 -8 655 -8 672 -8 c 0,23,24
 685 -8 685 -8 707 10 c 0,25,26
 736 34 736 34 768 88 c 1,27,-1
 788 76 l 1,28,29
 761 18 761 18 718 -21 c 0,30,31
 684 -48 684 -48 652 -48 c 0,32,33
 631 -48 631 -48 616 -37 c 0,34,35
 604 -27 604 -27 598 -6 c 0,36,37
 592 20 592 20 592 67 c 2,38,-1
 594 107 l 1,39,40
 524 16 524 16 463 -20 c 0,41,42
 414 -48 414 -48 368 -48 c 1,43,44
 328 -44 328 -44 300 -32 c 0,45,46
 264 -13 264 -13 248 20 c 0,47,48
 228 60 228 60 228 115 c 0,49,50
 228 176 228 176 252 248 c 1,51,52
 288 332 288 332 344 392 c 0,53,54
 388 444 388 444 460 476 c 0,55,56
 500 491 500 491 540 491 c 0,0,1
596 151 m 1,57,-1
 604 352 l 2,58,59
 604 416 604 416 583 442 c 0,60,61
 561 464 561 464 540 464 c 0,62,63
 508 464 508 464 472 446 c 0,64,65
 436 429 436 429 383 363 c 0,66,67
 340 314 340 314 312 240 c 0,68,69
 284 173 284 173 284 115 c 0,70,71
 284 54 284 54 309 23 c 1,72,73
 340 -8 340 -8 384 -8 c 0,74,75
 425 -8 425 -8 468 17 c 0,76,77
 516 47 516 47 578 129 c 2,78,-1
 596 151 l 1,57,-1
EndSplineSet
Validated: 1
EndChar

StartChar: beta
Encoding: 946 946 130
Width: 1024
GlyphClass: 2
Flags: W
LayerCount: 2
Fore
SplineSet
656 720 m 0,0,1
 716 720 716 720 764 680 c 1,2,3
 812 632 812 632 812 552 c 1,4,5
 808 484 808 484 772 436 c 1,6,7
 736 380 736 380 664 344 c 1,8,9
 716 316 716 316 740 276 c 0,10,11
 764 232 764 232 764 184 c 0,12,13
 760 120 760 120 728 60 c 0,14,15
 700 12 700 12 652 -21 c 0,16,17
 608 -48 608 -48 540 -48 c 0,18,19
 480 -48 480 -48 424 -8 c 0,20,21
 380 19 380 19 336 83 c 1,22,23
 304 -54 304 -54 296 -132 c 0,24,25
 291 -181 291 -181 281 -189 c 0,26,27
 270 -200 270 -200 236 -200 c 0,28,29
 220 -200 220 -200 212 -189 c 1,30,-1
 208 -168 l 2,31,32
 208 -160 208 -160 224 -124 c 256,33,34
 240 -88 240 -88 360 316 c 0,35,36
 449 604 449 604 512 663 c 0,37,38
 572 720 572 720 656 720 c 0,0,1
343 114 m 1,39,40
 390 53 390 53 422 33 c 0,41,42
 464 8 464 8 508 8 c 0,43,44
 562 8 562 8 602 32 c 0,45,46
 644 57 644 57 670 100 c 0,47,48
 700 149 700 149 700 208 c 0,49,50
 700 269 700 269 667 311 c 0,51,52
 653 327 653 327 640 327 c 0,53,54
 632 327 632 327 624 324 c 0,55,56
 598 312 598 312 560 312 c 0,57,58
 516 312 516 312 487 332 c 0,59,60
 464 346 464 346 464 360 c 0,61,62
 464 368 464 368 477 378 c 0,63,64
 489 388 489 388 520 388 c 0,65,66
 565 388 565 388 616 367 c 1,67,68
 705 406 705 406 738 449 c 0,69,70
 776 495 776 495 776 548 c 0,71,72
 776 600 776 600 741 634 c 0,73,74
 709 667 709 667 648 667 c 0,75,76
 593 667 593 667 551 637 c 0,77,78
 509 608 509 608 479 552 c 0,79,80
 439 480 439 480 376 242 c 2,81,-1
 343 114 l 1,39,40
EndSplineSet
Validated: 1
EndChar

StartChar: gamma
Encoding: 947 947 131
Width: 1024
GlyphClass: 2
Flags: W
LayerCount: 2
Fore
SplineSet
392 484 m 0,0,1
 424 484 424 484 452 464 c 0,2,3
 488 440 488 440 504 388 c 0,4,5
 520 332 520 332 520 252 c 1,6,7
 594 385 594 385 664 441 c 0,8,9
 726 491 726 491 744 491 c 0,10,11
 760 491 760 491 760 472 c 0,12,13
 760 417 760 417 706 405 c 0,14,15
 656 394 656 394 626 365 c 1,16,17
 590 337 590 337 520 222 c 1,18,19
 517 89 517 89 487 -15 c 0,20,21
 463 -112 463 -112 424 -175 c 0,22,23
 409 -200 409 -200 392 -200 c 0,24,25
 385 -200 385 -200 377 -193 c 0,26,27
 372 -186 372 -186 372 -172 c 0,28,29
 372 -119 372 -119 408 -15 c 0,30,31
 456 128 456 128 504 216 c 1,32,33
 494 318 494 318 472 357 c 0,34,35
 454 390 454 390 430 405 c 0,36,37
 413 420 413 420 384 420 c 0,38,39
 354 420 354 420 331 404 c 0,40,41
 306 388 306 388 294 346 c 0,42,43
 284 308 284 308 284 252 c 1,44,-1
 264 252 l 1,45,46
 256 312 256 312 268 356 c 0,47,48
 280 416 280 416 316 451 c 0,49,50
 352 484 352 484 392 484 c 0,0,1
EndSplineSet
Validated: 33
EndChar

StartChar: delta
Encoding: 948 948 132
Width: 1024
GlyphClass: 2
Flags: W
LayerCount: 2
Fore
SplineSet
552 720 m 0,0,1
 584 720 584 720 636 703 c 0,2,3
 705 684 705 684 744 652 c 0,4,5
 764 636 764 636 780 612 c 0,6,7
 792 588 792 588 796 568 c 0,8,9
 796 556 796 556 784 556 c 256,10,11
 772 556 772 556 746 574 c 0,12,13
 683 626 683 626 629 652 c 0,14,15
 573 680 573 680 540 680 c 0,16,17
 509 680 509 680 495 664 c 1,18,19
 480 653 480 653 480 636 c 0,20,21
 480 615 480 615 498 591 c 0,22,23
 523 555 523 555 587 487 c 0,24,25
 674 397 674 397 698 344 c 0,26,27
 724 288 724 288 724 235 c 256,28,29
 724 182 724 182 699 124 c 0,30,31
 672 57 672 57 636 20 c 0,32,33
 597 -16 597 -16 556 -32 c 0,34,35
 517 -48 517 -48 464 -48 c 0,36,37
 420 -48 420 -48 384 -36 c 0,38,39
 348 -21 348 -21 321 4 c 0,40,41
 292 36 292 36 276 71 c 0,42,43
 260 107 260 107 260 160 c 0,44,45
 264 235 264 235 304 308 c 0,46,47
 340 380 340 380 396 411 c 0,48,49
 452 444 452 444 508 444 c 0,50,51
 568 444 568 444 624 411 c 1,52,53
 540 491 540 491 492 552 c 0,54,55
 449 608 449 608 449 648 c 0,56,57
 449 720 449 720 552 720 c 0,0,1
460 -21 m 0,58,59
 499 -21 499 -21 548 16 c 0,60,61
 596 55 596 55 632 137 c 0,62,63
 664 206 664 206 664 264 c 0,64,65
 664 312 664 312 647 347 c 0,66,67
 628 383 628 383 601 398 c 0,68,69
 567 416 567 416 532 416 c 0,70,71
 482 416 482 416 445 392 c 0,72,73
 409 370 409 370 386 333 c 0,74,75
 358 293 358 293 343 238 c 0,76,77
 324 181 324 181 324 144 c 0,78,79
 324 72 324 72 362 20 c 0,80,81
 395 -21 395 -21 460 -21 c 0,58,59
EndSplineSet
Validated: 1
EndChar

StartChar: epsilon
Encoding: 949 949 133
Width: 1024
GlyphClass: 2
Flags: W
LayerCount: 2
Fore
SplineSet
564 464 m 0,0,1
 530 464 530 464 503 449 c 0,2,3
 472 433 472 433 456 406 c 0,4,5
 432 371 432 371 432 344 c 0,6,7
 432 310 432 310 451 284 c 1,8,9
 465 272 465 272 468 272 c 0,10,11
 525 288 525 288 592 288 c 0,12,13
 620 288 620 288 634 278 c 0,14,15
 644 272 644 272 644 260 c 0,16,17
 644 251 644 251 622 242 c 0,18,19
 594 232 594 232 540 232 c 0,20,21
 497 232 497 232 456 252 c 1,22,23
 416 229 416 229 384 184 c 0,24,25
 364 150 364 150 364 107 c 256,26,27
 364 64 364 64 397 32 c 0,28,29
 429 -4 429 -4 484 -4 c 0,30,31
 541 -4 541 -4 593 17 c 0,32,33
 639 37 639 37 692 96 c 1,34,-1
 705 76 l 1,35,36
 652 16 652 16 584 -21 c 1,37,38
 520 -48 520 -48 456 -48 c 0,39,40
 376 -48 376 -48 336 -8 c 0,41,42
 300 32 300 32 300 92 c 0,43,44
 300 140 300 140 336 188 c 0,45,46
 372 232 372 232 436 260 c 1,47,48
 404 276 404 276 392 296 c 0,49,50
 376 323 376 323 376 352 c 0,51,52
 376 388 376 388 396 420 c 0,53,54
 416 451 416 451 452 472 c 0,55,56
 492 491 492 491 540 491 c 0,57,58
 656 491 656 491 728 392 c 1,59,-1
 708 376 l 1,60,61
 671 427 671 427 637 444 c 0,62,63
 604 464 604 464 564 464 c 0,0,1
EndSplineSet
Validated: 1
EndChar

StartChar: zeta
Encoding: 950 950 134
Width: 1024
GlyphClass: 2
Flags: W
LayerCount: 2
Fore
SplineSet
488 720 m 1,0,-1
 496 707 l 1,1,2
 440 660 440 660 440 612 c 0,3,4
 440 579 440 579 460 560 c 0,5,6
 482 539 482 539 532 539 c 1,7,8
 600 600 600 600 671 634 c 0,9,10
 734 667 734 667 780 667 c 0,11,12
 800 667 800 667 800 648 c 0,13,14
 800 633 800 633 780 613 c 0,15,16
 751 583 751 583 698 560 c 0,17,18
 627 524 627 524 544 516 c 1,19,20
 453 437 453 437 403 360 c 0,21,22
 364 296 364 296 345 235 c 0,23,24
 328 181 328 181 328 128 c 0,25,26
 328 91 328 91 348 65 c 1,27,28
 372 41 372 41 460 18 c 0,29,30
 538 -1 538 -1 558 -26 c 1,31,32
 584 -51 584 -51 584 -96 c 256,33,34
 584 -141 584 -141 552 -164 c 1,35,36
 512 -200 512 -200 416 -200 c 0,37,38
 347 -199 347 -199 321 -182 c 0,39,40
 300 -171 300 -171 300 -149 c 0,41,42
 301 -135 301 -135 309 -127 c 0,43,44
 317 -120 317 -120 332 -120 c 256,45,46
 347 -120 347 -120 386 -143 c 0,47,48
 418 -160 418 -160 460 -160 c 0,49,50
 497 -160 497 -160 516 -143 c 0,51,52
 532 -131 532 -131 532 -105 c 0,53,54
 532 -87 532 -87 518 -77 c 0,55,56
 503 -63 503 -63 428 -45 c 0,57,58
 333 -22 333 -22 298 16 c 0,59,60
 268 52 268 52 268 115 c 0,61,62
 268 164 268 164 288 220 c 0,63,64
 312 283 312 283 352 348 c 1,65,66
 408 428 408 428 504 516 c 1,67,68
 432 516 432 516 404 539 c 1,69,70
 380 564 380 564 380 596 c 0,71,72
 380 627 380 627 400 656 c 0,73,74
 424 700 424 700 488 720 c 1,0,-1
EndSplineSet
Validated: 1
EndChar

StartChar: eta
Encoding: 951 951 135
Width: 1024
GlyphClass: 2
Flags: W
LayerCount: 2
Fore
SplineSet
392 491 m 0,0,1
 452 491 452 491 440 356 c 1,2,3
 468 420 468 420 516 455 c 0,4,5
 564 491 564 491 616 491 c 256,6,7
 668 491 668 491 705 455 c 0,8,9
 736 428 736 428 736 380 c 0,10,11
 736 336 736 336 684 188 c 0,12,13
 628 16 628 16 616 -80 c 0,14,15
 604 -185 604 -185 592 -189 c 0,16,17
 577 -200 577 -200 544 -200 c 0,18,19
 520 -200 520 -200 520 -180 c 0,20,21
 520 -167 520 -167 575 -1 c 1,22,-1
 638 174 l 1,23,24
 696 322 696 322 696 380 c 0,25,26
 696 423 696 423 678 441 c 0,27,28
 653 464 653 464 616 464 c 0,29,30
 581 464 581 464 555 446 c 0,31,32
 532 432 532 432 508 392 c 0,33,34
 477 341 477 341 428 184 c 0,35,36
 360 -32 360 -32 344 -40 c 0,37,38
 328 -44 328 -44 304 -44 c 0,39,40
 292 -44 292 -44 292 -28 c 0,41,42
 292 -23 292 -23 328 64 c 0,43,44
 376 182 376 182 408 292 c 0,45,46
 419 338 419 338 419 382 c 0,47,48
 419 418 419 418 410 436 c 1,49,50
 398 451 398 451 380 451 c 0,51,52
 358 451 358 451 333 427 c 0,53,54
 312 407 312 407 292 367 c 1,55,-1
 276 380 l 1,56,57
 328 491 328 491 392 491 c 0,0,1
EndSplineSet
Validated: 33
EndChar

StartChar: theta
Encoding: 952 952 136
Width: 1024
GlyphClass: 2
Flags: W
LayerCount: 2
Fore
SplineSet
511 343 m 1024,0,-1
616 720 m 0,1,2
 688 720 688 720 724 676 c 0,3,4
 776 619 776 619 776 516 c 0,5,6
 776 388 776 388 724 264 c 0,7,8
 668 120 668 120 584 32 c 0,9,10
 504 -48 504 -48 416 -48 c 0,11,12
 332 -48 332 -48 284 20 c 0,13,14
 244 71 244 71 244 172 c 0,15,16
 244 296 244 296 300 432 c 0,17,18
 360 575 360 575 444 644 c 1,19,20
 528 720 528 720 616 720 c 0,1,2
412 -24 m 0,21,22
 463 -24 463 -24 511 27 c 0,23,24
 595 110 595 110 653 280 c 2,25,-1
 669 327 l 1,26,-1
 343 327 l 1,27,28
 308 210 308 210 308 115 c 0,29,30
 308 46 308 46 331 12 c 0,31,32
 358 -24 358 -24 412 -24 c 0,21,22
353 360 m 1,33,-1
 679 360 l 1,34,35
 712 479 712 479 712 572 c 0,36,37
 712 634 712 634 690 664 c 0,38,39
 666 696 666 696 616 696 c 0,40,41
 563 696 563 696 514 648 c 0,42,43
 428 564 428 564 369 401 c 1,44,-1
 353 360 l 1,33,-1
EndSplineSet
Validated: 1
EndChar

StartChar: iota
Encoding: 953 953 137
Width: 1024
GlyphClass: 2
Flags: W
LayerCount: 2
Fore
SplineSet
577 491 m 0,0,1
 612 491 612 491 612 476 c 0,2,3
 612 466 612 466 516 268 c 0,4,5
 440 113 440 113 440 60 c 0,6,7
 440 36 440 36 453 20 c 0,8,9
 472 4 472 4 496 4 c 0,10,11
 525 4 525 4 558 28 c 0,12,13
 593 54 593 54 616 96 c 1,14,-1
 632 88 l 1,15,16
 620 32 620 32 577 -13 c 0,17,18
 540 -48 540 -48 488 -48 c 0,19,20
 452 -48 452 -48 428 -28 c 1,21,22
 404 0 404 0 404 40 c 0,23,24
 404 100 404 100 468 296 c 0,25,26
 520 464 520 464 532 468 c 1,27,28
 544 491 544 491 577 491 c 0,0,1
EndSplineSet
Validated: 1
EndChar

StartChar: kappa
Encoding: 954 954 138
Width: 1024
GlyphClass: 2
Flags: W
LayerCount: 2
Fore
SplineSet
544 130 m 1024,0,-1
428 491 m 0,1,2
 449 491 449 491 449 476 c 0,3,4
 449 468 449 468 417 375 c 0,5,6
 397 322 397 322 376 249 c 1,7,8
 442 330 442 330 528 396 c 0,9,10
 588 444 588 444 632 468 c 1,11,12
 688 491 688 491 720 491 c 0,13,14
 736 491 736 491 736 476 c 0,15,16
 736 456 736 456 727 431 c 0,17,18
 723 417 723 417 672 406 c 0,19,20
 627 396 627 396 564 364 c 0,21,22
 503 333 503 333 428 272 c 1,23,24
 449 288 449 288 484 288 c 0,25,26
 520 288 520 288 548 260 c 1,27,28
 572 228 572 228 572 172 c 2,29,-1
 572 88 l 2,30,31
 572 40 572 40 588 17 c 0,32,33
 602 0 602 0 624 0 c 0,34,35
 650 0 650 0 682 26 c 0,36,37
 717 57 717 57 740 124 c 1,38,-1
 760 115 l 1,39,40
 728 23 728 23 684 -17 c 0,41,42
 648 -48 648 -48 600 -48 c 0,43,44
 563 -48 563 -48 539 -11 c 0,45,46
 516 21 516 21 516 88 c 2,47,-1
 516 176 l 2,48,49
 516 231 516 231 498 250 c 0,50,51
 482 268 482 268 456 268 c 0,52,53
 441 268 441 268 426 259 c 0,54,55
 397 242 397 242 364 199 c 1,56,-1
 367 216 l 1,57,58
 348 148 348 148 329 64 c 0,59,60
 307 -28 307 -28 299 -32 c 0,61,62
 289 -40 289 -40 264 -40 c 0,63,64
 244 -40 244 -40 244 -28 c 0,65,66
 244 -21 244 -21 260 24 c 0,67,68
 297 132 297 132 341 307 c 0,69,70
 383 479 383 479 391 483 c 0,71,72
 400 491 400 491 428 491 c 0,1,2
EndSplineSet
Validated: 1
EndChar

StartChar: lambda
Encoding: 955 955 139
Width: 1024
GlyphClass: 2
Flags: W
LayerCount: 2
Fore
SplineSet
449 720 m 0,0,1
 506 720 506 720 549 666 c 0,2,3
 582 630 582 630 591 534 c 2,4,-1
 604 371 l 2,5,6
 611 265 611 265 620 154 c 0,7,8
 625 75 625 75 644 43 c 0,9,10
 657 20 657 20 684 20 c 0,11,12
 697 20 697 20 713 23 c 1,13,14
 729 32 729 32 744 32 c 0,15,16
 784 32 784 32 784 -4 c 0,17,18
 784 -48 784 -48 720 -48 c 0,19,20
 687 -48 687 -48 654 -26 c 1,21,22
 618 4 618 4 601 48 c 0,23,24
 586 92 586 92 583 163 c 2,25,-1
 569 346 l 1,26,27
 446 162 446 162 396 55 c 0,28,29
 349 -44 349 -44 308 -44 c 0,30,31
 280 -44 280 -44 280 -24 c 0,32,33
 280 -9 280 -9 563 429 c 1,34,-1
 554 538 l 2,35,36
 549 614 549 614 527 646 c 0,37,38
 506 680 506 680 476 680 c 0,39,40
 456 680 456 680 440 657 c 0,41,42
 423 632 423 632 400 632 c 0,43,44
 368 632 368 632 368 667 c 0,45,46
 368 690 368 690 391 704 c 0,47,48
 416 720 416 720 449 720 c 0,0,1
EndSplineSet
Validated: 1
EndChar

StartChar: nu
Encoding: 957 957 140
Width: 1024
GlyphClass: 2
Flags: W
LayerCount: 2
Fore
SplineSet
352 491 m 0,0,1
 384 491 384 491 406 451 c 0,2,3
 428 414 428 414 428 323 c 0,4,5
 428 212 428 212 360 48 c 1,6,7
 380 48 380 48 445 79 c 0,8,9
 544 124 544 124 608 193 c 0,10,11
 656 243 656 243 679 305 c 0,12,13
 700 361 700 361 700 428 c 2,14,-1
 700 468 l 1,15,-1
 716 468 l 1,16,17
 728 440 728 440 724 396 c 1,18,19
 724 296 724 296 680 216 c 0,20,21
 632 124 632 124 544 60 c 0,22,23
 472 12 472 12 376 -28 c 1,24,25
 312 -48 312 -48 300 -48 c 0,26,27
 280 -48 280 -48 280 -28 c 0,28,29
 280 -17 280 -17 313 37 c 0,30,31
 351 100 351 100 370 157 c 0,32,33
 396 233 396 233 396 312 c 0,34,35
 396 366 396 366 380 395 c 0,36,37
 361 432 361 432 332 432 c 0,38,39
 311 432 311 432 296 428 c 1,40,-1
 280 444 l 1,41,42
 309 491 309 491 352 491 c 0,0,1
EndSplineSet
Validated: 33
EndChar

StartChar: xi
Encoding: 958 958 141
Width: 1024
GlyphClass: 2
Flags: W
LayerCount: 2
Fore
SplineSet
520 720 m 1,0,-1
 528 703 l 1,1,2
 464 687 464 687 446 661 c 1,3,4
 428 645 428 645 428 619 c 0,5,6
 428 598 428 598 446 582 c 1,7,8
 470 568 470 568 504 568 c 1,9,10
 604 618 604 618 668 637 c 0,11,12
 728 656 728 656 772 656 c 0,13,14
 800 656 800 656 800 636 c 0,15,16
 800 617 800 617 776 605 c 1,17,18
 745 583 745 583 694 571 c 0,19,20
 615 552 615 552 512 548 c 1,21,22
 464 512 464 512 444 468 c 0,23,24
 424 430 424 430 424 384 c 0,25,26
 424 354 424 354 443 323 c 0,27,28
 469 283 469 283 496 283 c 1,29,30
 539 304 539 304 605 323 c 0,31,32
 660 339 660 339 696 340 c 0,33,34
 714 340 714 340 726 332 c 0,35,36
 736 323 736 323 736 316 c 0,37,38
 736 302 736 302 720 292 c 0,39,40
 705 279 705 279 669 270 c 0,41,42
 622 260 622 260 560 260 c 0,43,44
 523 260 523 260 500 264 c 1,45,46
 402 217 402 217 361 169 c 0,47,48
 328 127 328 127 328 92 c 0,49,50
 328 59 328 59 352 40 c 0,51,52
 367 26 367 26 455 10 c 0,53,54
 524 -3 524 -3 552 -26 c 0,55,56
 584 -53 584 -53 584 -96 c 0,57,58
 588 -149 588 -149 540 -176 c 0,59,60
 500 -200 500 -200 440 -200 c 0,61,62
 372 -196 372 -196 332 -185 c 1,63,64
 304 -172 304 -172 304 -152 c 0,65,66
 305 -142 305 -142 311 -133 c 0,67,68
 321 -124 321 -124 332 -124 c 0,69,70
 347 -124 347 -124 382 -134 c 0,71,72
 434 -149 434 -149 480 -149 c 0,73,74
 520 -149 520 -149 538 -136 c 0,75,76
 556 -125 556 -125 556 -105 c 0,77,78
 557 -71 557 -71 458 -49 c 0,79,80
 326 -25 326 -25 294 10 c 0,81,82
 273 36 273 36 272 71 c 0,83,84
 272 120 272 120 312 172 c 0,85,86
 352 220 352 220 464 272 c 1,87,88
 424 279 424 279 396 308 c 1,89,90
 368 344 368 344 368 384 c 256,91,92
 368 424 368 424 392 464 c 0,93,94
 416 508 416 508 480 548 c 1,95,96
 416 556 416 556 392 579 c 0,97,98
 376 596 376 596 376 619 c 0,99,100
 376 652 376 652 408 684 c 0,101,102
 436 711 436 711 520 720 c 1,0,-1
EndSplineSet
Validated: 33
EndChar

StartChar: omicron
Encoding: 959 959 142
Width: 1024
GlyphClass: 2
Flags: W
LayerCount: 2
Fore
SplineSet
564 491 m 0,0,1
 640 491 640 491 688 436 c 0,2,3
 736 376 736 376 736 296 c 0,4,5
 736 204 736 204 696 124 c 0,6,7
 656 36 656 36 596 0 c 0,8,9
 520 -48 520 -48 452 -48 c 0,10,11
 360 -48 360 -48 316 12 c 0,12,13
 276 63 276 63 276 148 c 0,14,15
 276 235 276 235 316 316 c 0,16,17
 356 400 356 400 428 447 c 1,18,19
 484 491 484 491 564 491 c 0,0,1
452 -24 m 256,20,21
 505 -24 505 -24 548 11 c 0,22,23
 601 53 601 53 634 127 c 0,24,25
 676 213 676 213 676 312 c 0,26,27
 676 394 676 394 647 433 c 1,28,29
 614 468 614 468 564 468 c 0,30,31
 510 468 510 468 466 433 c 0,32,33
 412 391 412 391 378 316 c 0,34,35
 336 229 336 229 336 128 c 0,36,37
 336 48 336 48 366 11 c 0,38,39
 399 -24 399 -24 452 -24 c 256,20,21
EndSplineSet
Validated: 1
EndChar

StartChar: pi
Encoding: 960 960 143
Width: 1024
GlyphClass: 2
Flags: W
LayerCount: 2
Fore
SplineSet
780 491 m 0,0,1
 792 491 792 491 792 468 c 0,2,3
 792 455 792 455 774 433 c 0,4,5
 761 416 761 416 720 416 c 2,6,-1
 654 416 l 1,7,8
 544 124 544 124 544 63 c 0,9,10
 544 8 544 8 596 8 c 0,11,12
 639 8 639 8 680 67 c 1,13,-1
 696 60 l 1,14,15
 672 11 672 11 633 -19 c 0,16,17
 597 -48 597 -48 556 -48 c 0,18,19
 496 -48 496 -48 496 20 c 0,20,21
 496 86 496 86 623 416 c 1,22,-1
 474 416 l 1,23,24
 391 193 391 193 332 -7 c 0,25,26
 321 -44 321 -44 280 -44 c 0,27,28
 232 -44 232 -44 232 -21 c 0,29,30
 232 -3 232 -3 249 20 c 0,31,32
 339 141 339 141 446 416 c 1,33,-1
 408 416 l 2,34,35
 332 416 332 416 272 352 c 1,36,-1
 260 360 l 1,37,38
 288 414 288 414 321 438 c 0,39,40
 358 464 358 464 424 464 c 0,41,42
 712 464 712 464 746 477 c 0,43,44
 773 491 773 491 780 491 c 0,0,1
EndSplineSet
Validated: 1
EndChar

StartChar: rho
Encoding: 961 961 144
Width: 1024
GlyphClass: 2
Flags: W
LayerCount: 2
Fore
SplineSet
600 491 m 0,0,1
 644 491 644 491 688 472 c 0,2,3
 736 447 736 447 756 404 c 0,4,5
 780 356 780 356 780 283 c 0,6,7
 780 219 780 219 759 164 c 0,8,9
 735 97 735 97 691 43 c 0,10,11
 650 -5 650 -5 603 -26 c 1,12,13
 564 -48 564 -48 504 -48 c 0,14,15
 452 -48 452 -48 424 -32 c 0,16,17
 392 -13 392 -13 376 8 c 0,18,19
 340 52 340 52 332 124 c 1,20,21
 306 1 306 1 304 -106 c 0,22,23
 304 -180 304 -180 294 -191 c 0,24,25
 284 -200 284 -200 252 -200 c 0,26,27
 244 -200 244 -200 240 -197 c 256,28,29
 236 -194 236 -194 236 -180 c 0,30,31
 236 -132 236 -132 302 124 c 0,32,33
 346 294 346 294 392 371 c 0,34,35
 424 420 424 420 480 455 c 0,36,37
 536 491 536 491 600 491 c 0,0,1
496 -21 m 0,38,39
 534 -21 534 -21 567 0 c 0,40,41
 610 24 610 24 635 59 c 0,42,43
 680 115 680 115 698 182 c 1,44,45
 724 259 724 259 724 308 c 0,46,47
 724 360 724 360 707 398 c 256,48,49
 690 436 690 436 662 451 c 0,50,51
 631 468 631 468 600 468 c 0,52,53
 562 468 562 468 529 449 c 0,54,55
 487 420 487 420 459 382 c 0,56,57
 420 325 420 325 397 248 c 0,58,59
 376 176 376 176 376 124 c 256,60,61
 376 72 376 72 392 36 c 0,62,63
 404 11 404 11 428 -4 c 0,64,65
 459 -21 459 -21 496 -21 c 0,38,39
EndSplineSet
Validated: 1
EndChar

StartChar: sigma
Encoding: 963 963 145
Width: 1024
GlyphClass: 2
Flags: W
LayerCount: 2
Fore
SplineSet
532 476 m 2,0,-1
 656 476 l 2,1,2
 709 476 709 476 744 482 c 1,3,4
 772 491 772 491 784 491 c 0,5,6
 792 491 792 491 792 476 c 0,7,8
 792 468 792 468 779 447 c 0,9,10
 766 428 766 428 736 428 c 2,11,-1
 640 428 l 1,12,13
 666 402 666 402 676 366 c 0,14,15
 688 332 688 332 688 283 c 0,16,17
 688 224 688 224 665 152 c 1,18,19
 640 89 640 89 595 40 c 0,20,21
 559 0 559 0 506 -26 c 0,22,23
 456 -48 456 -48 412 -48 c 0,24,25
 354 -48 354 -48 307 -20 c 0,26,27
 268 2 268 2 247 48 c 0,28,29
 224 94 224 94 224 148 c 256,30,31
 224 202 224 202 236 249 c 0,32,33
 253 305 253 305 288 354 c 0,34,35
 324 409 324 409 374 438 c 0,36,37
 431 476 431 476 532 476 c 2,0,-1
412 -24 m 0,38,39
 433 -24 433 -24 461 -9 c 0,40,41
 496 13 496 13 523 45 c 0,42,43
 570 99 570 99 597 169 c 0,44,45
 632 256 632 256 632 316 c 0,46,47
 632 363 632 363 618 391 c 0,48,49
 603 420 603 420 572 435 c 0,50,51
 543 451 543 451 512 451 c 0,52,53
 468 451 468 451 430 426 c 0,54,55
 391 402 391 402 352 346 c 0,56,57
 317 295 317 295 299 235 c 0,58,59
 284 183 284 183 284 115 c 0,60,61
 284 77 284 77 302 36 c 0,62,63
 314 9 314 9 340 -6 c 0,64,65
 371 -24 371 -24 412 -24 c 0,38,39
EndSplineSet
Validated: 1
EndChar

StartChar: tau
Encoding: 964 964 146
Width: 1024
GlyphClass: 2
Flags: W
LayerCount: 2
Fore
SplineSet
724 491 m 0,0,1
 736 491 736 491 736 484 c 0,2,3
 736 449 736 449 722 431 c 0,4,5
 706 416 706 416 676 416 c 2,6,-1
 540 416 l 1,7,8
 440 143 440 143 440 71 c 0,9,10
 440 8 440 8 496 8 c 0,11,12
 556 8 556 8 612 92 c 1,13,-1
 624 84 l 1,14,15
 603 35 603 35 561 -8 c 0,16,17
 519 -48 519 -48 476 -48 c 0,18,19
 440 -48 440 -48 415 -20 c 0,20,21
 392 8 392 8 392 56 c 0,22,23
 392 129 392 129 510 416 c 1,24,-1
 476 416 l 2,25,26
 360 416 360 416 296 363 c 1,27,-1
 288 371 l 1,28,29
 308 408 308 408 352 438 c 0,30,31
 391 464 391 464 472 464 c 0,32,33
 633 464 633 464 677 473 c 1,34,35
 715 491 715 491 724 491 c 0,0,1
EndSplineSet
Validated: 1
EndChar

StartChar: upsilon
Encoding: 965 965 147
Width: 1024
GlyphClass: 2
Flags: W
LayerCount: 2
Fore
SplineSet
360 491 m 0,0,1
 384 491 384 491 407 465 c 0,2,3
 428 435 428 435 428 384 c 0,4,5
 428 338 428 338 367 222 c 1,6,7
 324 127 324 127 324 84 c 0,8,9
 324 43 324 43 352 14 c 0,10,11
 378 -13 378 -13 420 -13 c 0,12,13
 466 -13 466 -13 518 27 c 0,14,15
 578 71 578 71 615 152 c 0,16,17
 652 232 652 232 652 332 c 0,18,19
 652 407 652 407 632 472 c 1,20,-1
 644 476 l 1,21,22
 688 432 688 432 700 388 c 0,23,24
 712 340 712 340 712 283 c 0,25,26
 712 195 712 195 664 111 c 1,27,28
 612 32 612 32 548 -8 c 256,29,30
 484 -48 484 -48 424 -48 c 0,31,32
 370 -48 370 -48 328 -15 c 1,33,34
 292 20 292 20 292 84 c 0,35,36
 292 132 292 132 332 223 c 0,37,38
 384 343 384 343 384 367 c 0,39,40
 384 440 384 440 332 440 c 0,41,42
 302 440 302 440 292 436 c 1,43,-1
 280 451 l 1,44,45
 312 491 312 491 360 491 c 0,0,1
EndSplineSet
Validated: 1
EndChar

StartChar: phi
Encoding: 966 966 148
Width: 1024
GlyphClass: 2
Flags: W
LayerCount: 2
Fore
SplineSet
432 491 m 1,0,-1
 444 476 l 1,1,2
 375 417 375 417 335 340 c 0,3,4
 304 278 304 278 304 216 c 0,5,6
 304 128 304 128 364 74 c 0,7,8
 399 40 399 40 443 30 c 1,9,-1
 450 56 l 1,10,-1
 507 281 l 2,11,12
 545 419 545 419 574 455 c 0,13,14
 607 491 607 491 660 491 c 0,15,16
 698 491 698 491 729 464 c 0,17,18
 757 438 757 438 774 396 c 0,19,20
 792 351 792 351 792 300 c 0,21,22
 792 219 792 219 752 151 c 0,23,24
 708 83 708 83 633 41 c 0,25,26
 567 4 567 4 477 4 c 1,27,28
 461 -80 461 -80 450 -153 c 0,29,30
 445 -185 445 -185 436 -193 c 0,31,32
 427 -200 427 -200 408 -200 c 0,33,34
 380 -200 380 -200 380 -180 c 0,35,36
 380 -172 380 -172 389 -147 c 0,37,38
 410 -98 410 -98 437 6 c 1,39,40
 348 14 348 14 299 60 c 0,41,42
 244 117 244 117 244 212 c 0,43,44
 244 296 244 296 287 364 c 0,45,46
 337 445 337 445 432 491 c 1,0,-1
652 468 m 0,47,48
 618 468 618 468 599 436 c 0,49,50
 564 379 564 379 505 134 c 1,51,-1
 482 27 l 1,52,53
 558 29 558 29 603 58 c 0,54,55
 662 95 662 95 694 150 c 0,56,57
 728 211 728 211 728 304 c 0,58,59
 728 401 728 401 696 446 c 0,60,61
 681 468 681 468 652 468 c 0,47,48
EndSplineSet
Validated: 1
EndChar

StartChar: chi
Encoding: 967 967 149
Width: 1024
GlyphClass: 2
Flags: W
LayerCount: 2
Fore
SplineSet
416 491 m 0,0,1
 490 491 490 491 510 290 c 2,2,-1
 519 197 l 1,3,4
 566 265 566 265 612 335 c 0,5,6
 693 461 693 461 705 471 c 0,7,8
 713 476 713 476 736 476 c 0,9,10
 764 475 764 475 770 472 c 256,11,12
 776 469 776 469 776 464 c 0,13,14
 776 456 776 456 702 360 c 0,15,16
 609 240 609 240 526 124 c 1,17,-1
 538 18 l 1,18,19
 551 -141 551 -141 612 -141 c 0,20,21
 649 -141 649 -141 700 -52 c 1,22,-1
 712 -61 l 1,23,24
 688 -136 688 -136 656 -168 c 0,25,26
 628 -196 628 -196 600 -200 c 1,27,28
 517 -200 517 -200 505 -51 c 2,29,-1
 493 75 l 1,30,31
 437 -3 437 -3 387 -80 c 1,32,33
 315 -180 315 -180 300 -191 c 0,34,35
 288 -196 288 -196 268 -196 c 0,36,37
 249 -196 249 -196 241 -194 c 0,38,39
 232 -189 232 -189 232 -180 c 0,40,41
 232 -175 232 -175 329 -58 c 0,42,43
 410 44 410 44 485 149 c 1,44,-1
 470 295 l 2,45,46
 458 436 458 436 396 436 c 0,47,48
 356 436 356 436 308 376 c 1,49,-1
 296 384 l 1,50,51
 324 444 324 444 360 468 c 0,52,53
 388 491 388 491 416 491 c 0,0,1
EndSplineSet
Validated: 1
EndChar

StartChar: psi
Encoding: 968 968 150
Width: 1024
GlyphClass: 2
Flags: W
LayerCount: 2
Fore
SplineSet
648 720 m 0,0,1
 684 720 684 720 684 700 c 0,2,3
 684 696 684 696 636 566 c 0,4,5
 571 383 571 383 508 124 c 2,6,-1
 485 33 l 1,7,8
 530 36 530 36 580 58 c 1,9,10
 643 92 643 92 687 160 c 0,11,12
 732 234 732 234 732 292 c 0,13,14
 732 384 732 384 676 460 c 1,15,-1
 688 468 l 1,16,17
 733 439 733 439 757 392 c 0,18,19
 784 342 784 342 784 292 c 0,20,21
 784 216 784 216 759 160 c 0,22,23
 720 84 720 84 651 45 c 0,24,25
 573 5 573 5 479 4 c 1,26,27
 462 -75 462 -75 453 -137 c 0,28,29
 444 -182 444 -182 437 -190 c 0,30,31
 424 -200 424 -200 404 -200 c 0,32,33
 376 -200 376 -200 376 -185 c 0,34,35
 376 -173 376 -173 389 -146 c 0,36,37
 406 -109 406 -109 439 6 c 1,38,39
 396 11 396 11 358 28 c 0,40,41
 302 56 302 56 269 103 c 1,42,43
 240 152 240 152 240 208 c 0,44,45
 240 303 240 303 290 373 c 0,46,47
 343 445 343 445 452 491 c 1,48,-1
 460 480 l 1,49,50
 367 418 367 418 332 352 c 0,51,52
 300 296 300 296 300 204 c 0,53,54
 300 148 300 148 321 113 c 0,55,56
 341 76 341 76 382 51 c 0,57,58
 412 37 412 37 446 33 c 1,59,-1
 470 120 l 2,60,61
 546 381 546 381 602 656 c 1,62,63
 608 720 608 720 648 720 c 0,0,1
EndSplineSet
Validated: 1
EndChar

StartChar: omega
Encoding: 969 969 151
Width: 1024
GlyphClass: 2
Flags: W
LayerCount: 2
Fore
SplineSet
416 491 m 1,0,-1
 424 472 l 1,1,2
 365 442 365 442 312 370 c 0,3,4
 271 320 271 320 248 255 c 0,5,6
 228 194 228 194 228 132 c 0,7,8
 228 60 228 60 260 26 c 0,9,10
 292 -4 292 -4 340 -4 c 0,11,12
 375 -4 375 -4 432 44 c 2,13,-1
 437 48 l 1,14,15
 408 97 408 97 408 172 c 0,16,17
 408 213 408 213 429 237 c 0,18,19
 456 268 456 268 496 268 c 0,20,21
 568 268 568 268 568 199 c 0,22,23
 568 160 568 160 525 100 c 0,24,25
 506 72 506 72 481 47 c 1,26,27
 529 -13 529 -13 608 -13 c 0,28,29
 652 -13 652 -13 694 30 c 0,30,31
 739 72 739 72 764 133 c 0,32,33
 796 203 796 203 796 272 c 0,34,35
 796 339 796 339 774 387 c 0,36,37
 755 430 755 430 708 472 c 1,38,-1
 720 491 l 1,39,40
 792 440 792 440 824 380 c 0,41,42
 856 319 856 319 856 248 c 0,43,44
 856 172 856 172 820 92 c 1,45,46
 780 23 780 23 724 -13 c 0,47,48
 672 -48 672 -48 612 -48 c 0,49,50
 516 -48 516 -48 458 21 c 1,51,-1
 456 23 l 1,52,53
 433 4 433 4 409 -13 c 0,54,55
 359 -44 359 -44 316 -44 c 0,56,57
 248 -44 248 -44 208 8 c 0,58,59
 164 60 164 60 164 140 c 0,60,61
 164 239 164 239 240 340 c 1,62,63
 312 444 312 444 416 491 c 1,0,-1
488 235 m 0,64,65
 469 235 469 235 453 220 c 0,66,67
 440 205 440 205 440 176 c 0,68,69
 440 114 440 114 463 72 c 1,70,71
 488 99 488 99 503 125 c 0,72,73
 528 166 528 166 528 199 c 0,74,75
 528 235 528 235 488 235 c 0,64,65
EndSplineSet
Validated: 1
EndChar

StartChar: endash
Encoding: 8211 8211 152
Width: 1024
GlyphClass: 2
Flags: W
LayerCount: 2
Fore
SplineSet
492 307 m 1024,0,-1
296 323 m 1,1,-1
 688 323 l 1,2,-1
 688 292 l 1,3,-1
 296 292 l 1,4,-1
 296 323 l 1,1,-1
EndSplineSet
Validated: 1
EndChar

StartChar: emdash
Encoding: 8212 8212 153
Width: 1024
GlyphClass: 2
Flags: W
LayerCount: 2
Fore
SplineSet
514 307 m 1024,0,-1
68 323 m 1,1,-1
 961 323 l 1,2,-1
 961 292 l 1,3,-1
 68 292 l 1,4,-1
 68 323 l 1,1,-1
EndSplineSet
Validated: 1
EndChar

StartChar: SF100000
Encoding: 8213 8213 154
AltUni2: 002500.ffffffff.0
Width: 1024
GlyphClass: 2
Flags: W
LayerCount: 2
Fore
SplineSet
512 307 m 1024,0,-1
0 323 m 1,1,-1
 1024 323 l 1,2,-1
 1024 292 l 1,3,-1
 0 292 l 1,4,-1
 0 323 l 1,1,-1
EndSplineSet
Validated: 1
EndChar

StartChar: uni2016
Encoding: 8214 8214 155
AltUni2: 002225.ffffffff.0
Width: 1024
GlyphClass: 2
Flags: W
LayerCount: 2
Fore
SplineSet
400 308 m 1024,0,-1
624 308 m 1024,1,-1
384 820 m 1,2,-1
 416 820 l 1,3,-1
 416 -204 l 1,4,-1
 384 -204 l 1,5,-1
 384 820 l 1,2,-1
608 820 m 1,6,-1
 640 820 l 1,7,-1
 640 -204 l 1,8,-1
 608 -204 l 1,9,-1
 608 820 l 1,6,-1
EndSplineSet
Validated: 1
EndChar

StartChar: quotedblleft
Encoding: 8220 8220 156
Width: 1024
GlyphClass: 2
Flags: W
LayerCount: 2
Fore
SplineSet
956 768 m 1,0,-1
 968 747 l 1,1,2
 900 696 900 696 900 672 c 0,3,4
 900 658 900 658 925 651 c 0,5,6
 964 640 964 640 964 600 c 0,7,8
 964 575 964 575 947 559 c 0,9,10
 927 544 927 544 904 544 c 0,11,12
 886 544 886 544 864 559 c 1,13,14
 844 579 844 579 844 616 c 0,15,16
 844 657 844 657 866 693 c 0,17,18
 892 735 892 735 956 768 c 1,0,-1
772 768 m 1,19,-1
 784 747 l 1,20,21
 716 696 716 696 716 672 c 0,22,23
 716 658 716 658 740 651 c 0,24,25
 780 640 780 640 780 600 c 0,26,27
 780 575 780 575 763 559 c 0,28,29
 743 544 743 544 720 544 c 0,30,31
 702 544 702 544 681 559 c 0,32,33
 660 579 660 579 660 616 c 0,34,35
 660 657 660 657 682 693 c 0,36,37
 709 735 709 735 772 768 c 1,19,-1
EndSplineSet
Validated: 1
EndChar

StartChar: bullet
Encoding: 8226 8226 157
AltUni2: 002027.ffffffff.0
Width: 1024
GlyphClass: 2
Flags: W
LayerCount: 2
Fore
SplineSet
512 436 m 0,0,1
 552 436 552 436 584 404 c 0,2,3
 612 376 612 376 612 332 c 0,4,5
 612 292 612 292 584 260 c 0,6,7
 552 228 552 228 512 228 c 0,8,9
 464 228 464 228 436 260 c 256,10,11
 408 292 408 292 408 332 c 0,12,13
 408 380 408 380 440 411 c 0,14,15
 468 436 468 436 512 436 c 0,0,1
EndSplineSet
Validated: 1
EndChar

StartChar: minute
Encoding: 8242 8242 158
Width: 1024
GlyphClass: 2
Flags: W
LayerCount: 2
Fore
SplineSet
648 812 m 256,0,1
 664 812 664 812 680 795 c 0,2,3
 692 780 692 780 692 764 c 0,4,5
 692 740 692 740 684 736 c 1,6,7
 672 720 672 720 656 716 c 2,8,-1
 360 640 l 2,9,10
 344 640 344 640 344 648 c 0,11,12
 344 652 344 652 360 660 c 2,13,-1
 624 804 l 2,14,15
 632 812 632 812 648 812 c 256,0,1
EndSplineSet
Validated: 1
EndChar

StartChar: uni2035
Encoding: 8245 8245 159
Width: 1024
GlyphClass: 2
Flags: W
LayerCount: 2
Fore
SplineSet
392 812 m 1,0,-1
 412 804 l 1,1,-1
 684 667 l 2,2,3
 692 667 692 667 692 660 c 0,4,5
 692 652 692 652 684 652 c 2,6,-1
 384 711 l 1,7,8
 344 724 344 724 344 760 c 0,9,10
 344 812 344 812 392 812 c 1,0,-1
EndSplineSet
Validated: 1
EndChar

StartChar: uni2103
Encoding: 8451 8451 160
Width: 1024
GlyphClass: 2
Flags: W
LayerCount: 2
Fore
SplineSet
788 672 m 1,0,-1
 840 491 l 1,1,-1
 824 484 l 1,2,3
 773 578 773 578 714 617 c 1,4,5
 660 647 660 647 584 648 c 0,6,7
 512 648 512 648 451 594 c 0,8,9
 400 549 400 549 376 481 c 0,10,11
 344 399 344 399 344 296 c 0,12,13
 344 181 344 181 382 105 c 0,14,15
 416 41 416 41 461 5 c 0,16,17
 520 -44 520 -44 612 -44 c 0,18,19
 679 -44 679 -44 737 -1 c 256,20,21
 795 42 795 42 848 140 c 1,22,-1
 864 136 l 1,23,24
 826 43 826 43 780 -7 c 0,25,26
 729 -61 729 -61 683 -78 c 0,27,28
 644 -92 644 -92 588 -92 c 0,29,30
 502 -92 502 -92 437 -45 c 1,31,32
 358 6 358 6 315 99 c 0,33,34
 280 181 280 181 280 283 c 0,35,36
 280 396 280 396 316 484 c 256,37,38
 352 572 352 572 432 636 c 1,39,40
 504 676 504 676 584 676 c 0,41,42
 629 676 629 676 676 661 c 0,43,44
 715 648 715 648 728 648 c 0,45,46
 753 648 753 648 788 672 c 1,0,-1
176 776 m 256,47,48
 221 776 221 776 255 743 c 0,49,50
 288 708 288 708 288 663 c 0,51,52
 288 619 288 619 255 586 c 0,53,54
 221 552 221 552 176 552 c 256,55,56
 131 552 131 552 96 586 c 0,57,58
 65 619 65 619 65 663 c 0,59,60
 65 708 65 708 96 743 c 1,61,62
 131 776 131 776 176 776 c 256,47,48
176 575 m 0,63,64
 211 575 211 575 238 602 c 0,65,66
 264 629 264 629 264 663 c 0,67,68
 264 699 264 699 238 726 c 0,69,70
 211 751 211 751 176 751 c 0,71,72
 140 751 140 751 114 726 c 0,73,74
 88 699 88 699 88 663 c 0,75,76
 88 629 88 629 114 602 c 256,77,78
 140 575 140 575 176 575 c 0,63,64
EndSplineSet
Validated: 1
EndChar

StartChar: uni2105
Encoding: 8453 8453 161
Width: 1024
GlyphClass: 2
Flags: W
LayerCount: 2
Fore
SplineSet
264 772 m 0,0,1
 325 772 325 772 374 743 c 1,2,3
 416 711 416 711 416 676 c 0,4,5
 416 663 416 663 407 653 c 0,6,7
 395 644 395 644 384 644 c 0,8,9
 356 644 356 644 356 680 c 0,10,11
 356 712 356 712 334 729 c 0,12,13
 310 747 310 747 264 747 c 0,14,15
 205 747 205 747 159 688 c 0,16,17
 112 634 112 634 112 535 c 0,18,19
 112 474 112 474 131 438 c 0,20,21
 152 394 152 394 180 373 c 0,22,23
 218 344 218 344 264 344 c 0,24,25
 305 344 305 344 339 362 c 0,26,27
 381 381 381 381 424 447 c 1,28,-1
 440 444 l 1,29,30
 396 362 396 362 347 333 c 0,31,32
 305 304 305 304 252 304 c 0,33,34
 200 304 200 304 144 340 c 0,35,36
 104 367 104 367 80 416 c 0,37,38
 56 464 56 464 56 532 c 0,39,40
 56 636 56 636 116 703 c 0,41,42
 180 772 180 772 264 772 c 0,0,1
916 751 m 1,43,-1
 936 732 l 1,44,-1
 88 -116 l 1,45,-1
 68 -96 l 1,46,-1
 916 751 l 1,43,-1
756 316 m 256,47,48
 818 316 818 316 866 284 c 1,49,50
 919 255 919 255 948 198 c 0,51,52
 976 148 976 148 976 80 c 0,53,54
 976 11 976 11 949 -44 c 0,55,56
 921 -111 921 -111 866 -143 c 0,57,58
 819 -172 819 -172 756 -172 c 0,59,60
 692 -172 692 -172 645 -143 c 0,61,62
 591 -111 591 -111 560 -44 c 0,63,64
 536 11 536 11 536 80 c 0,65,66
 536 148 536 148 563 198 c 0,67,68
 593 255 593 255 646 284 c 1,69,70
 694 316 694 316 756 316 c 256,47,48
756 -149 m 0,71,72
 799 -149 799 -149 831 -128 c 0,73,74
 868 -108 868 -108 893 -63 c 0,75,76
 920 -16 920 -16 920 80 c 0,77,78
 920 168 920 168 896 213 c 0,79,80
 878 247 878 247 841 270 c 0,81,82
 807 292 807 292 756 292 c 256,83,84
 705 292 705 292 672 270 c 0,85,86
 634 247 634 247 616 213 c 0,87,88
 592 168 592 168 592 80 c 0,89,90
 592 -16 592 -16 618 -63 c 0,91,92
 643 -108 643 -108 680 -128 c 0,93,94
 714 -149 714 -149 756 -149 c 0,71,72
EndSplineSet
Validated: 1
EndChar

StartChar: uni2109
Encoding: 8457 8457 162
Width: 1024
GlyphClass: 2
Flags: W
LayerCount: 2
Fore
SplineSet
602 324 m 1024,0,-1
486 309 m 1024,1,-1
486 154 m 1024,2,-1
484 684 m 1,3,-1
 920 684 l 1,4,-1
 944 484 l 1,5,-1
 928 484 l 1,6,7
 871 571 871 571 807 615 c 0,8,9
 750 652 750 652 592 652 c 0,10,11
 532 652 532 652 524 642 c 0,12,13
 516 634 516 634 516 619 c 2,14,-1
 516 340 l 1,15,-1
 688 340 l 2,16,17
 703 340 703 340 714 361 c 0,18,19
 724 384 724 384 724 464 c 1,20,-1
 756 464 l 1,21,-1
 756 176 l 1,22,-1
 724 176 l 1,23,24
 724 261 724 261 714 285 c 0,25,26
 703 308 703 308 688 308 c 2,27,-1
 516 308 l 1,28,-1
 516 0 l 2,29,30
 516 -14 516 -14 530 -26 c 0,31,32
 545 -36 545 -36 636 -36 c 1,33,-1
 636 -68 l 1,34,-1
 356 -68 l 1,35,-1
 356 -36 l 1,36,37
 413 -36 413 -36 431 -30 c 0,38,39
 456 -24 456 -24 456 0 c 2,40,-1
 456 619 l 2,41,42
 456 631 456 631 444 642 c 0,43,44
 428 652 428 652 356 652 c 1,45,-1
 356 684 l 1,46,-1
 484 684 l 1,3,-1
176 776 m 256,47,48
 221 776 221 776 255 743 c 0,49,50
 288 708 288 708 288 663 c 0,51,52
 288 619 288 619 255 586 c 0,53,54
 221 552 221 552 176 552 c 256,55,56
 131 552 131 552 96 586 c 0,57,58
 65 619 65 619 65 663 c 0,59,60
 65 708 65 708 96 743 c 1,61,62
 131 776 131 776 176 776 c 256,47,48
176 575 m 0,63,64
 211 575 211 575 238 602 c 0,65,66
 264 629 264 629 264 663 c 0,67,68
 264 699 264 699 238 726 c 0,69,70
 211 751 211 751 176 751 c 0,71,72
 140 751 140 751 114 726 c 0,73,74
 88 699 88 699 88 663 c 0,75,76
 88 629 88 629 114 602 c 256,77,78
 140 575 140 575 176 575 c 0,63,64
EndSplineSet
Validated: 1
EndChar

StartChar: uni2215
Encoding: 8725 8725 163
Width: 1024
GlyphClass: 2
Flags: W
LayerCount: 2
Fore
SplineSet
712 788 m 1,0,-1
 744 772 l 1,1,-1
 304 -172 l 1,2,-1
 272 -156 l 1,3,-1
 712 788 l 1,0,-1
EndSplineSet
Validated: 1
EndChar

StartChar: radical
Encoding: 8730 8730 164
Width: 1024
GlyphClass: 2
Flags: W
LayerCount: 2
Fore
SplineSet
1008 812 m 1,0,-1
 1008 776 l 1,1,-1
 672 776 l 1,2,-1
 204 -164 l 1,3,-1
 100 160 l 1,4,-1
 52 120 l 1,5,-1
 36 148 l 1,6,-1
 152 248 l 1,7,-1
 240 -21 l 1,8,-1
 656 812 l 1,9,10
 833 812 833 812 1008 812 c 1,0,-1
EndSplineSet
Validated: 1
EndChar

StartChar: infinity
Encoding: 8734 8734 165
Width: 1024
GlyphClass: 2
Flags: W
LayerCount: 2
Fore
SplineSet
292 508 m 0,0,1
 341 508 341 508 391 479 c 0,2,3
 450 447 450 447 510 356 c 1,4,5
 569 446 569 446 621 479 c 0,6,7
 670 512 670 512 732 512 c 0,8,9
 800 512 800 512 852 460 c 0,10,11
 908 407 908 407 908 327 c 0,12,13
 908 256 908 256 856 199 c 0,14,15
 804 144 804 144 724 144 c 0,16,17
 676 144 676 144 626 176 c 0,18,19
 569 215 569 215 510 299 c 1,20,21
 460 221 460 221 411 189 c 0,22,23
 353 151 353 151 284 151 c 0,24,25
 224 151 224 151 176 191 c 1,26,27
 112 252 112 252 112 327 c 0,28,29
 112 404 112 404 160 455 c 1,30,31
 216 508 216 508 292 508 c 0,0,1
528 327 m 1,32,33
 586 243 586 243 636 210 c 0,34,35
 684 176 684 176 728 176 c 0,36,37
 791 176 791 176 836 225 c 0,38,39
 876 271 876 271 876 327 c 0,40,41
 876 393 876 393 835 435 c 0,42,43
 788 480 788 480 728 480 c 0,44,45
 683 480 683 480 641 455 c 0,46,47
 587 421 587 421 528 327 c 1,32,33
490 326 m 1,48,49
 432 418 432 418 380 446 c 1,50,51
 334 476 334 476 288 476 c 0,52,53
 227 476 227 476 185 432 c 0,54,55
 144 390 144 390 144 327 c 0,56,57
 144 263 144 263 189 222 c 0,58,59
 230 184 230 184 288 184 c 0,60,61
 345 184 345 184 395 217 c 0,62,63
 441 247 441 247 490 326 c 1,48,49
EndSplineSet
Validated: 1
EndChar

StartChar: orthogonal
Encoding: 8735 8735 166
Width: 1024
GlyphClass: 2
Flags: W
LayerCount: 2
Fore
SplineSet
526 7 m 1024,0,-1
188 309 m 1024,1,-1
172 627 m 1,2,-1
 204 627 l 1,3,-1
 204 23 l 1,4,-1
 848 23 l 1,5,-1
 848 -8 l 1,6,-1
 172 -8 l 1,7,-1
 172 627 l 1,2,-1
EndSplineSet
Validated: 1
EndChar

StartChar: angle
Encoding: 8736 8736 167
Width: 1024
GlyphClass: 2
Flags: W
LayerCount: 2
Fore
SplineSet
546 7 m 1024,0,-1
848 627 m 1,1,-1
 868 608 l 1,2,-1
 244 23 l 1,3,-1
 848 23 l 1,4,-1
 848 -8 l 1,5,-1
 172 -8 l 1,6,-1
 848 627 l 1,1,-1
EndSplineSet
Validated: 1
EndChar

StartChar: uni2223
Encoding: 8739 8739 168
Width: 1024
GlyphClass: 2
Flags: W
LayerCount: 2
Fore
SplineSet
512 308 m 1024,0,-1
496 820 m 1,1,-1
 528 820 l 1,2,-1
 528 -204 l 1,3,-1
 496 -204 l 1,4,-1
 496 820 l 1,1,-1
EndSplineSet
Validated: 1
EndChar

StartChar: intersection
Encoding: 8745 8745 169
Width: 1024
GlyphClass: 2
Flags: W
LayerCount: 2
Fore
SplineSet
792 190 m 1024,0,-1
232 190 m 1024,1,-1
512 663 m 0,2,3
 656 663 656 663 736 596 c 0,4,5
 808 539 808 539 808 432 c 2,6,-1
 808 -52 l 1,7,-1
 776 -52 l 1,8,-1
 776 432 l 2,9,10
 776 516 776 516 715 572 c 0,11,12
 643 632 643 632 512 632 c 0,13,14
 380 632 380 632 308 572 c 1,15,16
 248 516 248 516 248 432 c 2,17,-1
 248 -52 l 1,18,-1
 216 -52 l 1,19,-1
 216 432 l 2,20,21
 216 539 216 539 288 596 c 1,22,23
 364 663 364 663 512 663 c 0,2,3
EndSplineSet
Validated: 1
EndChar

StartChar: union
Encoding: 8746 8746 170
Width: 1024
GlyphClass: 2
Flags: W
LayerCount: 2
Fore
SplineSet
792 427 m 1024,0,-1
232 427 m 1024,1,-1
216 667 m 1,2,-1
 248 667 l 1,3,-1
 248 188 l 2,4,5
 248 103 248 103 308 47 c 1,6,7
 380 -13 380 -13 512 -13 c 0,8,9
 643 -13 643 -13 715 47 c 0,10,11
 776 103 776 103 776 188 c 2,12,-1
 776 667 l 1,13,-1
 808 667 l 1,14,-1
 808 188 l 2,15,16
 808 80 808 80 736 20 c 0,17,18
 656 -44 656 -44 512 -44 c 0,19,20
 364 -44 364 -44 288 20 c 0,21,22
 216 80 216 80 216 188 c 2,23,-1
 216 667 l 1,2,-1
EndSplineSet
Validated: 1
EndChar

StartChar: integral
Encoding: 8747 8747 171
Width: 1024
GlyphClass: 2
Flags: W
LayerCount: 2
Fore
SplineSet
528 747 m 256,0,1
 497 747 497 747 477 721 c 0,2,3
 456 689 456 689 456 640 c 0,4,5
 456 564 456 564 489 463 c 2,6,-1
 573 215 l 2,7,8
 608 111 608 111 608 36 c 0,9,10
 608 -58 608 -58 569 -106 c 0,11,12
 531 -149 531 -149 484 -149 c 0,13,14
 438 -149 438 -149 407 -126 c 0,15,16
 378 -106 378 -106 376 -76 c 0,17,18
 376 -63 376 -63 386 -50 c 0,19,20
 397 -36 397 -36 412 -36 c 0,21,22
 449 -36 449 -36 456 -80 c 0,23,24
 462 -124 462 -124 500 -124 c 0,25,26
 526 -124 526 -124 547 -94 c 0,27,28
 568 -67 568 -67 568 -17 c 0,29,30
 568 59 568 59 534 163 c 2,31,-1
 450 410 l 2,32,33
 416 512 416 512 416 588 c 0,34,35
 416 679 416 679 454 727 c 0,36,37
 490 772 490 772 544 772 c 0,38,39
 587 772 587 772 616 748 c 0,40,41
 648 723 648 723 648 696 c 0,42,43
 648 679 648 679 638 668 c 0,44,45
 628 656 628 656 612 656 c 0,46,47
 570 656 570 656 562 710 c 0,48,49
 559 747 559 747 528 747 c 256,0,1
EndSplineSet
Validated: 1
EndChar

StartChar: uni222E
Encoding: 8750 8750 172
Width: 1024
GlyphClass: 2
Flags: W
LayerCount: 2
Fore
SplineSet
512 532 m 0,0,1
 598 532 598 532 664 466 c 0,2,3
 728 398 728 398 728 308 c 0,4,5
 728 220 728 220 664 153 c 0,6,7
 635 124 635 124 601 108 c 1,8,9
 608 69 608 69 608 36 c 0,10,11
 608 -58 608 -58 569 -106 c 0,12,13
 531 -149 531 -149 484 -149 c 0,14,15
 438 -149 438 -149 407 -126 c 0,16,17
 378 -106 378 -106 376 -76 c 0,18,19
 376 -63 376 -63 386 -50 c 0,20,21
 397 -36 397 -36 412 -36 c 0,22,23
 449 -36 449 -36 456 -80 c 0,24,25
 462 -124 462 -124 500 -124 c 0,26,27
 526 -124 526 -124 547 -94 c 0,28,29
 568 -67 568 -67 568 -17 c 0,30,31
 568 32 568 32 554 92 c 1,32,33
 534 88 534 88 512 88 c 0,34,35
 422 88 422 88 353 153 c 1,36,37
 288 220 288 220 288 308 c 0,38,39
 288 398 288 398 353 466 c 0,40,41
 386 497 386 497 423 513 c 1,42,43
 416 554 416 554 416 588 c 0,44,45
 416 679 416 679 454 727 c 0,46,47
 490 772 490 772 544 772 c 0,48,49
 587 772 587 772 616 748 c 0,50,51
 648 723 648 723 648 696 c 0,52,53
 648 679 648 679 638 668 c 0,54,55
 628 656 628 656 612 656 c 0,56,57
 570 656 570 656 562 710 c 0,58,59
 559 747 559 747 528 747 c 256,60,61
 497 747 497 747 477 721 c 0,62,63
 456 689 456 689 456 640 c 0,64,65
 456 590 456 590 471 528 c 1,66,67
 490 532 490 532 512 532 c 0,0,1
512 115 m 0,68,69
 530 115 530 115 547 119 c 1,70,71
 541 140 541 140 534 163 c 2,72,-1
 450 410 l 2,73,74
 436 450 436 450 428 485 c 1,75,76
 399 471 399 471 374 446 c 0,77,78
 316 387 316 387 316 308 c 0,79,80
 316 231 316 231 374 173 c 0,81,82
 433 115 433 115 512 115 c 0,68,69
478 501 m 1,83,-1
 489 463 l 1,84,-1
 573 215 l 2,85,86
 587 173 587 173 596 136 c 1,87,88
 622 150 622 150 644 173 c 0,89,90
 700 231 700 231 700 308 c 0,91,92
 700 387 700 387 644 446 c 0,93,94
 587 504 587 504 512 504 c 0,95,96
 495 504 495 504 478 501 c 1,83,-1
EndSplineSet
Validated: 1
EndChar

StartChar: therefore
Encoding: 8756 8756 173
Width: 1024
GlyphClass: 2
Flags: W
LayerCount: 2
Fore
SplineSet
508 636 m 0,0,1
 537 636 537 636 553 618 c 0,2,3
 572 600 572 600 572 572 c 0,4,5
 572 545 572 545 553 526 c 0,6,7
 535 508 535 508 508 508 c 256,8,9
 481 508 481 508 462 526 c 0,10,11
 444 544 444 544 444 572 c 256,12,13
 444 600 444 600 463 618 c 0,14,15
 481 636 481 636 508 636 c 0,0,1
216 107 m 0,16,17
 245 107 245 107 261 91 c 0,18,19
 280 72 280 72 280 44 c 0,20,21
 280 17 280 17 261 -2 c 0,22,23
 243 -21 243 -21 216 -21 c 256,24,25
 189 -21 189 -21 170 -1 c 0,26,27
 152 15 152 15 152 44 c 0,28,29
 152 72 152 72 171 91 c 0,30,31
 189 107 189 107 216 107 c 0,16,17
808 107 m 0,32,33
 837 107 837 107 853 91 c 0,34,35
 872 72 872 72 872 44 c 0,36,37
 872 17 872 17 853 -2 c 0,38,39
 835 -21 835 -21 808 -21 c 256,40,41
 781 -21 781 -21 762 -1 c 0,42,43
 744 15 744 15 744 44 c 0,44,45
 744 72 744 72 763 91 c 0,46,47
 781 107 781 107 808 107 c 0,32,33
EndSplineSet
Validated: 1
EndChar

StartChar: uni2235
Encoding: 8757 8757 174
Width: 1024
GlyphClass: 2
Flags: W
LayerCount: 2
Fore
SplineSet
216 640 m 0,0,1
 245 640 245 640 261 622 c 0,2,3
 280 604 280 604 280 575 c 0,4,5
 280 549 280 549 261 530 c 0,6,7
 243 512 243 512 216 512 c 256,8,9
 189 512 189 512 170 530 c 0,10,11
 152 548 152 548 152 575 c 0,12,13
 152 604 152 604 171 622 c 0,14,15
 189 640 189 640 216 640 c 0,0,1
808 640 m 0,16,17
 837 640 837 640 853 622 c 0,18,19
 872 604 872 604 872 575 c 0,20,21
 872 549 872 549 853 530 c 0,22,23
 835 512 835 512 808 512 c 256,24,25
 781 512 781 512 762 530 c 0,26,27
 744 548 744 548 744 575 c 0,28,29
 744 604 744 604 763 622 c 0,30,31
 781 640 781 640 808 640 c 0,16,17
504 124 m 0,32,33
 532 124 532 124 549 106 c 0,34,35
 568 88 568 88 568 60 c 0,36,37
 568 33 568 33 549 14 c 0,38,39
 530 -4 530 -4 504 -4 c 0,40,41
 477 -4 477 -4 458 14 c 0,42,43
 440 32 440 32 440 60 c 256,44,45
 440 88 440 88 459 106 c 0,46,47
 477 124 477 124 504 124 c 0,32,33
EndSplineSet
Validated: 1
EndChar

StartChar: uni2252
Encoding: 8786 8786 175
Width: 1024
GlyphClass: 2
Flags: W
LayerCount: 2
Fore
SplineSet
512 404 m 1024,0,-1
512 211 m 1024,1,-1
724 111 m 256,2,3
 745 111 745 111 758 99 c 0,4,5
 772 85 772 85 772 63 c 0,6,7
 772 44 772 44 758 29 c 0,8,9
 744 16 744 16 724 16 c 0,10,11
 703 16 703 16 689 29 c 0,12,13
 676 43 676 43 676 63 c 0,14,15
 676 85 676 85 690 99 c 0,16,17
 703 111 703 111 724 111 c 256,2,3
304 600 m 0,18,19
 326 600 326 600 338 587 c 0,20,21
 352 573 352 573 352 552 c 256,22,23
 352 531 352 531 338 518 c 0,24,25
 324 504 324 504 304 504 c 256,26,27
 284 504 284 504 269 518 c 0,28,29
 256 530 256 530 256 552 c 0,30,31
 256 573 256 573 270 587 c 0,32,33
 284 600 284 600 304 600 c 0,18,19
164 420 m 1,34,-1
 860 420 l 1,35,-1
 860 388 l 1,36,-1
 164 388 l 1,37,-1
 164 420 l 1,34,-1
164 228 m 1,38,-1
 860 228 l 1,39,-1
 860 195 l 1,40,-1
 164 195 l 1,41,-1
 164 228 l 1,38,-1
EndSplineSet
Validated: 1
EndChar

StartChar: notequal
Encoding: 8800 8800 176
Width: 1024
GlyphClass: 2
Flags: W
LayerCount: 2
Fore
SplineSet
344 420 m 1024,0,-1
724 420 m 1024,1,-1
676 232 m 1024,2,-1
295 232 m 1024,3,-1
156 436 m 1,4,-1
 549 436 l 1,5,-1
 672 676 l 1,6,-1
 700 660 l 1,7,-1
 585 436 l 1,8,-1
 864 436 l 1,9,-1
 864 404 l 1,10,-1
 568 404 l 1,11,-1
 488 248 l 1,12,-1
 864 248 l 1,13,-1
 864 216 l 1,14,-1
 471 216 l 1,15,-1
 348 -24 l 1,16,-1
 321 -8 l 1,17,-1
 435 216 l 1,18,-1
 156 216 l 1,19,-1
 156 248 l 1,20,-1
 452 248 l 1,21,-1
 532 404 l 1,22,-1
 156 404 l 1,23,-1
 156 436 l 1,4,-1
EndSplineSet
Validated: 1
EndChar

StartChar: equivalence
Encoding: 8801 8801 177
AltUni2: 002263.ffffffff.0
Width: 1024
GlyphClass: 2
Flags: W
LayerCount: 2
Fore
SplineSet
512 515 m 1024,0,-1
512 307 m 1024,1,-1
512 108 m 1024,2,-1
164 532 m 1,3,-1
 860 532 l 1,4,-1
 860 499 l 1,5,-1
 164 499 l 1,6,-1
 164 532 l 1,3,-1
164 323 m 1,7,-1
 860 323 l 1,8,-1
 860 292 l 1,9,-1
 164 292 l 1,10,-1
 164 323 l 1,7,-1
164 124 m 1,11,-1
 860 124 l 1,12,-1
 860 92 l 1,13,-1
 164 92 l 1,14,-1
 164 124 l 1,11,-1
EndSplineSet
Validated: 1
EndChar

StartChar: uni2266
Encoding: 8806 8806 178
Width: 1024
GlyphClass: 2
Flags: W
LayerCount: 2
Fore
SplineSet
512 104 m 1024,0,-1
512 -40 m 1024,1,-1
856 692 m 1,2,-1
 856 660 l 1,3,-1
 248 428 l 1,4,-1
 856 195 l 1,5,-1
 856 164 l 1,6,-1
 168 428 l 1,7,-1
 856 692 l 1,2,-1
168 120 m 1,8,-1
 856 120 l 1,9,-1
 856 88 l 1,10,-1
 168 88 l 1,11,-1
 168 120 l 1,8,-1
168 -24 m 1,12,-1
 856 -24 l 1,13,-1
 856 -57 l 1,14,-1
 168 -57 l 1,15,-1
 168 -24 l 1,12,-1
EndSplineSet
Validated: 1
EndChar

StartChar: uni2267
Encoding: 8807 8807 179
Width: 1024
GlyphClass: 2
Flags: W
LayerCount: 2
Fore
SplineSet
512 104 m 1024,0,-1
512 -40 m 1024,1,-1
164 692 m 1,2,-1
 856 428 l 1,3,-1
 164 164 l 1,4,-1
 164 195 l 1,5,-1
 776 428 l 1,6,-1
 164 660 l 1,7,-1
 164 692 l 1,2,-1
168 120 m 1,8,-1
 856 120 l 1,9,-1
 856 88 l 1,10,-1
 168 88 l 1,11,-1
 168 120 l 1,8,-1
168 -24 m 1,12,-1
 856 -24 l 1,13,-1
 856 -57 l 1,14,-1
 168 -57 l 1,15,-1
 168 -24 l 1,12,-1
EndSplineSet
Validated: 1
EndChar

StartChar: circleplus
Encoding: 8853 8853 180
AltUni2: 002641.ffffffff.0
Width: 1024
GlyphClass: 2
Flags: W
LayerCount: 2
Fore
SplineSet
329 332 m 1024,0,-1
688 332 m 1024,1,-1
504 140 m 1024,2,-1
504 499 m 1024,3,-1
512 684 m 0,4,5
 662 684 662 684 776 573 c 0,6,7
 888 459 888 459 888 308 c 0,8,9
 888 158 888 158 776 43 c 1,10,11
 662 -68 662 -68 512 -68 c 0,12,13
 360 -68 360 -68 246 43 c 1,14,15
 136 158 136 158 136 308 c 0,16,17
 136 459 136 459 246 573 c 1,18,19
 360 684 360 684 512 684 c 0,4,5
488 -35 m 1,20,-1
 488 316 l 1,21,-1
 168 316 l 1,22,-1
 168 308 l 2,23,24
 168 171 168 171 268 65 c 1,25,26
 365 -28 365 -28 488 -35 c 1,20,-1
170 348 m 1,27,-1
 488 348 l 1,28,-1
 488 651 l 1,29,30
 365 643 365 643 268 551 c 1,31,32
 182 462 182 462 170 348 c 1,27,-1
520 651 m 1,33,-1
 520 348 l 1,34,-1
 854 348 l 1,35,36
 841 462 841 462 754 551 c 0,37,38
 652 649 652 649 520 651 c 1,33,-1
856 316 m 1,39,-1
 520 316 l 1,40,-1
 520 -36 l 1,41,42
 652 -33 652 -33 754 65 c 1,43,44
 856 171 856 171 856 308 c 2,45,-1
 856 316 l 1,39,-1
EndSplineSet
Validated: 1
EndChar

StartChar: uni2299
Encoding: 8857 8857 181
AltUni2: 002609.ffffffff.0
Width: 1024
GlyphClass: 2
LayerCount: 2
Fore
SplineSet
512 684 m 0,0,1
 662 684 662 684 776 573 c 0,2,3
 888 459 888 459 888 308 c 0,4,5
 888 158 888 158 776 43 c 1,6,7
 662 -68 662 -68 512 -68 c 0,8,9
 360 -68 360 -68 246 43 c 1,10,11
 136 158 136 158 136 308 c 0,12,13
 136 459 136 459 246 573 c 1,14,15
 360 684 360 684 512 684 c 0,0,1
512 -36 m 0,16,17
 649 -36 649 -36 754 65 c 1,18,19
 856 171 856 171 856 308 c 0,20,21
 856 446 856 446 754 551 c 1,22,23
 649 652 649 652 512 652 c 0,24,25
 374 652 374 652 268 551 c 1,26,27
 168 446 168 446 168 308 c 0,28,29
 168 171 168 171 268 65 c 1,30,31
 374 -36 374 -36 512 -36 c 0,16,17
504 380 m 256,32,33
 531 380 531 380 552 360 c 0,34,35
 572 339 572 339 572 312 c 0,36,37
 572 284 572 284 552 264 c 0,38,39
 531 243 531 243 504 243 c 256,40,41
 477 243 477 243 456 264 c 0,42,43
 436 284 436 284 436 312 c 0,44,45
 436 339 436 339 456 360 c 0,46,47
 477 380 477 380 504 380 c 256,32,33
EndSplineSet
Validated: 1
EndChar

StartChar: perpendicular
Encoding: 8869 8869 182
Width: 1024
GlyphClass: 2
Flags: W
LayerCount: 2
Fore
SplineSet
688 7 m 1024,0,-1
510 7 m 1024,1,-1
512 325 m 1024,2,-1
496 627 m 1,3,-1
 528 627 l 1,4,-1
 528 23 l 1,5,-1
 848 23 l 1,6,-1
 848 -8 l 1,7,-1
 172 -8 l 1,8,-1
 172 23 l 1,9,-1
 496 23 l 1,10,-1
 496 627 l 1,3,-1
EndSplineSet
Validated: 1
EndChar

StartChar: uni22BF
Encoding: 8895 8895 183
Width: 1024
GlyphClass: 2
Flags: W
LayerCount: 2
Fore
SplineSet
546 7 m 1024,0,-1
832 325 m 1024,1,-1
848 627 m 1,2,-1
 848 -8 l 1,3,-1
 172 -8 l 1,4,-1
 848 627 l 1,2,-1
244 23 m 1,5,-1
 816 23 l 1,6,-1
 816 556 l 1,7,-1
 244 23 l 1,5,-1
EndSplineSet
Validated: 1
EndChar

StartChar: uni2501
Encoding: 9473 9473 184
Width: 1024
GlyphClass: 2
Flags: W
LayerCount: 2
Fore
SplineSet
1023 246 m 1,0,-1
 0 246 l 1,1,-1
 0 374 l 1,2,-1
 1023 374 l 1,3,-1
 1023 246 l 1,0,-1
EndSplineSet
Validated: 1
EndChar

StartChar: SF110000
Encoding: 9474 9474 185
Width: 1024
GlyphClass: 2
Flags: W
LayerCount: 2
Fore
SplineSet
512 308 m 1024,0,-1
528 820 m 1,1,-1
 528 -204 l 1,2,-1
 496 -204 l 1,3,-1
 496 820 l 1,4,-1
 528 820 l 1,1,-1
EndSplineSet
Validated: 1
EndChar

StartChar: SF010000
Encoding: 9484 9484 186
Width: 1024
GlyphClass: 2
Flags: W
LayerCount: 2
Fore
SplineSet
760 307 m 1024,0,-1
512 44 m 1024,1,-1
1024 323 m 1,2,-1
 1024 292 l 1,3,-1
 528 292 l 1,4,-1
 528 -204 l 1,5,-1
 496 -204 l 1,6,-1
 496 323 l 1,7,-1
 1024 323 l 1,2,-1
EndSplineSet
Validated: 1
EndChar

StartChar: SF030000
Encoding: 9488 9488 187
Width: 1024
GlyphClass: 2
Flags: W
LayerCount: 2
Fore
SplineSet
248 307 m 1024,0,-1
512 59 m 1024,1,-1
0 323 m 1,2,-1
 528 323 l 1,3,-1
 528 -204 l 1,4,-1
 496 -204 l 1,5,-1
 496 292 l 1,6,-1
 0 292 l 1,7,-1
 0 323 l 1,2,-1
EndSplineSet
Validated: 1
EndChar

StartChar: SF020000
Encoding: 9492 9492 188
Width: 1024
GlyphClass: 2
Flags: W
LayerCount: 2
Fore
SplineSet
776 307 m 1024,0,-1
512 556 m 1024,1,-1
528 820 m 1,2,-1
 528 323 l 1,3,-1
 1024 323 l 1,4,-1
 1024 292 l 1,5,-1
 496 292 l 1,6,-1
 496 820 l 1,7,-1
 528 820 l 1,2,-1
EndSplineSet
Validated: 1
EndChar

StartChar: SF040000
Encoding: 9496 9496 189
Width: 1024
GlyphClass: 2
Flags: W
LayerCount: 2
Fore
SplineSet
264 307 m 1024,0,-1
512 571 m 1024,1,-1
528 820 m 1,2,-1
 528 292 l 1,3,-1
 0 292 l 1,4,-1
 0 323 l 1,5,-1
 496 323 l 1,6,-1
 496 820 l 1,7,-1
 528 820 l 1,2,-1
EndSplineSet
Validated: 1
EndChar

StartChar: SF080000
Encoding: 9500 9500 190
Width: 1024
GlyphClass: 2
Flags: W
LayerCount: 2
Fore
SplineSet
776 307 m 1024,0,-1
512 308 m 1024,1,-1
512 44 m 1024,2,-1
528 820 m 1,3,-1
 528 323 l 1,4,-1
 1024 323 l 1,5,-1
 1024 292 l 1,6,-1
 528 292 l 1,7,-1
 528 -204 l 1,8,-1
 496 -204 l 1,9,-1
 496 820 l 1,10,-1
 528 820 l 1,3,-1
EndSplineSet
Validated: 1
EndChar

StartChar: SF090000
Encoding: 9508 9508 191
Width: 1024
GlyphClass: 2
Flags: W
LayerCount: 2
Fore
SplineSet
248 307 m 1024,0,-1
512 308 m 1024,1,-1
512 571 m 1024,2,-1
528 820 m 1,3,-1
 528 -204 l 1,4,-1
 496 -204 l 1,5,-1
 496 292 l 1,6,-1
 0 292 l 1,7,-1
 0 323 l 1,8,-1
 496 323 l 1,9,-1
 496 820 l 1,10,-1
 528 820 l 1,3,-1
EndSplineSet
Validated: 1
EndChar

StartChar: SF060000
Encoding: 9516 9516 192
Width: 1024
GlyphClass: 2
Flags: W
LayerCount: 2
Fore
SplineSet
512 307 m 1024,0,-1
248 307 m 1024,1,-1
512 44 m 1024,2,-1
0 323 m 1,3,-1
 1024 323 l 1,4,-1
 1024 292 l 1,5,-1
 528 292 l 1,6,-1
 528 -204 l 1,7,-1
 496 -204 l 1,8,-1
 496 292 l 1,9,-1
 0 292 l 1,10,-1
 0 323 l 1,3,-1
EndSplineSet
Validated: 1
EndChar

StartChar: SF070000
Encoding: 9524 9524 193
Width: 1024
GlyphClass: 2
Flags: W
LayerCount: 2
Fore
SplineSet
776 307 m 1024,0,-1
512 307 m 1024,1,-1
512 571 m 1024,2,-1
528 820 m 1,3,-1
 528 323 l 1,4,-1
 1024 323 l 1,5,-1
 1024 292 l 1,6,-1
 0 292 l 1,7,-1
 0 323 l 1,8,-1
 496 323 l 1,9,-1
 496 820 l 1,10,-1
 528 820 l 1,3,-1
EndSplineSet
Validated: 1
EndChar

StartChar: SF050000
Encoding: 9532 9532 194
Width: 1024
GlyphClass: 2
Flags: W
LayerCount: 2
Fore
SplineSet
776 307 m 1024,0,-1
248 307 m 1024,1,-1
512 44 m 1024,2,-1
512 571 m 1024,3,-1
528 820 m 1,4,-1
 528 323 l 1,5,-1
 1024 323 l 1,6,-1
 1024 292 l 1,7,-1
 528 292 l 1,8,-1
 528 -204 l 1,9,-1
 496 -204 l 1,10,-1
 496 292 l 1,11,-1
 0 292 l 1,12,-1
 0 323 l 1,13,-1
 496 323 l 1,14,-1
 496 820 l 1,15,-1
 528 820 l 1,4,-1
EndSplineSet
Validated: 1
EndChar

StartChar: SF430000
Encoding: 9552 9552 195
Width: 1024
GlyphClass: 2
Flags: W
LayerCount: 2
Fore
SplineSet
512 347 m 1024,0,-1
512 259 m 1024,1,-1
0 363 m 1,2,-1
 1024 363 l 1,3,-1
 1024 332 l 1,4,-1
 0 332 l 1,5,-1
 0 363 l 1,2,-1
0 276 m 1,6,-1
 1024 276 l 1,7,-1
 1024 243 l 1,8,-1
 0 243 l 1,9,-1
 0 276 l 1,6,-1
EndSplineSet
Validated: 1
EndChar

StartChar: SF240000
Encoding: 9553 9553 196
Width: 1024
GlyphClass: 2
Flags: W
LayerCount: 2
Fore
SplineSet
472 308 m 1024,0,-1
560 308 m 1024,1,-1
456 820 m 1,2,-1
 488 820 l 1,3,-1
 488 -204 l 1,4,-1
 456 -204 l 1,5,-1
 456 820 l 1,2,-1
544 820 m 1,6,-1
 577 820 l 1,7,-1
 577 -204 l 1,8,-1
 544 -204 l 1,9,-1
 544 820 l 1,6,-1
EndSplineSet
Validated: 1
EndChar

StartChar: SF510000
Encoding: 9554 9554 197
Width: 1024
GlyphClass: 2
Flags: W
LayerCount: 2
Fore
SplineSet
776 259 m 1024,0,-1
760 347 m 1024,1,-1
512 64 m 1024,2,-1
512 19 m 1024,3,-1
1024 363 m 1,4,-1
 1024 332 l 1,5,-1
 528 332 l 1,6,-1
 528 276 l 1,7,-1
 1024 276 l 1,8,-1
 1024 243 l 1,9,-1
 528 243 l 1,10,-1
 528 -204 l 1,11,-1
 496 -204 l 1,12,-1
 496 363 l 1,13,-1
 1024 363 l 1,4,-1
EndSplineSet
Validated: 1
EndChar

StartChar: SF520000
Encoding: 9555 9555 198
Width: 1024
GlyphClass: 2
Flags: W
LayerCount: 2
Fore
SplineSet
740 307 m 1024,0,-1
500 307 m 1024,1,-1
560 44 m 1024,2,-1
472 44 m 1024,3,-1
1024 323 m 1,4,-1
 1024 292 l 1,5,-1
 577 292 l 1,6,-1
 577 -204 l 1,7,-1
 544 -204 l 1,8,-1
 544 292 l 1,9,-1
 488 292 l 1,10,-1
 488 -204 l 1,11,-1
 456 -204 l 1,12,-1
 456 323 l 1,13,-1
 1024 323 l 1,4,-1
EndSplineSet
Validated: 1
EndChar

StartChar: SF390000
Encoding: 9556 9556 199
Width: 1024
GlyphClass: 2
Flags: W
LayerCount: 2
Fore
SplineSet
740 347 m 1024,0,-1
784 259 m 1024,1,-1
472 64 m 1024,2,-1
560 19 m 1024,3,-1
1024 363 m 1,4,-1
 1024 332 l 1,5,-1
 488 332 l 1,6,-1
 488 -204 l 1,7,-1
 456 -204 l 1,8,-1
 456 363 l 1,9,-1
 1024 363 l 1,4,-1
1024 276 m 1,10,-1
 1024 243 l 1,11,-1
 577 243 l 1,12,-1
 577 -204 l 1,13,-1
 544 -204 l 1,14,-1
 544 276 l 1,15,-1
 1024 276 l 1,10,-1
EndSplineSet
Validated: 1
EndChar

StartChar: SF220000
Encoding: 9557 9557 200
Width: 1024
GlyphClass: 2
Flags: W
LayerCount: 2
Fore
SplineSet
248 347 m 1024,0,-1
248 259 m 1024,1,-1
512 79 m 1024,2,-1
512 319 m 1024,3,-1
0 363 m 1,4,-1
 528 363 l 1,5,-1
 528 -204 l 1,6,-1
 496 -204 l 1,7,-1
 496 243 l 1,8,-1
 0 243 l 1,9,-1
 0 276 l 1,10,-1
 496 276 l 1,11,-1
 496 332 l 1,12,-1
 0 332 l 1,13,-1
 0 363 l 1,4,-1
EndSplineSet
Validated: 1
EndChar

StartChar: SF210000
Encoding: 9558 9558 201
Width: 1024
GlyphClass: 2
Flags: W
LayerCount: 2
Fore
SplineSet
272 307 m 1024,0,-1
228 307 m 1024,1,-1
560 59 m 1024,2,-1
472 44 m 1024,3,-1
0 323 m 1,4,-1
 577 323 l 1,5,-1
 577 -204 l 1,6,-1
 544 -204 l 1,7,-1
 544 292 l 1,8,-1
 488 292 l 1,9,-1
 488 -204 l 1,10,-1
 456 -204 l 1,11,-1
 456 292 l 1,12,-1
 0 292 l 1,13,-1
 0 323 l 1,4,-1
EndSplineSet
Validated: 1
EndChar

StartChar: SF250000
Encoding: 9559 9559 202
Width: 1024
GlyphClass: 2
Flags: W
LayerCount: 2
Fore
SplineSet
272 347 m 1024,0,-1
228 259 m 1024,1,-1
560 79 m 1024,2,-1
472 36 m 1024,3,-1
0 363 m 1,4,-1
 577 363 l 1,5,-1
 577 -204 l 1,6,-1
 544 -204 l 1,7,-1
 544 332 l 1,8,-1
 0 332 l 1,9,-1
 0 363 l 1,4,-1
0 276 m 1,10,-1
 488 276 l 1,11,-1
 488 -204 l 1,12,-1
 456 -204 l 1,13,-1
 456 243 l 1,14,-1
 0 243 l 1,15,-1
 0 276 l 1,10,-1
EndSplineSet
Validated: 1
EndChar

StartChar: SF500000
Encoding: 9560 9560 203
Width: 1024
GlyphClass: 2
Flags: W
LayerCount: 2
Fore
SplineSet
776 347 m 1024,0,-1
776 259 m 1024,1,-1
512 531 m 1024,2,-1
512 287 m 1024,3,-1
528 820 m 1,4,-1
 528 363 l 1,5,-1
 1024 363 l 1,6,-1
 1024 332 l 1,7,-1
 528 332 l 1,8,-1
 528 276 l 1,9,-1
 1024 276 l 1,10,-1
 1024 243 l 1,11,-1
 496 243 l 1,12,-1
 496 820 l 1,13,-1
 528 820 l 1,4,-1
EndSplineSet
Validated: 1
EndChar

StartChar: SF490000
Encoding: 9561 9561 204
Width: 1024
GlyphClass: 2
Flags: W
LayerCount: 2
Fore
SplineSet
800 307 m 1024,0,-1
756 307 m 1024,1,-1
472 556 m 1024,2,-1
560 571 m 1024,3,-1
577 820 m 1,4,-1
 577 323 l 1,5,-1
 1024 323 l 1,6,-1
 1024 292 l 1,7,-1
 456 292 l 1,8,-1
 456 820 l 1,9,-1
 488 820 l 1,10,-1
 488 323 l 1,11,-1
 544 323 l 1,12,-1
 544 820 l 1,13,-1
 577 820 l 1,4,-1
EndSplineSet
Validated: 1
EndChar

StartChar: SF380000
Encoding: 9562 9562 205
Width: 1024
GlyphClass: 2
Flags: W
LayerCount: 2
Fore
SplineSet
800 347 m 1024,0,-1
756 259 m 1024,1,-1
560 576 m 1024,2,-1
472 531 m 1024,3,-1
577 820 m 1,4,-1
 577 363 l 1,5,-1
 1024 363 l 1,6,-1
 1024 332 l 1,7,-1
 544 332 l 1,8,-1
 544 820 l 1,9,-1
 577 820 l 1,4,-1
456 820 m 1,10,-1
 488 820 l 1,11,-1
 488 276 l 1,12,-1
 1024 276 l 1,13,-1
 1024 243 l 1,14,-1
 456 243 l 1,15,-1
 456 820 l 1,10,-1
EndSplineSet
Validated: 1
EndChar

StartChar: SF280000
Encoding: 9563 9563 206
Width: 1024
GlyphClass: 2
Flags: W
LayerCount: 2
Fore
SplineSet
264 259 m 1024,0,-1
248 347 m 1024,1,-1
512 591 m 1024,2,-1
512 548 m 1024,3,-1
496 363 m 1,4,-1
 496 820 l 1,5,-1
 528 820 l 1,6,-1
 528 243 l 1,7,-1
 0 243 l 1,8,-1
 0 276 l 1,9,-1
 496 276 l 1,10,-1
 496 332 l 1,11,-1
 0 332 l 1,12,-1
 0 363 l 1,13,-1
 496 363 l 1,4,-1
EndSplineSet
Validated: 1
EndChar

StartChar: SF270000
Encoding: 9564 9564 207
Width: 1024
GlyphClass: 2
Flags: W
LayerCount: 2
Fore
SplineSet
532 307 m 1024,0,-1
288 307 m 1024,1,-1
560 571 m 1024,2,-1
472 571 m 1024,3,-1
456 820 m 1,4,-1
 488 820 l 1,5,-1
 488 323 l 1,6,-1
 544 323 l 1,7,-1
 544 820 l 1,8,-1
 577 820 l 1,9,-1
 577 292 l 1,10,-1
 0 292 l 1,11,-1
 0 323 l 1,12,-1
 456 323 l 1,13,-1
 456 820 l 1,4,-1
EndSplineSet
Validated: 1
EndChar

StartChar: SF260000
Encoding: 9565 9565 208
Width: 1024
GlyphClass: 2
Flags: W
LayerCount: 2
Fore
SplineSet
244 347 m 1024,0,-1
288 259 m 1024,1,-1
472 591 m 1024,2,-1
560 548 m 1024,3,-1
456 820 m 1,4,-1
 488 820 l 1,5,-1
 488 332 l 1,6,-1
 0 332 l 1,7,-1
 0 363 l 1,8,-1
 456 363 l 1,9,-1
 456 820 l 1,4,-1
544 820 m 1,10,-1
 577 820 l 1,11,-1
 577 243 l 1,12,-1
 0 243 l 1,13,-1
 0 276 l 1,14,-1
 544 276 l 1,15,-1
 544 820 l 1,10,-1
EndSplineSet
Validated: 1
EndChar

StartChar: SF360000
Encoding: 9566 9566 209
Width: 1024
GlyphClass: 2
Flags: W
LayerCount: 2
Fore
SplineSet
776 347 m 1024,0,-1
776 259 m 1024,1,-1
512 308 m 1024,2,-1
512 64 m 1024,3,-1
512 19 m 1024,4,-1
528 820 m 1,5,-1
 528 363 l 1,6,-1
 1024 363 l 1,7,-1
 1024 332 l 1,8,-1
 528 332 l 1,9,-1
 528 276 l 1,10,-1
 1024 276 l 1,11,-1
 1024 243 l 1,12,-1
 528 243 l 1,13,-1
 528 -204 l 1,14,-1
 496 -204 l 1,15,-1
 496 820 l 1,16,-1
 528 820 l 1,5,-1
EndSplineSet
Validated: 1
EndChar

StartChar: SF370000
Encoding: 9567 9567 210
Width: 1024
GlyphClass: 2
Flags: W
LayerCount: 2
Fore
SplineSet
800 307 m 1024,0,-1
472 308 m 1024,1,-1
560 308 m 1024,2,-1
560 44 m 1024,3,-1
456 820 m 1,4,-1
 488 820 l 1,5,-1
 488 -204 l 1,6,-1
 456 -204 l 1,7,-1
 456 820 l 1,4,-1
544 820 m 1,8,-1
 577 820 l 1,9,-1
 577 323 l 1,10,-1
 1024 323 l 1,11,-1
 1024 292 l 1,12,-1
 577 292 l 1,13,-1
 577 -204 l 1,14,-1
 544 -204 l 1,15,-1
 544 820 l 1,8,-1
EndSplineSet
Validated: 1
EndChar

StartChar: SF420000
Encoding: 9568 9568 211
Width: 1024
GlyphClass: 2
Flags: W
LayerCount: 2
Fore
SplineSet
800 347 m 1024,0,-1
784 259 m 1024,1,-1
472 308 m 1024,2,-1
560 576 m 1024,3,-1
560 19 m 1024,4,-1
456 820 m 1,5,-1
 488 820 l 1,6,-1
 488 -204 l 1,7,-1
 456 -204 l 1,8,-1
 456 820 l 1,5,-1
577 820 m 1,9,-1
 577 363 l 1,10,-1
 1024 363 l 1,11,-1
 1024 332 l 1,12,-1
 544 332 l 1,13,-1
 544 820 l 1,14,-1
 577 820 l 1,9,-1
1024 276 m 1,15,-1
 1024 243 l 1,16,-1
 577 243 l 1,17,-1
 577 -204 l 1,18,-1
 544 -204 l 1,19,-1
 544 276 l 1,20,-1
 1024 276 l 1,15,-1
EndSplineSet
Validated: 1
EndChar

StartChar: SF190000
Encoding: 9569 9569 212
Width: 1024
GlyphClass: 2
Flags: W
LayerCount: 2
Fore
SplineSet
248 259 m 1024,0,-1
248 347 m 1024,1,-1
512 308 m 1024,2,-1
512 548 m 1024,3,-1
512 591 m 1024,4,-1
528 820 m 1,5,-1
 528 -204 l 1,6,-1
 496 -204 l 1,7,-1
 496 243 l 1,8,-1
 0 243 l 1,9,-1
 0 276 l 1,10,-1
 496 276 l 1,11,-1
 496 332 l 1,12,-1
 0 332 l 1,13,-1
 0 363 l 1,14,-1
 496 363 l 1,15,-1
 496 820 l 1,16,-1
 528 820 l 1,5,-1
EndSplineSet
Validated: 1
EndChar

StartChar: SF200000
Encoding: 9570 9570 213
Width: 1024
GlyphClass: 2
Flags: W
LayerCount: 2
Fore
SplineSet
228 307 m 1024,0,-1
472 308 m 1024,1,-1
472 571 m 1024,2,-1
560 308 m 1024,3,-1
456 820 m 1,4,-1
 488 820 l 1,5,-1
 488 -204 l 1,6,-1
 456 -204 l 1,7,-1
 456 292 l 1,8,-1
 0 292 l 1,9,-1
 0 323 l 1,10,-1
 456 323 l 1,11,-1
 456 820 l 1,4,-1
544 820 m 1,12,-1
 577 820 l 1,13,-1
 577 -204 l 1,14,-1
 544 -204 l 1,15,-1
 544 820 l 1,12,-1
EndSplineSet
Validated: 1
EndChar

StartChar: SF230000
Encoding: 9571 9571 214
Width: 1024
GlyphClass: 2
Flags: W
LayerCount: 2
Fore
SplineSet
244 347 m 1024,0,-1
228 259 m 1024,1,-1
560 308 m 1024,2,-1
472 591 m 1024,3,-1
472 36 m 1024,4,-1
544 820 m 1,5,-1
 577 820 l 1,6,-1
 577 -204 l 1,7,-1
 544 -204 l 1,8,-1
 544 820 l 1,5,-1
456 820 m 1,9,-1
 488 820 l 1,10,-1
 488 332 l 1,11,-1
 0 332 l 1,12,-1
 0 363 l 1,13,-1
 456 363 l 1,14,-1
 456 820 l 1,9,-1
0 276 m 1,15,-1
 488 276 l 1,16,-1
 488 -204 l 1,17,-1
 456 -204 l 1,18,-1
 456 243 l 1,19,-1
 0 243 l 1,20,-1
 0 276 l 1,15,-1
EndSplineSet
Validated: 1
EndChar

StartChar: SF470000
Encoding: 9572 9572 215
Width: 1024
GlyphClass: 2
Flags: W
LayerCount: 2
Fore
SplineSet
512 347 m 1024,0,-1
512 259 m 1024,1,-1
248 259 m 1024,2,-1
512 19 m 1024,3,-1
0 363 m 1,4,-1
 1024 363 l 1,5,-1
 1024 332 l 1,6,-1
 0 332 l 1,7,-1
 0 363 l 1,4,-1
0 276 m 1,8,-1
 1024 276 l 1,9,-1
 1024 243 l 1,10,-1
 528 243 l 1,11,-1
 528 -204 l 1,12,-1
 496 -204 l 1,13,-1
 496 243 l 1,14,-1
 0 243 l 1,15,-1
 0 276 l 1,8,-1
EndSplineSet
Validated: 1
EndChar

StartChar: SF480000
Encoding: 9573 9573 216
Width: 1024
GlyphClass: 2
Flags: W
LayerCount: 2
Fore
SplineSet
512 307 m 1024,0,-1
272 307 m 1024,1,-1
228 307 m 1024,2,-1
560 44 m 1024,3,-1
472 44 m 1024,4,-1
0 323 m 1,5,-1
 1024 323 l 1,6,-1
 1024 292 l 1,7,-1
 577 292 l 1,8,-1
 577 -204 l 1,9,-1
 544 -204 l 1,10,-1
 544 292 l 1,11,-1
 488 292 l 1,12,-1
 488 -204 l 1,13,-1
 456 -204 l 1,14,-1
 456 292 l 1,15,-1
 0 292 l 1,16,-1
 0 323 l 1,5,-1
EndSplineSet
Validated: 1
EndChar

StartChar: SF410000
Encoding: 9574 9574 217
Width: 1024
GlyphClass: 2
Flags: W
LayerCount: 2
Fore
SplineSet
512 347 m 1024,0,-1
228 259 m 1024,1,-1
784 259 m 1024,2,-1
472 36 m 1024,3,-1
560 19 m 1024,4,-1
0 363 m 1,5,-1
 1024 363 l 1,6,-1
 1024 332 l 1,7,-1
 0 332 l 1,8,-1
 0 363 l 1,5,-1
0 276 m 1,9,-1
 488 276 l 1,10,-1
 488 -204 l 1,11,-1
 456 -204 l 1,12,-1
 456 243 l 1,13,-1
 0 243 l 1,14,-1
 0 276 l 1,9,-1
1024 276 m 1,15,-1
 1024 243 l 1,16,-1
 577 243 l 1,17,-1
 577 -204 l 1,18,-1
 544 -204 l 1,19,-1
 544 276 l 1,20,-1
 1024 276 l 1,15,-1
EndSplineSet
Validated: 1
EndChar

StartChar: SF450000
Encoding: 9575 9575 218
Width: 1024
GlyphClass: 2
Flags: W
LayerCount: 2
Fore
SplineSet
776 347 m 1024,0,-1
512 347 m 1024,1,-1
512 259 m 1024,2,-1
512 591 m 1024,3,-1
528 820 m 1,4,-1
 528 363 l 1,5,-1
 1024 363 l 1,6,-1
 1024 332 l 1,7,-1
 0 332 l 1,8,-1
 0 363 l 1,9,-1
 496 363 l 1,10,-1
 496 820 l 1,11,-1
 528 820 l 1,4,-1
0 276 m 1,12,-1
 1024 276 l 1,13,-1
 1024 243 l 1,14,-1
 0 243 l 1,15,-1
 0 276 l 1,12,-1
EndSplineSet
Validated: 1
EndChar

StartChar: SF460000
Encoding: 9576 9576 219
Width: 1024
GlyphClass: 2
Flags: W
LayerCount: 2
Fore
SplineSet
512 307 m 1024,0,-1
756 307 m 1024,1,-1
800 307 m 1024,2,-1
472 571 m 1024,3,-1
560 571 m 1024,4,-1
0 323 m 1,5,-1
 456 323 l 1,6,-1
 456 820 l 1,7,-1
 488 820 l 1,8,-1
 488 323 l 1,9,-1
 544 323 l 1,10,-1
 544 820 l 1,11,-1
 577 820 l 1,12,-1
 577 323 l 1,13,-1
 1024 323 l 1,14,-1
 1024 292 l 1,15,-1
 0 292 l 1,16,-1
 0 323 l 1,5,-1
EndSplineSet
Validated: 1
EndChar

StartChar: SF400000
Encoding: 9577 9577 220
Width: 1024
GlyphClass: 2
Flags: W
LayerCount: 2
Fore
SplineSet
244 347 m 1024,0,-1
800 347 m 1024,1,-1
512 259 m 1024,2,-1
472 591 m 1024,3,-1
560 576 m 1024,4,-1
456 820 m 1,5,-1
 488 820 l 1,6,-1
 488 332 l 1,7,-1
 0 332 l 1,8,-1
 0 363 l 1,9,-1
 456 363 l 1,10,-1
 456 820 l 1,5,-1
577 820 m 1,11,-1
 577 363 l 1,12,-1
 1024 363 l 1,13,-1
 1024 332 l 1,14,-1
 544 332 l 1,15,-1
 544 820 l 1,16,-1
 577 820 l 1,11,-1
0 276 m 1,17,-1
 1024 276 l 1,18,-1
 1024 243 l 1,19,-1
 0 243 l 1,20,-1
 0 276 l 1,17,-1
EndSplineSet
Validated: 1
EndChar

StartChar: SF540000
Encoding: 9578 9578 221
Width: 1024
GlyphClass: 2
Flags: W
LayerCount: 2
Fore
SplineSet
776 347 m 1024,0,-1
512 347 m 1024,1,-1
512 259 m 1024,2,-1
248 259 m 1024,3,-1
512 591 m 1024,4,-1
512 19 m 1024,5,-1
528 820 m 1,6,-1
 528 363 l 1,7,-1
 1024 363 l 1,8,-1
 1024 332 l 1,9,-1
 0 332 l 1,10,-1
 0 363 l 1,11,-1
 496 363 l 1,12,-1
 496 820 l 1,13,-1
 528 820 l 1,6,-1
0 276 m 1,14,-1
 1024 276 l 1,15,-1
 1024 243 l 1,16,-1
 528 243 l 1,17,-1
 528 -204 l 1,18,-1
 496 -204 l 1,19,-1
 496 243 l 1,20,-1
 0 243 l 1,21,-1
 0 276 l 1,14,-1
EndSplineSet
Validated: 1
EndChar

StartChar: SF530000
Encoding: 9579 9579 222
Width: 1024
GlyphClass: 2
Flags: W
LayerCount: 2
Fore
SplineSet
228 307 m 1024,0,-1
800 307 m 1024,1,-1
472 308 m 1024,2,-1
472 571 m 1024,3,-1
560 308 m 1024,4,-1
560 44 m 1024,5,-1
456 820 m 1,6,-1
 488 820 l 1,7,-1
 488 -204 l 1,8,-1
 456 -204 l 1,9,-1
 456 292 l 1,10,-1
 0 292 l 1,11,-1
 0 323 l 1,12,-1
 456 323 l 1,13,-1
 456 820 l 1,6,-1
544 820 m 1,14,-1
 577 820 l 1,15,-1
 577 323 l 1,16,-1
 1024 323 l 1,17,-1
 1024 292 l 1,18,-1
 577 292 l 1,19,-1
 577 -204 l 1,20,-1
 544 -204 l 1,21,-1
 544 820 l 1,14,-1
EndSplineSet
Validated: 1
EndChar

StartChar: SF440000
Encoding: 9580 9580 223
Width: 1024
GlyphClass: 2
Flags: W
LayerCount: 2
Fore
SplineSet
244 347 m 1024,0,-1
800 347 m 1024,1,-1
228 259 m 1024,2,-1
784 259 m 1024,3,-1
472 591 m 1024,4,-1
560 576 m 1024,5,-1
472 36 m 1024,6,-1
560 19 m 1024,7,-1
456 820 m 1,8,-1
 488 820 l 1,9,-1
 488 332 l 1,10,-1
 0 332 l 1,11,-1
 0 363 l 1,12,-1
 456 363 l 1,13,-1
 456 820 l 1,8,-1
577 820 m 1,14,-1
 577 363 l 1,15,-1
 1024 363 l 1,16,-1
 1024 332 l 1,17,-1
 544 332 l 1,18,-1
 544 820 l 1,19,-1
 577 820 l 1,14,-1
0 276 m 1,20,-1
 488 276 l 1,21,-1
 488 -204 l 1,22,-1
 456 -204 l 1,23,-1
 456 243 l 1,24,-1
 0 243 l 1,25,-1
 0 276 l 1,20,-1
1024 276 m 1,26,-1
 1024 243 l 1,27,-1
 577 243 l 1,28,-1
 577 -204 l 1,29,-1
 544 -204 l 1,30,-1
 544 276 l 1,31,-1
 1024 276 l 1,26,-1
EndSplineSet
Validated: 1
EndChar

StartChar: uni256D
Encoding: 9581 9581 224
Width: 1024
GlyphClass: 2
Flags: W
LayerCount: 2
Fore
SplineSet
928 307 m 1024,0,-1
512 -104 m 1024,1,-1
1024 323 m 1,2,-1
 1024 292 l 1,3,-1
 833 292 l 2,4,5
 707 292 707 292 617 204 c 0,6,7
 528 121 528 121 528 -4 c 2,8,-1
 528 -204 l 1,9,-1
 496 -204 l 1,10,-1
 496 -4 l 2,11,12
 496 134 496 134 595 228 c 0,13,14
 693 323 693 323 833 323 c 2,15,-1
 1024 323 l 1,2,-1
EndSplineSet
Validated: 1
EndChar

StartChar: uni256E
Encoding: 9582 9582 225
Width: 1024
GlyphClass: 2
Flags: W
LayerCount: 2
Fore
SplineSet
82 307 m 1024,0,-1
512 -108 m 1024,1,-1
0 323 m 1,2,-1
 164 323 l 2,3,4
 317 323 317 323 420 226 c 0,5,6
 528 127 528 127 528 -13 c 2,7,-1
 528 -204 l 1,8,-1
 496 -204 l 1,9,-1
 496 -13 l 2,10,11
 496 111 496 111 400 202 c 0,12,13
 301 292 301 292 164 292 c 2,14,-1
 0 292 l 1,15,-1
 0 323 l 1,2,-1
EndSplineSet
Validated: 1
EndChar

StartChar: uni256F
Encoding: 9583 9583 226
Width: 1024
GlyphClass: 2
Flags: W
LayerCount: 2
Fore
SplineSet
82 307 m 1024,0,-1
512 740 m 1024,1,-1
528 820 m 1,2,-1
 528 660 l 2,3,4
 528 511 528 511 417 404 c 0,5,6
 306 292 306 292 164 292 c 2,7,-1
 0 292 l 1,8,-1
 0 323 l 1,9,-1
 164 323 l 2,10,11
 299 323 299 323 397 424 c 0,12,13
 496 522 496 522 496 660 c 2,14,-1
 496 820 l 1,15,-1
 528 820 l 1,2,-1
EndSplineSet
Validated: 1
EndChar

StartChar: uni2570
Encoding: 9584 9584 227
Width: 1024
GlyphClass: 2
Flags: W
LayerCount: 2
Fore
SplineSet
926 307 m 1024,0,-1
512 738 m 1024,1,-1
496 820 m 1,2,-1
 528 820 l 1,3,-1
 528 656 l 2,4,5
 528 521 528 521 614 423 c 0,6,7
 703 323 703 323 828 323 c 2,8,-1
 1024 323 l 1,9,-1
 1024 292 l 1,10,-1
 828 292 l 2,11,12
 688 292 688 292 593 400 c 0,13,14
 496 507 496 507 496 656 c 2,15,-1
 496 820 l 1,2,-1
EndSplineSet
Validated: 1
EndChar

StartChar: uni2571
Encoding: 9585 9585 228
Width: 1024
GlyphClass: 2
Flags: W
LayerCount: 2
Fore
SplineSet
1024 820 m 1,0,-1
 1024 791 l 1,1,-1
 28 -204 l 1,2,-1
 0 -204 l 1,3,-1
 0 -176 l 1,4,-1
 996 820 l 1,5,-1
 1024 820 l 1,0,-1
EndSplineSet
Validated: 1
EndChar

StartChar: uni2572
Encoding: 9586 9586 229
Width: 1024
GlyphClass: 2
Flags: W
LayerCount: 2
Fore
SplineSet
0 820 m 1,0,-1
 28 820 l 1,1,-1
 1024 -176 l 1,2,-1
 1024 -204 l 1,3,-1
 996 -204 l 1,4,-1
 0 791 l 1,5,-1
 0 820 l 1,0,-1
EndSplineSet
Validated: 1
EndChar

StartChar: uni2573
Encoding: 9587 9587 230
Width: 1024
GlyphClass: 2
Flags: W
LayerCount: 2
Fore
SplineSet
0 820 m 1,0,-1
 28 820 l 1,1,-1
 512 336 l 1,2,-1
 996 820 l 1,3,-1
 1024 820 l 1,4,-1
 1024 791 l 1,5,-1
 540 308 l 1,6,-1
 1024 -176 l 1,7,-1
 1024 -204 l 1,8,-1
 996 -204 l 1,9,-1
 512 279 l 1,10,-1
 28 -204 l 1,11,-1
 0 -204 l 1,12,-1
 0 -176 l 1,13,-1
 484 308 l 1,14,-1
 0 791 l 1,15,-1
 0 820 l 1,0,-1
EndSplineSet
Validated: 1
EndChar

StartChar: uni2574
Encoding: 9588 9588 231
Width: 1024
GlyphClass: 2
Flags: W
LayerCount: 2
Fore
SplineSet
0 -101 m 1,0,-1
 1024 -101 l 1,1,-1
 1024 -185 l 1,2,-1
 0 -185 l 1,3,-1
 0 -101 l 1,0,-1
EndSplineSet
Validated: 1
EndChar

StartChar: uni2581
Encoding: 9601 9601 232
Width: 1024
GlyphClass: 2
Flags: W
LayerCount: 2
Fore
SplineSet
0 -72 m 1,0,-1
 1024 -72 l 1,1,-1
 1024 -204 l 1,2,-1
 0 -204 l 1,3,-1
 0 -72 l 1,0,-1
EndSplineSet
Validated: 1
EndChar

StartChar: uni2582
Encoding: 9602 9602 233
Width: 1024
GlyphClass: 2
Flags: W
LayerCount: 2
Fore
SplineSet
0 56 m 1,0,-1
 1024 56 l 1,1,-1
 1024 -204 l 1,2,-1
 0 -204 l 1,3,-1
 0 56 l 1,0,-1
EndSplineSet
Validated: 1
EndChar

StartChar: uni2583
Encoding: 9603 9603 234
Width: 1024
GlyphClass: 2
Flags: W
LayerCount: 2
Fore
SplineSet
0 184 m 1,0,-1
 1024 184 l 1,1,-1
 1024 -204 l 1,2,-1
 0 -204 l 1,3,-1
 0 184 l 1,0,-1
EndSplineSet
Validated: 1
EndChar

StartChar: dnblock
Encoding: 9604 9604 235
Width: 1024
GlyphClass: 2
Flags: W
LayerCount: 2
Fore
SplineSet
0 308 m 1,0,-1
 1024 308 l 1,1,-1
 1024 -204 l 1,2,-1
 0 -204 l 1,3,-1
 0 308 l 1,0,-1
EndSplineSet
Validated: 1
EndChar

StartChar: uni2585
Encoding: 9605 9605 236
Width: 1024
GlyphClass: 2
Flags: W
LayerCount: 2
Fore
SplineSet
0 436 m 1,0,-1
 1024 436 l 1,1,-1
 1024 -204 l 1,2,-1
 0 -204 l 1,3,-1
 0 436 l 1,0,-1
EndSplineSet
Validated: 1
EndChar

StartChar: uni2586
Encoding: 9606 9606 237
Width: 1024
GlyphClass: 2
Flags: W
LayerCount: 2
Fore
SplineSet
0 564 m 1,0,-1
 1024 564 l 1,1,-1
 1024 -204 l 1,2,-1
 0 -204 l 1,3,-1
 0 564 l 1,0,-1
EndSplineSet
Validated: 1
EndChar

StartChar: uni2587
Encoding: 9607 9607 238
Width: 1024
GlyphClass: 2
Flags: W
LayerCount: 2
Fore
SplineSet
0 692 m 1,0,-1
 1024 692 l 1,1,-1
 1024 -204 l 1,2,-1
 0 -204 l 1,3,-1
 0 692 l 1,0,-1
EndSplineSet
Validated: 1
EndChar

StartChar: block
Encoding: 9608 9608 239
Width: 1024
GlyphClass: 2
Flags: W
LayerCount: 2
Fore
SplineSet
0 820 m 1,0,-1
 1024 820 l 1,1,-1
 1024 -204 l 1,2,-1
 0 -204 l 1,3,-1
 0 820 l 1,0,-1
EndSplineSet
Validated: 1
EndChar

StartChar: uni2589
Encoding: 9609 9609 240
Width: 1024
GlyphClass: 2
Flags: W
LayerCount: 2
Fore
SplineSet
888 820 m 1,0,-1
 888 -204 l 1,1,-1
 0 -204 l 1,2,-1
 0 820 l 1,3,-1
 888 820 l 1,0,-1
EndSplineSet
Validated: 1
EndChar

StartChar: uni258A
Encoding: 9610 9610 241
Width: 1024
GlyphClass: 2
Flags: W
LayerCount: 2
Fore
SplineSet
764 820 m 1,0,-1
 764 -204 l 1,1,-1
 0 -204 l 1,2,-1
 0 820 l 1,3,-1
 764 820 l 1,0,-1
EndSplineSet
Validated: 1
EndChar

StartChar: uni258B
Encoding: 9611 9611 242
Width: 1024
GlyphClass: 2
Flags: W
LayerCount: 2
Fore
SplineSet
640 820 m 1,0,-1
 640 -204 l 1,1,-1
 0 -204 l 1,2,-1
 0 820 l 1,3,-1
 640 820 l 1,0,-1
EndSplineSet
Validated: 1
EndChar

StartChar: lfblock
Encoding: 9612 9612 243
Width: 1024
GlyphClass: 2
Flags: W
LayerCount: 2
Fore
SplineSet
512 820 m 1,0,-1
 512 -204 l 1,1,-1
 0 -204 l 1,2,-1
 0 820 l 1,3,-1
 512 820 l 1,0,-1
EndSplineSet
Validated: 1
EndChar

StartChar: uni258D
Encoding: 9613 9613 244
Width: 1024
GlyphClass: 2
Flags: W
LayerCount: 2
Fore
SplineSet
384 820 m 1,0,-1
 384 -204 l 1,1,-1
 0 -204 l 1,2,-1
 0 820 l 1,3,-1
 384 820 l 1,0,-1
EndSplineSet
Validated: 1
EndChar

StartChar: uni258E
Encoding: 9614 9614 245
Width: 1024
GlyphClass: 2
Flags: W
LayerCount: 2
Fore
SplineSet
256 820 m 1,0,-1
 256 -204 l 1,1,-1
 0 -204 l 1,2,-1
 0 820 l 1,3,-1
 256 820 l 1,0,-1
EndSplineSet
Validated: 1
EndChar

StartChar: uni258F
Encoding: 9615 9615 246
Width: 1024
GlyphClass: 2
Flags: W
LayerCount: 2
Fore
SplineSet
128 820 m 1,0,-1
 128 -204 l 1,1,-1
 0 -204 l 1,2,-1
 0 820 l 1,3,-1
 128 820 l 1,0,-1
EndSplineSet
Validated: 1
EndChar

StartChar: dkshade
Encoding: 9619 9619 247
Width: 1024
GlyphClass: 2
Flags: W
LayerCount: 2
Fore
SplineSet
80 740 m 1,0,-1
 932 740 l 1,1,-1
 932 -116 l 1,2,-1
 80 -116 l 1,3,-1
 80 740 l 1,0,-1
EndSplineSet
Validated: 1
EndChar

StartChar: uni2594
Encoding: 9620 9620 248
Width: 1024
GlyphClass: 2
Flags: W
LayerCount: 2
Fore
SplineSet
0 820 m 1,0,-1
 1024 820 l 1,1,-1
 1024 696 l 1,2,-1
 0 696 l 1,3,-1
 0 820 l 1,0,-1
EndSplineSet
Validated: 1
EndChar

StartChar: uni2595
Encoding: 9621 9621 249
Width: 1024
GlyphClass: 2
Flags: W
LayerCount: 2
Fore
SplineSet
1024 820 m 1,0,-1
 1024 -204 l 1,1,-1
 900 -204 l 1,2,-1
 900 820 l 1,3,-1
 1024 820 l 1,0,-1
EndSplineSet
Validated: 1
EndChar

StartChar: uni25E2
Encoding: 9698 9698 250
Width: 1024
GlyphClass: 2
Flags: W
LayerCount: 2
Fore
SplineSet
1024 820 m 1,0,-1
 1024 -204 l 1,1,-1
 0 -204 l 1,2,-1
 1024 820 l 1,0,-1
EndSplineSet
Validated: 1
EndChar

StartChar: uni25E3
Encoding: 9699 9699 251
Width: 1024
GlyphClass: 2
Flags: W
LayerCount: 2
Fore
SplineSet
0 820 m 1,0,-1
 1024 -204 l 1,1,-1
 0 -204 l 1,2,-1
 0 820 l 1,0,-1
EndSplineSet
Validated: 1
EndChar

StartChar: uni25E4
Encoding: 9700 9700 252
Width: 1024
GlyphClass: 2
Flags: W
LayerCount: 2
Fore
SplineSet
1024 820 m 1,0,-1
 0 -204 l 1,1,-1
 0 820 l 1,2,-1
 1024 820 l 1,0,-1
EndSplineSet
Validated: 1
EndChar

StartChar: uni25E5
Encoding: 9701 9701 253
Width: 1024
GlyphClass: 2
Flags: W
LayerCount: 2
Fore
SplineSet
0 820 m 1,0,-1
 1024 820 l 1,1,-1
 1024 -204 l 1,2,-1
 0 820 l 1,0,-1
EndSplineSet
Validated: 1
EndChar

StartChar: uniFE6B
Encoding: 65131 65131 254
Width: 1024
GlyphClass: 2
LayerCount: 2
Fore
SplineSet
256 744 m 0,0,1
 344 744 344 744 400 640 c 0,2,3
 456 539 456 539 456 388 c 0,4,5
 456 300 456 300 432 220 c 0,6,7
 416 164 416 164 384 111 c 1,8,9
 352 67 352 67 316 67 c 0,10,11
 296 67 296 67 280 84 c 0,12,13
 259 107 259 107 268 135 c 1,14,15
 240 67 240 67 200 67 c 0,16,17
 172 67 172 67 160 100 c 1,18,19
 140 140 140 140 140 204 c 0,20,21
 140 276 140 276 152 344 c 0,22,23
 168 420 168 420 196 480 c 0,24,25
 232 548 232 548 268 548 c 0,26,27
 281 548 281 548 294 531 c 0,28,29
 307 515 307 515 312 484 c 1,30,-1
 321 524 l 1,31,-1
 368 524 l 1,32,-1
 321 195 l 2,33,34
 316 183 316 183 316 151 c 0,35,36
 316 128 316 128 336 128 c 0,37,38
 362 128 362 128 387 179 c 0,39,40
 413 228 413 228 421 273 c 0,41,42
 432 326 432 326 432 388 c 0,43,44
 432 490 432 490 400 574 c 0,45,46
 381 632 381 632 343 664 c 0,47,48
 303 700 303 700 256 700 c 0,49,50
 205 700 205 700 163 641 c 0,51,52
 122 587 122 587 101 498 c 256,53,54
 80 409 80 409 80 304 c 0,55,56
 80 188 80 188 100 102 c 0,57,58
 116 28 116 28 155 -24 c 0,59,60
 199 -84 199 -84 256 -84 c 0,61,62
 306 -84 306 -84 345 -47 c 0,63,64
 392 -7 392 -7 420 64 c 0,65,66
 452 143 452 143 468 256 c 1,67,-1
 488 256 l 1,68,69
 473 130 473 130 436 38 c 0,70,71
 401 -50 401 -50 349 -91 c 0,72,73
 303 -132 303 -132 248 -132 c 0,74,75
 188 -132 188 -132 136 -80 c 0,76,77
 84 -24 84 -24 56 67 c 1,78,79
 28 176 28 176 28 304 c 256,80,81
 28 432 28 432 60 535 c 0,82,83
 88 636 88 636 136 684 c 0,84,85
 193 744 193 744 256 744 c 0,0,1
212 128 m 0,86,87
 238 128 238 128 261 175 c 0,88,89
 285 223 285 223 288 243 c 2,90,-1
 304 420 l 1,91,92
 302 451 302 451 294 472 c 0,93,94
 284 499 284 499 272 499 c 0,95,96
 254 499 254 499 237 459 c 0,97,98
 220 423 220 423 206 338 c 0,99,100
 193 249 193 249 193 180 c 0,101,102
 193 128 193 128 212 128 c 0,86,87
EndSplineSet
Validated: 33
EndChar
